<?xml version="1.0" encoding="UTF-8"?><svg id="Layer_1" xmlns="http://www.w3.org/2000/svg" viewBox="0 0 134.277 47.562"><path d="M7.269,20.808c0-.224.031-.4.093-.531.062-.13.139-.242.233-.335.093-.093.189-.177.289-.251.099-.074.192-.18.279-.317.347.323.754.552,1.219.689.466.136.977.205,1.536.205.584,0,1.127-.069,1.629-.205.502-.137.937-.363,1.303-.68.366-.316.654-.735.865-1.256.211-.521.317-1.16.317-1.917,0-.819-.112-1.499-.335-2.038-.224-.54-.525-.971-.903-1.294-.379-.322-.816-.552-1.312-.689-.497-.137-1.018-.205-1.564-.205s-1.067.068-1.563.205c-.497.137-.934.366-1.313.689-.378.323-.679.754-.902,1.294s-.335,1.219-.335,2.038v.391c0,.124.006.242.019.354-.025.236-.097.425-.215.568s-.26.273-.428.391c-.167.118-.341.236-.521.354-.18.118-.348.267-.503.447s-.282.403-.381.67c-.1.267-.149.611-.149,1.033v3.537h2.643v-3.146ZM10.918,14.237c1.018,0,1.527.627,1.527,1.88,0,.707-.124,1.201-.372,1.48-.249.279-.633.419-1.154.419-.509,0-.89-.139-1.145-.419s-.381-.773-.381-1.48c0-1.253.508-1.88,1.526-1.88Z" fill="#6a66e6"/><path d="M18.892,19.458c.415.279.919.462,1.508.549.589.087,1.256.13,2.001.13h.782c0,.347-.041.624-.121.828s-.193.363-.335.475c-.143.112-.314.183-.512.214s-.422.047-.67.047h-2.141c-.124,0-.186.062-.186.186v1.88c0,.124.062.186.186.186h2.718c1.254,0,2.175-.286,2.764-.856.589-.571.884-1.44.884-2.606v-4.337c0-.794-.109-1.461-.326-2.001-.217-.54-.511-.968-.884-1.284-.372-.316-.807-.543-1.303-.679-.497-.137-1.018-.205-1.564-.205-.521,0-1.027.074-1.517.224-.49.149-.924.391-1.303.726-.379.335-.683.776-.912,1.321-.23.546-.344,1.216-.344,2.01,0,.844.108,1.517.325,2.02.217.503.533.893.949,1.173ZM20.557,14.758c.261-.347.645-.521,1.154-.521.98,0,1.471.614,1.471,1.843v1.806h-1.433c-.472,0-.853-.115-1.145-.345-.292-.229-.437-.685-.437-1.368,0-.596.13-1.067.39-1.415Z" fill="#6a66e6"/><path d="M30.552,8.149h.54c.335,0,.649-.037.94-.111.292-.074.54-.205.745-.391s.366-.431.484-.735c.118-.304.176-.686.176-1.145,0-.608-.137-1.049-.41-1.322-.273-.273-.608-.41-1.005-.41s-.732.14-1.006.419c-.272.279-.409.617-.409,1.015s.124.71.372.94c.248.23.589.345,1.024.345h.521c-.025.074-.068.152-.13.233-.062.081-.149.155-.261.224-.111.068-.254.124-.428.167s-.379.065-.615.065h-.54c-.124,0-.186.062-.186.186v.335c0,.124.062.186.186.186ZM32.097,6.046c-.062,0-.136-.009-.223-.028s-.167-.05-.242-.093-.14-.102-.195-.177c-.056-.074-.084-.167-.084-.279,0-.174.053-.335.158-.484.106-.149.276-.223.512-.223.198,0,.363.087.493.261.13.174.195.422.195.745v.298l-.615-.019Z" fill="#6a66e6"/><rect x="69.81" y="21.757" width="2.234" height="2.197" rx=".186" ry=".186" fill="#6a66e6"/><path d="M73.534,19.206c.235.397.527.652.875.763.347.112.757.167,1.228.167.019,0,.031-.01.049-.011.023.001.038.011.062.011h5.25c.583,0,1.126-.062,1.628-.186.503-.124.937-.338,1.303-.642.366-.304.654-.707.866-1.21.211-.502.316-1.132.316-1.889,0-.819-.111-1.499-.335-2.038s-.524-.971-.903-1.294c-.378-.322-.816-.552-1.312-.689-.497-.137-1.018-.205-1.563-.205-.521,0-1.031.068-1.527.205-.497.137-.937.366-1.322.689-.385.323-.692.754-.921,1.294-.23.54-.345,1.219-.345,2.038,0,.707.099,1.266.298,1.675h-1.434c-.021,0-.035.01-.056.011-.02-.001-.034-.011-.056-.011h-.428c-.434,0-.772-.09-1.015-.27-.242-.18-.375-.425-.4-.735v-4.393c0-.124-.062-.186-.186-.186h-2.253c-.124,0-.186.062-.186.186v3.872c0,.558-.05.953-.149,1.182-.099.23-.347.345-.745.345h-1.154c-.011,0-.018.005-.029.006-.01,0-.017-.006-.027-.006h-31.626c-.435,0-.772-.09-1.015-.27s-.376-.425-.4-.735v-1.545c0-1.229-.314-2.094-.94-2.597-.627-.503-1.517-.754-2.671-.754h-2.923c-.124,0-.186.062-.186.186v1.88c0,.124.062.186.186.186h2.141c.558,0,.977.109,1.256.326.28.217.419.568.419,1.052v1.005c0,.236-.015.435-.046.596-.031.161-.093.292-.186.391-.093.1-.233.171-.419.214-.186.044-.435.065-.745.065h-3.201c-.124,0-.186.062-.186.186v1.88c0,.124.062.186.186.186h4.505c.583,0,1.071-.077,1.461-.233.391-.155.698-.431.922-.828.236.434.543.72.921.856.379.137.822.205,1.331.205h31.217c.012,0,.019-.004.03-.005.01,0,.016.005.026.005h1.917c.683,0,1.219-.056,1.61-.167s.685-.366.884-.763ZM80.998,14.237c1.017,0,1.526.627,1.526,1.88,0,.695-.127,1.176-.381,1.443-.254.267-.636.4-1.145.4s-.891-.137-1.145-.41c-.254-.273-.381-.769-.381-1.489,0-1.216.509-1.824,1.527-1.824Z" fill="#6a66e6"/><rect x="72.677" y="21.757" width="2.253" height="2.197" rx=".186" ry=".186" fill="#6a66e6"/><rect x="78.411" y="8.224" width="2.234" height="2.197" rx=".186" ry=".186" fill="#6a66e6"/><rect x="81.277" y="8.224" width="2.253" height="2.197" rx=".186" ry=".186" fill="#6a66e6"/><path d="M10.497,27.631c-3.643,0-5.62,2.424-5.62,5.682,0,3.366,1.636,5.96,5.62,5.96,1.05,0,1.945-.216,2.702-.618l.973.911c.216.201.355.324.725.324.448,0,.865-.51.865-.942,0-.17-.077-.324-.201-.432l-.973-.911c1.035-1.081,1.529-2.656,1.529-4.292,0-3.258-1.976-5.682-5.62-5.682ZM12.921,36.045l-.88-.803c-.216-.201-.355-.324-.725-.324-.448,0-.865.509-.865.942,0,.17.077.324.201.432l.864.803c-.293.092-.633.139-1.019.139-2.378,0-3.088-1.791-3.088-3.922s1.019-3.644,3.088-3.644,3.088,1.513,3.088,3.644c0,1.065-.201,2.038-.664,2.733Z" fill="#6a66e6"/><path d="M23.656,28.619c-.278-.787-.787-.926-1.359-.926h-.602c-.618,0-1.019.201-1.235.772l-3.274,8.662c-.093.247-.247.695-.247.973,0,.679.479,1.111,1.173,1.111.602,0,.957-.201,1.127-.695l.664-1.853h4.076l.649,1.853c.186.494.587.695,1.143.695.649,0,1.188-.494,1.188-1.111,0-.278-.154-.726-.247-.973l-3.057-8.507ZM20.461,34.903l1.498-4.462h.03l1.436,4.462h-2.964Z" fill="#6a66e6"/><path d="M34.593,27.693c-.525,0-.803.185-1.096.741l-2.193,4.06-2.208-4.06c-.263-.494-.54-.741-1.143-.741-.494,0-1.281.293-1.281,1.158,0,.232.093.463.216.664l3.104,5.157v3.273c0,.757.494,1.266,1.266,1.266s1.266-.51,1.266-1.266v-3.273l3.104-5.157c.123-.201.216-.432.216-.664,0-.864-.787-1.158-1.25-1.158Z" fill="#6a66e6"/><path d="M41.73,27.893h-3.087c-.896,0-1.482.355-1.482,1.482v8.152c0,1.127.586,1.482,1.482,1.482h3.041c3.382,0,5.343-2.038,5.343-5.558,0-4.354-2.532-5.558-5.296-5.558ZM41.823,36.972h-2.13v-7.04h2.115c1.853,0,2.687,1.328,2.687,3.52,0,1.714-.649,3.52-2.671,3.52Z" fill="#6a66e6"/><path d="M54.009,27.631c-3.643,0-5.62,2.424-5.62,5.682,0,3.366,1.636,5.96,5.62,5.96,3.799,0,5.62-2.826,5.62-5.96,0-3.258-1.976-5.682-5.62-5.682ZM54.009,37.234c-2.378,0-3.088-1.791-3.088-3.922s1.019-3.644,3.088-3.644,3.088,1.513,3.088,3.644-.787,3.922-3.088,3.922Z" fill="#6a66e6"/><path d="M69.886,27.693c-.772,0-1.266.51-1.266,1.266v6.083c0,1.513-.849,2.192-2.3,2.192s-2.3-.679-2.3-2.192v-6.083c0-.757-.495-1.266-1.266-1.266s-1.266.51-1.266,1.266v5.882c0,3.057,1.883,4.431,4.832,4.431s4.832-1.374,4.832-4.431v-5.882c0-.757-.494-1.266-1.266-1.266Z" fill="#6a66e6"/><path d="M83.54,27.693h-.71c-.788,0-1.158.309-1.42,1.158l-2.177,7.133h-.031l-2.208-7.133c-.263-.849-.633-1.158-1.421-1.158h-.741c-.68,0-1.374.232-1.374,1.251v9.032c0,.633.309,1.235,1.127,1.235s1.127-.602,1.127-1.235v-6.886h.031l2.362,7.38c.17.525.556.741,1.081.741s.911-.216,1.081-.741l2.362-7.38h.031v6.886c0,.633.309,1.235,1.127,1.235s1.127-.602,1.127-1.235v-9.032c0-1.019-.695-1.251-1.375-1.251Z" fill="#6a66e6"/><path d="M110.997,3.434c-12.099,0-18.659,8.045-18.659,18.859,0,11.172,5.433,19.783,18.659,19.783,3.485,0,6.455-.719,8.969-2.051l3.225,3.025c.721.666,1.182,1.077,2.409,1.077,1.487,0,2.874-1.693,2.874-3.127,0-.563-.26-1.077-.666-1.435l-3.23-3.025c3.43-3.586,5.073-8.814,5.073-14.247,0-10.814-6.56-18.859-18.654-18.859ZM119.04,31.365l-2.92-2.664c-.716-.666-1.177-1.077-2.409-1.077-1.487,0-2.869,1.69-2.869,3.125,0,.566.255,1.077.666,1.435l2.869,2.667c-.972.308-2.103.461-3.38.461-7.892,0-10.251-5.944-10.251-13.018s3.38-12.096,10.251-12.096,10.251,5.023,10.251,12.096c0,3.536-.671,6.766-2.208,9.072Z" fill="#6a66e6"/></svg>