<?xml version="1.0" encoding="UTF-8"?><svg id="Layer_1" xmlns="http://www.w3.org/2000/svg" viewBox="0 0 1920 600"><rect width="1920" height="600" fill="#fff"/><path d="M677.892,478.461h1.584v1.944h-1.824c-1.647,0-2.832-.607-3.552-1.824-.768.736-1.72,1.104-2.856,1.104-1.407,0-2.527-.528-3.359-1.584-.688-.896-1.032-1.992-1.032-3.288,0-1.552.472-2.8,1.416-3.744.8-.816,1.776-1.224,2.928-1.224.88,0,1.641.224,2.28.672v-1.032l2.088-1.104v7.681c0,1.6.776,2.399,2.328,2.399ZM673.476,472.749c-.592-.655-1.32-.983-2.184-.983-.705,0-1.28.284-1.729.852-.448.568-.672,1.308-.672,2.22,0,.929.224,1.673.672,2.232.448.561,1.032.84,1.752.84.896,0,1.632-.368,2.208-1.104-.032-.288-.048-.513-.048-.673v-3.384ZM670.38,466.846c-.784,0-1.177-.4-1.177-1.2,0-.784.393-1.176,1.177-1.176.768,0,1.151.392,1.151,1.176,0,.8-.384,1.2-1.151,1.2ZM673.428,466.846c-.784,0-1.176-.4-1.176-1.2,0-.784.392-1.176,1.176-1.176.768,0,1.152.392,1.152,1.176,0,.8-.385,1.2-1.152,1.2Z" fill="#5f616e"/><path d="M690.972,478.461v1.944h-12.937v-1.944h4.152c-.784-1.008-1.176-2.247-1.176-3.72,0-1.632.56-2.928,1.68-3.888.912-.769,1.968-1.16,3.168-1.176,1.696,0,3.016.68,3.96,2.039v1.944c-1.023-1.376-2.264-2.063-3.72-2.063-.912,0-1.644.292-2.196.876-.552.584-.828,1.364-.828,2.34,0,1.104.332,1.988.996,2.651.664.665,1.548.996,2.652.996h4.248Z" fill="#5f616e"/><path d="M698.508,480.405c-1.393,0-2.464-.447-3.216-1.344-.641-.769-.96-1.744-.96-2.929v-10.104l2.063-1.104v11.137c0,1.6.784,2.399,2.353,2.399h1.584v1.944h-1.824Z" fill="#5f616e"/><path d="M698.892,480.405v-1.944h2.16c1.552,0,2.328-.8,2.328-2.399v-3.36l2.063-1.104v4.464c0,1.6.784,2.399,2.353,2.399h1.104c1.568,0,2.353-.8,2.353-2.399v-4.176l2.063-1.08v5.256c0,1.6.776,2.399,2.328,2.399h1.128c1.568,0,2.353-.8,2.353-2.399v-4.968l2.063-1.104v6.144c0,1.36-.408,2.425-1.224,3.192-.721.704-1.681,1.064-2.88,1.08h-1.656c-1.408,0-2.456-.472-3.145-1.416-.688.928-1.712,1.4-3.071,1.416h-1.656c-1.376,0-2.424-.472-3.145-1.416-.688.944-1.735,1.416-3.144,1.416h-2.376Z" fill="#5f616e"/><path d="M730.5,480.766v-10.633c0-1.023.308-1.827.924-2.411.615-.584,1.468-.876,2.556-.876h3.889v1.943h-3.696c-1.072,0-1.608.488-1.608,1.464v9.408l-2.063,1.104Z" fill="#5f616e"/><path d="M743.868,480.405c-1.488,0-2.648-.456-3.48-1.368-.64-.72-.96-1.584-.96-2.592,0-1.312.601-2.36,1.8-3.144-1.023-.641-1.535-1.561-1.535-2.761.016-1.056.428-1.936,1.235-2.64s1.812-1.056,3.013-1.056h2.208v1.871h-2.04c-.688,0-1.248.181-1.681.54-.432.36-.647.82-.647,1.381,0,.592.216,1.071.647,1.439.433.368.992.552,1.681.552h1.439v1.561h-1.488c-.752,0-1.367.196-1.848.588-.479.393-.72.9-.72,1.524v.048c0,.656.235,1.184.708,1.584.472.399,1.092.6,1.859.6h2.28l1.176,1.872h-3.647Z" fill="#5f616e"/><path d="M768.156,478.894c0,1.903-.665,3.424-1.992,4.56-1.168,1.008-2.656,1.512-4.464,1.512-2.145,0-3.801-.72-4.969-2.159-.896-1.12-1.344-2.456-1.344-4.009,0-1.359.328-2.52.984-3.479l2.063-.456c-.736,1.136-1.104,2.376-1.104,3.72,0,1.328.424,2.416,1.271,3.265.784.783,1.816,1.176,3.097,1.176,1.455,0,2.575-.433,3.359-1.296.672-.736,1.008-1.681,1.008-2.832v-12.864l2.089-1.104v13.969Z" fill="#5f616e"/><path d="M785.796,478.461h1.584v1.944h-1.824c-1.376,0-2.44-.439-3.192-1.32-.8.881-1.904,1.32-3.312,1.32h-8.256l1.008-1.944h3.504v-9.312l2.064-1.104v10.416h1.512c1.664,0,2.496-.871,2.496-2.615v-9.816l2.088-1.104v10.944c0,.929.18,1.593.54,1.992.359.4.956.6,1.788.6Z" fill="#5f616e"/><path d="M785.939,480.405v-1.944h3.288c3.248,0,5.816-1.071,7.704-3.216-1.328-2.448-2.944-3.672-4.848-3.672-1.296,0-2.632.688-4.008,2.064v-1.921c1.344-1.359,2.768-2.039,4.271-2.039,1.232,0,2.424.443,3.576,1.331,1.152.889,2.168,2.156,3.048,3.805v1.056c-2.352,3.024-5.607,4.536-9.768,4.536h-3.265ZM793.212,467.085c-.784,0-1.176-.399-1.176-1.199,0-.784.392-1.177,1.176-1.177.768,0,1.152.393,1.152,1.177,0,.8-.385,1.199-1.152,1.199Z" fill="#5f616e"/><path d="M806.004,480.405l1.008-1.944h4.272c.64,0,1.092-.159,1.355-.479.265-.32.396-.872.396-1.656,0-2.144-.969-3.768-2.904-4.872l1.008-1.704c2.641,1.504,3.96,3.704,3.96,6.601,0,2.704-1.151,4.056-3.456,4.056h-5.64Z" fill="#5f616e"/><path d="M822.491,479.133c0,1.792-.472,3.232-1.416,4.32-.896,1.04-2.088,1.561-3.575,1.561-.961,0-1.896-.24-2.809-.721v-1.8c.816.448,1.632.672,2.448.672,1.023,0,1.824-.344,2.399-1.032.576-.688.864-1.64.864-2.855v-8.184l2.088-1.104v9.144Z" fill="#5f616e"/><path d="M831.18,471.646c0-.336.124-.628.372-.876s.54-.372.876-.372c.384,0,.708.12.972.359.265.24.396.537.396.889,0,.912-.456,1.368-1.368,1.368-.368,0-.668-.128-.899-.385-.232-.256-.349-.584-.349-.983Z" fill="#5f616e"/><path d="M852.084,478.461h1.584v1.944h-1.824c-1.647,0-2.832-.607-3.552-1.824-.768.736-1.72,1.104-2.856,1.104-1.407,0-2.527-.528-3.359-1.584-.688-.896-1.032-1.992-1.032-3.288,0-1.552.472-2.8,1.416-3.744.8-.816,1.776-1.224,2.928-1.224.88,0,1.641.224,2.28.672v-1.032l2.088-1.104v7.681c0,1.6.776,2.399,2.328,2.399ZM847.668,472.749c-.592-.655-1.32-.983-2.184-.983-.705,0-1.28.284-1.729.852-.448.568-.672,1.308-.672,2.22,0,.929.224,1.673.672,2.232.448.561,1.032.84,1.752.84.896,0,1.632-.368,2.208-1.104-.032-.288-.048-.513-.048-.673v-3.384ZM844.572,466.846c-.784,0-1.177-.4-1.177-1.2,0-.784.393-1.176,1.177-1.176.768,0,1.151.392,1.151,1.176,0,.8-.384,1.2-1.151,1.2ZM847.62,466.846c-.784,0-1.176-.4-1.176-1.2,0-.784.392-1.176,1.176-1.176.768,0,1.152.392,1.152,1.176,0,.8-.385,1.2-1.152,1.2Z" fill="#5f616e"/><path d="M860.58,478.461h1.584v1.944h-1.824c-1.328,0-2.376-.424-3.144-1.272-.769.849-1.816,1.272-3.145,1.272h-1.824v-1.944h1.584c1.568,0,2.353-.8,2.353-2.399v-4.968l2.063-1.104v6.072c0,1.6.784,2.399,2.353,2.399ZM856.788,467.085c-.784,0-1.176-.399-1.176-1.199,0-.784.392-1.177,1.176-1.177.768,0,1.152.393,1.152,1.177,0,.8-.385,1.199-1.152,1.199Z" fill="#5f616e"/><path d="M868.907,478.461h1.584v1.944h-1.823c-1.377,0-2.44-.439-3.192-1.32-.8.881-1.904,1.32-3.312,1.32h-1.44v-1.944h1.271c1.664,0,2.496-.871,2.496-2.615v-9.816l2.089-1.104v10.944c0,.929.18,1.593.539,1.992.36.4.956.6,1.788.6Z" fill="#5f616e"/><path d="M880.908,478.461h6.336v1.944h-6.528c-.864,0-1.721-.168-2.568-.504-.848.336-1.712.504-2.592.504h-6.504v-1.944h6.672c-1.152-.943-2.336-2.328-3.552-4.151v-1.057c.768-1.104,1.684-1.976,2.748-2.615,1.063-.641,2.132-.96,3.204-.96s2.144.323,3.216.972c1.071.647,2,1.532,2.784,2.652v1.008c-1.217,1.823-2.408,3.208-3.576,4.151h.36ZM874.092,473.806c1.472,2.016,2.823,3.344,4.056,3.983,1.232-.655,2.584-1.992,4.057-4.008-1.2-1.456-2.561-2.191-4.08-2.208-1.521,0-2.864.744-4.032,2.232Z" fill="#5f616e"/><path d="M889.739,473.901c0-1.393.416-2.472,1.248-3.24.736-.655,1.696-.983,2.881-.983,1.52,0,2.688.56,3.504,1.68.703.944,1.056,2.176,1.056,3.696,0,1.728-.448,3.08-1.344,4.056-.784.864-1.809,1.296-3.072,1.296-1.44,0-2.536-.399-3.288-1.2-.768.801-1.8,1.2-3.096,1.2h-1.824v-1.944h1.584c1.567,0,2.352-.8,2.352-2.399v-2.16ZM891.804,476.229c0,1.487.728,2.231,2.184,2.231.752,0,1.34-.304,1.765-.912.424-.607.636-1.455.636-2.544,0-1.071-.225-1.907-.672-2.508-.448-.6-1.064-.899-1.848-.899-1.377,0-2.064.8-2.064,2.399v2.232Z" fill="#5f616e"/><path d="M911.531,479.133c0,1.792-.472,3.232-1.416,4.32-.896,1.04-2.088,1.561-3.575,1.561-.961,0-1.896-.24-2.809-.721v-1.8c.816.448,1.632.672,2.448.672,1.023,0,1.824-.344,2.399-1.032.576-.688.864-1.64.864-2.855v-8.184l2.088-1.104v9.144Z" fill="#5f616e"/><path d="M920.027,480.405c-1.392,0-2.464-.447-3.216-1.344-.64-.769-.96-1.744-.96-2.929v-10.104l2.064-1.104v11.137c0,1.6.783,2.399,2.352,2.399h1.584v1.944h-1.824Z" fill="#5f616e"/><path d="M932.268,478.461h6.336v1.944h-6.528c-.863,0-1.72-.168-2.567-.504-.849.336-1.713.504-2.592.504h-6.505v-1.944h6.673c-1.152-.943-2.337-2.328-3.553-4.151v-1.057c.769-1.104,1.685-1.976,2.748-2.615,1.064-.641,2.132-.96,3.204-.96s2.145.323,3.216.972c1.072.647,2,1.532,2.784,2.652v1.008c-1.216,1.823-2.408,3.208-3.576,4.151h.36ZM925.451,473.806c1.473,2.016,2.824,3.344,4.057,3.983,1.231-.655,2.584-1.992,4.056-4.008-1.2-1.456-2.56-2.191-4.08-2.208-1.521,0-2.864.744-4.032,2.232Z" fill="#5f616e"/><path d="M937.164,480.405v-1.944h2.16c1.552,0,2.328-.8,2.328-2.399v-3.36l2.063-1.104v4.464c0,1.6.784,2.399,2.353,2.399h1.104c1.568,0,2.353-.8,2.353-2.399v-4.176l2.063-1.08v5.256c0,1.6.776,2.399,2.328,2.399h1.128c1.568,0,2.353-.8,2.353-2.399v-4.968l2.063-1.104v6.144c0,1.36-.408,2.425-1.224,3.192-.721.704-1.681,1.064-2.88,1.08h-1.656c-1.408,0-2.456-.472-3.145-1.416-.688.928-1.712,1.4-3.071,1.416h-1.656c-1.376,0-2.424-.472-3.145-1.416-.688.944-1.735,1.416-3.144,1.416h-2.376Z" fill="#5f616e"/><path d="M962.508,464.589l.552-1.031h.648c-.16-.288-.24-.584-.24-.889,0-.479.176-.892.528-1.235.352-.344.768-.517,1.248-.517.399,0,.783.129,1.151.385v1.056c-.352-.272-.688-.408-1.008-.408-.592,0-.888.264-.888.792,0,.272.111.544.336.816h2.184l-.552,1.031h-3.96ZM963.78,480.405v-13.416l2.063-1.104v14.52h-2.063Z" fill="#5f616e"/><path d="M974.532,471.646c0-.336.123-.628.372-.876.247-.248.54-.372.876-.372.384,0,.708.12.972.359.264.24.396.537.396.889,0,.912-.455,1.368-1.367,1.368-.368,0-.669-.128-.9-.385-.232-.256-.348-.584-.348-.983Z" fill="#5f616e"/><path d="M985.236,480.766v-10.633c0-1.023.308-1.827.924-2.411.615-.584,1.468-.876,2.556-.876h3.889v1.943h-3.696c-1.072,0-1.608.488-1.608,1.464v9.408l-2.063,1.104Z" fill="#5f616e"/><path d="M996.396,478.27l-2.232-2.232,2.232-2.208,2.184,2.208-2.184,2.232Z" fill="#5f616e"/><path d="M1001.101,480.766v-10.633c0-1.023.308-1.827.924-2.411.615-.584,1.468-.876,2.556-.876h3.889v1.943h-3.696c-1.072,0-1.608.488-1.608,1.464v9.408l-2.063,1.104Z" fill="#5f616e"/><path d="M1012.26,478.27l-2.231-2.232,2.231-2.208,2.185,2.208-2.185,2.232Z" fill="#5f616e"/><path d="M1021.236,480.405l1.008-1.944h4.272c.64,0,1.092-.159,1.355-.479.265-.32.396-.872.396-1.656,0-2.128-.984-3.728-2.952-4.8l1.056-1.776c2.512,1.473,3.824,3.504,3.937,6.097.031.928.243,1.596.636,2.004.392.407,1.02.611,1.884.611h1.416v1.944h-1.584c-1.328,0-2.368-.424-3.12-1.272-.527.849-1.416,1.272-2.664,1.272h-5.64ZM1026.444,467.085c-.784,0-1.176-.399-1.176-1.199,0-.784.392-1.177,1.176-1.177.768,0,1.152.393,1.152,1.177,0,.8-.385,1.199-1.152,1.199Z" fill="#5f616e"/><path d="M1041.156,478.461h1.584v1.944h-1.824c-1.328,0-2.376-.424-3.144-1.272-.769.849-1.816,1.272-3.145,1.272h-1.824v-1.944h1.584c1.568,0,2.353-.8,2.353-2.399v-4.968l2.063-1.104v6.072c0,1.6.784,2.399,2.353,2.399ZM1037.364,467.085c-.784,0-1.176-.399-1.176-1.199,0-.784.392-1.177,1.176-1.177.768,0,1.152.393,1.152,1.177,0,.8-.385,1.199-1.152,1.199Z" fill="#5f616e"/><path d="M1045.236,473.901c0-1.393.416-2.472,1.248-3.24.735-.655,1.695-.983,2.88-.983,1.52,0,2.688.56,3.504,1.68.704.944,1.056,2.176,1.056,3.696,0,1.728-.447,3.08-1.344,4.056-.784.864-1.808,1.296-3.072,1.296-1.439,0-2.536-.399-3.287-1.2-.769.801-1.801,1.2-3.097,1.2h-1.824v-1.944h1.584c1.568,0,2.353-.8,2.353-2.399v-2.16ZM1047.3,476.229c0,1.487.729,2.231,2.185,2.231.752,0,1.34-.304,1.764-.912.424-.607.636-1.455.636-2.544,0-1.071-.224-1.907-.672-2.508-.448-.6-1.063-.899-1.848-.899-1.376,0-2.064.8-2.064,2.399v2.232Z" fill="#5f616e"/><path d="M1073.076,478.461h1.584v1.944h-1.824c-1.647,0-2.832-.607-3.552-1.824-.768.736-1.72,1.104-2.856,1.104-1.407,0-2.527-.528-3.359-1.584-.688-.896-1.032-1.992-1.032-3.288,0-1.552.472-2.8,1.416-3.744.8-.816,1.776-1.224,2.928-1.224.88,0,1.641.224,2.28.672v-1.032l2.088-1.104v7.681c0,1.6.776,2.399,2.328,2.399ZM1068.66,472.749c-.592-.655-1.32-.983-2.184-.983-.705,0-1.28.284-1.729.852-.448.568-.672,1.308-.672,2.22,0,.929.224,1.673.672,2.232.448.561,1.032.84,1.752.84.896,0,1.632-.368,2.208-1.104-.032-.288-.048-.513-.048-.673v-3.384ZM1065.564,466.846c-.784,0-1.177-.4-1.177-1.2,0-.784.393-1.176,1.177-1.176.768,0,1.151.392,1.151,1.176,0,.8-.384,1.2-1.151,1.2ZM1068.612,466.846c-.784,0-1.176-.4-1.176-1.2,0-.784.392-1.176,1.176-1.176.768,0,1.152.392,1.152,1.176,0,.8-.385,1.2-1.152,1.2Z" fill="#5f616e"/><path d="M1081.404,478.461h1.584v1.944h-1.824c-1.376,0-2.44-.439-3.191-1.32-.801.881-1.904,1.32-3.312,1.32h-1.44v-1.944h1.272c1.664,0,2.496-.871,2.496-2.615v-9.816l2.088-1.104v10.944c0,.929.18,1.593.54,1.992.36.4.956.6,1.788.6Z" fill="#5f616e"/><path d="M1081.548,480.405v-1.944h2.16c1.552,0,2.328-.8,2.328-2.399v-3.36l2.064-1.104v4.464c0,1.6.783,2.399,2.352,2.399h1.104c1.567,0,2.352-.8,2.352-2.399v-4.176l2.064-1.08v5.256c0,1.6.775,2.399,2.328,2.399h1.128c1.567,0,2.352-.8,2.352-2.399v-4.968l2.064-1.104v6.144c0,1.36-.408,2.425-1.225,3.192-.72.704-1.68,1.064-2.88,1.08h-1.656c-1.408,0-2.456-.472-3.144-1.416-.688.928-1.712,1.4-3.072,1.416h-1.656c-1.376,0-2.424-.472-3.144-1.416-.688.944-1.736,1.416-3.145,1.416h-2.376Z" fill="#5f616e"/><path d="M1127.604,480.405c-.16,1.408-.928,2.536-2.304,3.384-1.28.784-2.912,1.176-4.896,1.176-2.528,0-4.432-.735-5.712-2.208-.944-1.088-1.416-2.432-1.416-4.031,0-1.345.336-2.496,1.008-3.456l1.992-.433c-.72,1.137-1.08,2.36-1.08,3.672,0,1.425.464,2.545,1.393,3.36.911.816,2.184,1.225,3.815,1.225,1.376,0,2.512-.24,3.408-.721.896-.479,1.439-1.136,1.632-1.968h-2.399l1.008-1.944h3.624v1.944h-.072Z" fill="#5f616e"/><path d="M1134.588,478.461h1.584v1.944h-1.823c-1.377,0-2.44-.439-3.192-1.32-.8.881-1.904,1.32-3.312,1.32h-1.44v-1.944h1.271c1.664,0,2.496-.871,2.496-2.615v-9.816l2.089-1.104v10.944c0,.929.18,1.593.539,1.992.36.4.956.6,1.788.6Z" fill="#5f616e"/><path d="M1147.668,478.461v1.944h-12.936v-1.944h4.152c-.784-1.008-1.177-2.247-1.177-3.72,0-1.632.561-2.928,1.681-3.888.912-.769,1.968-1.16,3.168-1.176,1.695,0,3.016.68,3.96,2.039v1.944c-1.024-1.376-2.265-2.063-3.72-2.063-.912,0-1.645.292-2.196.876s-.828,1.364-.828,2.34c0,1.104.332,1.988.996,2.651.664.665,1.548.996,2.651.996h4.248Z" fill="#5f616e"/><path d="M1160.628,480.405c-1.296,0-2.312-.432-3.048-1.296-.64-.752-.96-1.736-.96-2.952v-2.904l2.064-1.104v3.815c0,1.665.775,2.496,2.327,2.496h7.969c1.552,0,2.328-.831,2.328-2.496v-4.871l2.063-1.104v6.168c0,1.392-.424,2.472-1.271,3.24-.753.672-1.721,1.008-2.904,1.008h-8.568ZM1163.052,469.245c-.783,0-1.176-.399-1.176-1.2,0-.783.393-1.176,1.176-1.176.769,0,1.152.393,1.152,1.176,0,.801-.384,1.2-1.152,1.2ZM1166.101,469.245c-.784,0-1.177-.399-1.177-1.2,0-.783.393-1.176,1.177-1.176.768,0,1.151.393,1.151,1.176,0,.801-.384,1.2-1.151,1.2Z" fill="#5f616e"/><path d="M1177.213,480.405v-14.376l2.063-1.104v15.48h-2.063Z" fill="#5f616e"/><path d="M1194.805,478.461v1.944h-2.977c-.064,1.376-.656,2.512-1.775,3.408-.944.735-2.017,1.104-3.217,1.104-.992,0-1.928-.231-2.808-.695v-1.824c.848.447,1.688.672,2.52.672.849,0,1.588-.264,2.221-.792.632-.528.956-1.16.972-1.896-.832-.031-1.448-.063-1.848-.096-1.729-.096-3.032-.68-3.912-1.752-.736-.896-1.104-2.056-1.104-3.479,0-1.744.464-3.104,1.393-4.08.831-.864,1.928-1.296,3.288-1.296,1.424,0,2.52.424,3.288,1.271.655.752.983,1.736.983,2.952v4.56h2.977ZM1189.74,474.045c0-1.632-.729-2.447-2.184-2.447-.832,0-1.48.3-1.944.899-.464.601-.696,1.437-.696,2.508,0,2.097,1.024,3.209,3.072,3.336.384.049.968.089,1.752.12v-4.416Z" fill="#5f616e"/><path d="M1201.716,478.461h1.584v1.944h-1.823c-1.328,0-2.376-.424-3.145-1.272-.768.849-1.816,1.272-3.144,1.272h-1.824v-1.944h1.584c1.567,0,2.352-.8,2.352-2.399v-4.968l2.064-1.104v6.072c0,1.6.784,2.399,2.352,2.399ZM1197.924,467.085c-.784,0-1.176-.399-1.176-1.199,0-.784.392-1.177,1.176-1.177.769,0,1.152.393,1.152,1.177,0,.8-.384,1.199-1.152,1.199Z" fill="#5f616e"/><path d="M1201.86,480.405v-1.944h2.16c1.552,0,2.328-.8,2.328-2.399v-3.36l2.063-1.104v4.464c0,1.6.784,2.399,2.353,2.399h1.104c1.568,0,2.353-.8,2.353-2.399v-4.176l2.063-1.08v5.256c0,1.6.776,2.399,2.328,2.399h1.128c1.568,0,2.353-.8,2.353-2.399v-4.968l2.063-1.104v6.144c0,1.36-.408,2.425-1.224,3.192-.721.704-1.681,1.064-2.88,1.08h-1.656c-1.408,0-2.456-.472-3.145-1.416-.688.928-1.712,1.4-3.071,1.416h-1.656c-1.376,0-2.424-.472-3.145-1.416-.688.944-1.735,1.416-3.144,1.416h-2.376Z" fill="#5f616e"/><path d="M1237.788,480.766v-10.513c0-.976-.527-1.464-1.584-1.464h-3.695v-1.943h3.888c1.088,0,1.939.292,2.556.876s.924,1.388.924,2.411v9.528l-2.088,1.104Z" fill="#5f616e"/><path d="M1246.692,475.797h-4.248v-1.68h4.248v-4.608h1.92v4.608h4.248v1.68h-4.248v4.608h-1.92v-4.608Z" fill="#5f616e"/><path d="M407.652,164.291h7.056v10.08h-8.064c-1.104,0-2.256-.119-3.456-.359-1.105,6.287-4.201,10.607-9.288,12.959-2.016.961-4.201,1.441-6.552,1.441-3.168,0-6.264-.842-9.288-2.521v-9.07c2.497,1.391,4.92,2.088,7.272,2.088,1.199,0,2.304-.193,3.312-.576,2.927-1.008,4.392-3.697,4.392-8.064v-22.752l10.44-5.545v.072l.072-.072v19.369c.24,1.969,1.607,2.951,4.104,2.951Z" fill="#14161a"/><path d="M414.563,191.291c-1.632,0-2.939-.504-3.924-1.512-.983-1.008-1.476-2.328-1.476-3.959,0-1.584.493-2.857,1.476-3.816.984-.961,2.292-1.439,3.924-1.439,1.584,0,2.855.479,3.816,1.439.959.959,1.44,2.232,1.44,3.816,0,1.68-.48,3.012-1.44,3.996-.961.982-2.232,1.475-3.816,1.475ZM410.82,174.371v-10.08h7.056c1.536,0,2.616-.311,3.24-.936.623-.623.936-1.703.936-3.24v-12.6l10.44-5.545v18.576c0,4.465-1.393,7.969-4.176,10.514-2.4,2.207-5.544,3.311-9.432,3.311h-8.064ZM426.516,191.291c-1.584,0-2.869-.504-3.852-1.512-.984-1.008-1.476-2.328-1.476-3.959,0-1.584.492-2.857,1.476-3.816.983-.961,2.268-1.439,3.852-1.439s2.868.479,3.852,1.439c.983.959,1.476,2.232,1.476,3.816,0,1.68-.48,3.012-1.44,3.996-.961.982-2.257,1.475-3.888,1.475Z" fill="#14161a"/><path d="M480.731,174.371h-8.568c-.336,4.32-2.257,7.777-5.76,10.369-2.88,2.16-6.264,3.24-10.152,3.24-3.121,0-6.264-.889-9.432-2.664v-9.145c2.88,1.631,5.616,2.447,8.208,2.447,1.631,0,3.12-.457,4.464-1.367,1.343-.912,2.112-1.969,2.304-3.168-1.057-.047-2.329-.168-3.816-.361-4.8-.623-8.568-2.639-11.304-6.047-2.257-2.881-3.384-6.264-3.384-10.152,0-5.375,1.487-9.6,4.464-12.672,2.639-2.783,6.144-4.176,10.512-4.176,4.608,0,8.184,1.393,10.728,4.176,2.16,2.4,3.24,5.545,3.24,9.432v10.008h8.496v10.08ZM461.796,154.355c0-2.592-1.177-3.889-3.528-3.889-3.121,0-4.68,2.232-4.68,6.697,0,4.656,2.736,6.984,8.208,6.984v-9.793Z" fill="#14161a"/><path d="M543.156,164.291v10.08h-6.84c-3.168,0-5.929-.791-8.28-2.375-2.16,1.584-4.873,2.375-8.136,2.375h-43.056v-10.08h11.232v-30.815l10.44-5.544v19.512c4.848-4.512,10.296-6.768,16.344-6.768,5.76,0,10.392,2.016,13.896,6.047,2.927,3.41,4.392,7.561,4.392,12.457v1.367c0,2.498,1.392,3.744,4.176,3.744h5.832ZM519.54,164.291c1.343,0,2.208-.238,2.592-.719.383-.48.576-1.607.576-3.385v-1.008c0-2.592-.72-4.691-2.16-6.301-1.44-1.607-3.312-2.412-5.616-2.412-3.265,0-6.361,1.236-9.288,3.709-2.928,2.473-5.304,5.844-7.128,10.115h21.024Z" fill="#14161a"/><path d="M565.116,164.291h6.984v10.08h-7.992c-3.36,0-6.145-.814-8.352-2.447-2.304,1.633-5.112,2.447-8.424,2.447h-8.064v-10.08h7.056c1.536,0,2.616-.311,3.24-.936.623-.623.936-1.703.936-3.24v-12.6l10.44-5.545v18.145c0,1.537.299,2.617.9,3.24.6.625,1.692.936,3.276.936ZM545.244,136.715c-1.633,0-2.941-.504-3.924-1.512s-1.476-2.327-1.476-3.959c0-1.584.493-2.868,1.476-3.853.983-.983,2.292-1.476,3.924-1.476,1.584,0,2.855.48,3.816,1.439.959.961,1.44,2.257,1.44,3.889,0,1.68-.48,3.012-1.44,3.996-.961.984-2.232,1.475-3.816,1.475ZM557.268,136.715c-1.632,0-2.941-.504-3.924-1.512-.984-1.008-1.476-2.327-1.476-3.959,0-1.584.492-2.868,1.476-3.853s2.292-1.476,3.924-1.476c1.584,0,2.855.48,3.816,1.439.959.961,1.44,2.257,1.44,3.889,0,1.68-.48,3.012-1.44,3.996-.961.984-2.232,1.475-3.816,1.475Z" fill="#14161a"/><path d="M568.284,174.371v-10.08h4.68c2.016,0,3.42-.42,4.212-1.26.792-.84,1.188-2.314,1.188-4.428v-25.128l10.44-5.544v30.744c0,4.896-1.489,8.783-4.464,11.664-2.736,2.689-6.36,4.031-10.872,4.031h-5.184Z" fill="#14161a"/><path d="M601.764,174.371v-40.896l10.44-5.544v46.439h-10.44Z" fill="#14161a"/><path d="M687.372,174.371c-.672,4.512-3.312,7.992-7.92,10.441-3.985,2.158-8.953,3.238-14.904,3.238-8.208,0-14.353-2.328-18.432-6.982-3.072-3.457-4.608-7.705-4.608-12.744,0-3.648.839-6.889,2.52-9.721l9.936-2.088c-1.776,3.168-2.664,6.529-2.664,10.08,0,7.967,4.416,11.951,13.248,11.951,6.239,0,10.199-1.393,11.88-4.176h-6.768l5.184-10.08h12.744v10.08h-.216Z" fill="#14161a"/><path d="M684.132,174.371v-10.08h4.68c2.016,0,3.42-.42,4.212-1.26.792-.84,1.188-2.314,1.188-4.428v-25.128l10.44-5.544v30.744c0,4.896-1.489,8.783-4.464,11.664-2.736,2.689-6.36,4.031-10.872,4.031h-5.184Z" fill="#14161a"/><path d="M714.732,194.891l2.52-4.68h2.232c-.529-1.008-.792-2.041-.792-3.096,0-1.584.587-2.951,1.764-4.104,1.175-1.152,2.58-1.729,4.212-1.729s3.096.576,4.392,1.729v4.607c-1.249-1.104-2.448-1.656-3.6-1.656-1.584,0-2.376.648-2.376,1.945,0,.719.312,1.486.936,2.303h7.344l-2.52,4.68h-14.112ZM717.612,174.371v-40.896l10.44-5.544v46.439h-10.44Z" fill="#14161a"/><path d="M803.364,164.291h8.208v10.08h-8.064c-1.728,0-3.432-.264-5.112-.791-1.249,4.703-3.864,8.375-7.848,11.016-3.553,2.352-7.704,3.527-12.456,3.527-7.056,0-12.504-2.279-16.344-6.84-2.929-3.553-4.392-7.727-4.392-12.527,0-3.648.815-6.887,2.448-9.721l10.296-2.303c-1.825,3.072-2.736,6.576-2.736,10.512,0,3.359.947,6,2.844,7.92,1.896,1.918,4.523,2.879,7.884,2.879,3.264,0,5.843-.924,7.74-2.771,1.896-1.848,2.844-4.355,2.844-7.523v-34.272l10.512-5.544v32.184c0,1.537.312,2.617.936,3.24.623.625,1.703.936,3.24.936Z" fill="#14161a"/><path d="M833.532,164.291h6.984v10.08h-7.992c-3.36,0-6.145-.814-8.352-2.447-2.304,1.633-5.112,2.447-8.424,2.447h-8.064v-10.08h7.056c1.536,0,2.616-.311,3.24-.936.623-.623.936-1.703.936-3.24v-12.6l10.44-5.545v18.145c0,1.537.299,2.617.9,3.24.6.625,1.692.936,3.276.936ZM814.02,180.564c1.584,0,2.868.49,3.852,1.475.983.984,1.476,2.268,1.476,3.852,0,1.633-.493,2.941-1.476,3.926-.984.982-2.268,1.475-3.852,1.475-1.632,0-2.941-.504-3.924-1.512-.983-1.008-1.476-2.305-1.476-3.889s.493-2.867,1.476-3.852c.983-.984,2.292-1.475,3.924-1.475ZM826.044,180.564c1.584,0,2.855.479,3.816,1.439.959.959,1.44,2.256,1.44,3.887s-.48,2.941-1.44,3.926c-.96.982-2.232,1.475-3.816,1.475-1.632,0-2.941-.504-3.924-1.512-.984-1.008-1.476-2.305-1.476-3.889s.492-2.867,1.476-3.852c.983-.984,2.292-1.475,3.924-1.475Z" fill="#14161a"/><path d="M891.78,174.371h-20.448c-2.448,0-4.824-.383-7.128-1.152-2.304.77-4.68,1.152-7.128,1.152h-20.376v-10.08h14.832c-2.064-2.303-4.081-5.111-6.048-8.424v-3.816c2.208-3.406,5.028-6.154,8.46-8.244,3.432-2.088,6.852-3.131,10.26-3.131,3.312,0,6.707,1.068,10.188,3.203,3.479,2.137,6.347,4.908,8.604,8.316v3.672c-2.016,3.312-4.032,6.121-6.048,8.424h14.76l.072,10.08ZM872.268,154.068c-2.689-2.449-5.376-3.672-8.064-3.672-2.977,0-5.665,1.199-8.064,3.6,2.736,4.176,5.423,6.959,8.064,8.352,2.688-1.439,5.375-4.199,8.064-8.279ZM864.131,135.492c-1.632,0-2.94-.492-3.924-1.477-.984-.983-1.476-2.291-1.476-3.924s.492-2.928,1.476-3.889c.983-.959,2.292-1.439,3.924-1.439,1.584,0,2.855.48,3.816,1.439.959.961,1.44,2.258,1.44,3.889s-.48,2.94-1.44,3.924c-.961.984-2.232,1.477-3.816,1.477Z" fill="#14161a"/><path d="M887.964,174.371v-10.08h8.064c1.536,0,2.603-.299,3.204-.9.6-.6.9-1.691.9-3.275v-9.215l10.44-5.545v14.76c0,1.537.299,2.617.9,3.24.6.625,1.692.936,3.276.936h5.544c1.536,0,2.616-.311,3.24-.936.623-.623.936-1.703.936-3.24v-10.943l10.44-5.473v16.416c0,1.584.299,2.676.9,3.275.6.602,1.667.9,3.204.9h5.688c1.536,0,2.603-.299,3.204-.9.6-.6.9-1.691.9-3.275v-12.6l10.512-5.545v16.633c0,2.113.383,3.588,1.152,4.428.767.84,2.16,1.26,4.176,1.26h6.769v10.08h-7.272c-3.792,0-6.96-1.008-9.504-3.023-2.16,1.871-4.968,2.881-8.424,3.023h-8.136c-3.312,0-6.12-.887-8.424-2.664-2.113,1.633-4.705,2.521-7.776,2.664h-8.136c-3.312,0-6.12-.887-8.424-2.664-2.257,1.777-5.04,2.664-8.352,2.664h-9ZM923.459,135.996c-1.584,0-2.869-.504-3.852-1.513-.984-1.008-1.476-2.327-1.476-3.96,0-1.584.492-2.867,1.476-3.852.983-.983,2.268-1.477,3.852-1.477s2.868.493,3.852,1.477c.983.984,1.476,2.268,1.476,3.852,0,1.681-.493,3.013-1.476,3.996s-2.268,1.477-3.852,1.477ZM929.436,124.332c-1.488,0-2.676-.443-3.564-1.332-.889-.889-1.332-2.076-1.332-3.564,0-3.215,1.631-4.824,4.896-4.824,3.215,0,4.824,1.609,4.824,4.824,0,1.488-.444,2.676-1.332,3.564-.889.889-2.052,1.332-3.492,1.332ZM935.484,135.996c-1.584,0-2.869-.504-3.852-1.513-.984-1.008-1.476-2.327-1.476-3.96,0-1.584.492-2.867,1.476-3.852.983-.983,2.268-1.477,3.852-1.477s2.868.493,3.852,1.477c.983.984,1.476,2.268,1.476,3.852,0,1.681-.493,3.013-1.476,3.996-.984.984-2.268,1.477-3.852,1.477Z" fill="#14161a"/><path d="M993.443,164.291h6.984v10.08h-7.992c-3.36,0-6.145-.814-8.352-2.447-2.305,1.633-5.112,2.447-8.424,2.447h-8.064v-10.08h7.056c1.536,0,2.616-.311,3.24-.936.623-.623.937-1.703.937-3.24v-12.6l10.439-5.545v18.145c0,1.537.299,2.617.9,3.24.6.625,1.691.936,3.275.936ZM973.572,136.715c-1.633,0-2.941-.504-3.925-1.512s-1.476-2.327-1.476-3.959c0-1.584.492-2.868,1.476-3.853.983-.983,2.292-1.476,3.925-1.476,1.584,0,2.854.48,3.815,1.439.96.961,1.44,2.257,1.44,3.889,0,1.68-.48,3.012-1.44,3.996-.961.984-2.231,1.475-3.815,1.475ZM985.596,136.715c-1.633,0-2.941-.504-3.924-1.512-.984-1.008-1.477-2.327-1.477-3.959,0-1.584.492-2.868,1.477-3.853.982-.983,2.291-1.476,3.924-1.476,1.584,0,2.855.48,3.816,1.439.959.961,1.439,2.257,1.439,3.889,0,1.68-.48,3.012-1.439,3.996-.961.984-2.232,1.475-3.816,1.475Z" fill="#14161a"/><path d="M996.611,174.371v-10.08h4.68c2.017,0,3.42-.42,4.213-1.26.792-.84,1.188-2.314,1.188-4.428v-25.128l10.44-5.544v30.744c0,4.896-1.489,8.783-4.464,11.664-2.736,2.689-6.361,4.031-10.872,4.031h-5.185Z" fill="#14161a"/><path d="M1030.092,174.371v-40.896l10.439-5.544v46.439h-10.439Z" fill="#14161a"/><path d="M1115.699,174.371c-.672,4.512-3.312,7.992-7.92,10.441-3.984,2.158-8.952,3.238-14.903,3.238-8.208,0-14.353-2.328-18.433-6.982-3.072-3.457-4.607-7.705-4.607-12.744,0-3.648.84-6.889,2.52-9.721l9.937-2.088c-1.776,3.168-2.664,6.529-2.664,10.08,0,7.967,4.415,11.951,13.248,11.951,6.239,0,10.199-1.393,11.88-4.176h-6.768l5.184-10.08h12.744v10.08h-.217Z" fill="#14161a"/><path d="M1112.46,174.371v-10.08h4.68c2.017,0,3.42-.42,4.212-1.26.793-.84,1.188-2.314,1.188-4.428v-25.128l10.44-5.544v30.744c0,4.896-1.489,8.783-4.465,11.664-2.736,2.689-6.36,4.031-10.871,4.031h-5.185Z" fill="#14161a"/><path d="M1143.061,194.891l2.52-4.68h2.232c-.529-1.008-.793-2.041-.793-3.096,0-1.584.588-2.951,1.765-4.104,1.175-1.152,2.579-1.729,4.212-1.729s3.096.576,4.393,1.729v4.607c-1.25-1.104-2.449-1.656-3.601-1.656-1.584,0-2.376.648-2.376,1.945,0,.719.312,1.486.936,2.303h7.344l-2.52,4.68h-14.111ZM1145.939,174.371v-40.896l10.44-5.544v46.439h-10.44Z" fill="#14161a"/><path d="M1183.164,179.34v-10.08c1.631-1.055,3.6-1.92,5.903-2.592-1.296-2.496-1.944-5.279-1.944-8.352,0-5.568,1.703-9.793,5.112-12.672,2.495-2.113,5.52-3.217,9.072-3.312h.433c4.367,0,8.063,1.656,11.088,4.967v9.576c-3.744-3.311-7.105-4.967-10.08-4.967h-.504c-3.168.336-4.752,2.375-4.752,6.119,0,2.736.887,5.088,2.664,7.057l3.023-.217c5.23-.432,9.744-1.943,13.535-4.535v9.504c-4.08,3.023-9.647,4.535-16.703,4.535-6.577,0-12.193,1.656-16.848,4.969Z" fill="#14161a"/><path d="M1240.404,174.371c-4.417,0-7.873-1.414-10.368-4.248-2.16-2.494-3.24-5.688-3.24-9.576v-27.071l10.44-5.544v32.184c0,1.537.311,2.617.936,3.24.623.625,1.703.936,3.24.936h7.056v10.08h-8.063Z" fill="#14161a"/><path d="M1244.58,174.371v-10.08h8.064c1.535,0,2.603-.299,3.203-.9.6-.6.9-1.691.9-3.275v-9.215l10.439-5.545v14.76c0,1.537.3,2.617.9,3.24.6.625,1.691.936,3.275.936h5.545c1.535,0,2.615-.311,3.24-.936s.936-1.703.936-3.24v-10.943l10.439-5.473v16.416c0,1.584.3,2.676.9,3.275.6.602,1.668.9,3.204.9h5.688c1.535,0,2.603-.299,3.203-.9.6-.6.9-1.691.9-3.275v-12.6l10.512-5.545v16.633c0,2.113.384,3.588,1.152,4.428.768.84,2.16,1.26,4.176,1.26h6.768v10.08h-7.271c-3.793,0-6.961-1.008-9.504-3.023-2.16,1.871-4.969,2.881-8.424,3.023h-8.137c-3.312,0-6.119-.887-8.424-2.664-2.112,1.633-4.705,2.521-7.775,2.664h-8.137c-3.312,0-6.119-.887-8.424-2.664-2.256,1.777-5.039,2.664-8.352,2.664h-9ZM1280.076,135.996c-1.584,0-2.869-.504-3.852-1.513-.984-1.008-1.477-2.327-1.477-3.96,0-1.584.492-2.867,1.477-3.852.982-.983,2.268-1.477,3.852-1.477s2.867.493,3.852,1.477c.983.984,1.477,2.268,1.477,3.852,0,1.681-.493,3.013-1.477,3.996s-2.268,1.477-3.852,1.477ZM1286.052,124.332c-1.488,0-2.677-.443-3.563-1.332-.889-.889-1.332-2.076-1.332-3.564,0-3.215,1.631-4.824,4.896-4.824,3.216,0,4.824,1.609,4.824,4.824,0,1.488-.444,2.676-1.332,3.564-.889.889-2.052,1.332-3.492,1.332ZM1292.1,135.996c-1.584,0-2.869-.504-3.852-1.513-.984-1.008-1.477-2.327-1.477-3.96,0-1.584.492-2.867,1.477-3.852.982-.983,2.268-1.477,3.852-1.477s2.868.493,3.853,1.477c.983.984,1.476,2.268,1.476,3.852,0,1.681-.492,3.013-1.476,3.996s-2.269,1.477-3.853,1.477Z" fill="#14161a"/><path d="M1324.212,174.371v-10.08h7.056c1.535,0,2.615-.311,3.24-.936s.936-1.703.936-3.24v-12.6l10.44-5.545v18.576c0,4.465-1.393,7.969-4.177,10.514-2.447,2.207-5.592,3.311-9.432,3.311h-8.063ZM1341.06,135.492c-1.632,0-2.94-.492-3.924-1.477-.984-.983-1.476-2.291-1.476-3.924s.491-2.928,1.476-3.889c.983-.959,2.292-1.439,3.924-1.439,1.584,0,2.855.48,3.816,1.439.96.961,1.44,2.258,1.44,3.889s-.48,2.94-1.44,3.924c-.961.984-2.232,1.477-3.816,1.477Z" fill="#14161a"/><path d="M1386.996,133.476l10.512-5.544v30.744c0,4.848-1.488,8.736-4.464,11.664-2.784,2.689-6.408,4.031-10.872,4.031h-28.368l5.256-10.08h9.072v-21.455l10.44-5.545v27h3.096c1.967,0,3.348-.42,4.14-1.26s1.188-2.314,1.188-4.428v-25.128ZM1379.22,183.875c-1.249-1.104-2.448-1.656-3.601-1.656-1.584,0-2.375.648-2.375,1.945,0,.719.311,1.486.936,2.303h7.344l-2.52,4.682h-14.112l2.521-4.682h2.231c-.528-1.008-.792-2.039-.792-3.096,0-1.584.588-2.951,1.764-4.104s2.58-1.729,4.213-1.729,3.096.576,4.392,1.729v4.607Z" fill="#14161a"/><path d="M1410.468,174.371v-40.896l10.44-5.544v46.439h-10.44Z" fill="#14161a"/><path d="M1493.916,164.291h7.056v10.08h-8.063c-1.152,0-2.377-.119-3.672-.359-1.008,4.512-3.409,8.039-7.201,10.584-3.408,2.305-7.487,3.455-12.239,3.455-6.624,0-11.735-2.328-15.336-6.982-2.833-3.602-4.248-7.85-4.248-12.744,0-3.648.839-6.889,2.521-9.721l9.936-2.088c-1.776,3.168-2.664,6.529-2.664,10.08,0,3.408.9,6.156,2.7,8.244s4.163,3.131,7.092,3.131c6.336,0,9.504-2.855,9.504-8.566v-21.889l10.44-5.545v18.145c0,1.537.311,2.617.936,3.24.623.625,1.703.936,3.24.936ZM1469.22,143.412c-1.632,0-2.94-.492-3.924-1.477-.984-.982-1.476-2.291-1.476-3.924s.491-2.928,1.476-3.889c.983-.959,2.292-1.439,3.924-1.439,1.584,0,2.855.48,3.815,1.439.961.961,1.441,2.258,1.441,3.889s-.48,2.941-1.441,3.924c-.96.984-2.231,1.477-3.815,1.477Z" fill="#14161a"/><path d="M1508.316,154.283c0-4.416,1.367-7.871,4.104-10.367,2.399-2.16,5.52-3.24,9.359-3.24,4.848,0,8.615,1.775,11.305,5.328,2.304,3.023,3.456,6.865,3.456,11.52,0,5.328-1.465,9.553-4.392,12.672-2.545,2.785-5.832,4.176-9.865,4.176-3.791,0-6.864-.719-9.215-2.16-2.16,1.441-4.801,2.16-7.92,2.16h-8.064v-10.08h7.056c1.536,0,2.616-.311,3.24-.936.623-.623.937-1.703.937-3.24v-5.832ZM1518.756,161.484c0,1.871,1.008,2.807,3.023,2.807,2.977,0,4.465-2.375,4.465-7.127,0-4.465-1.488-6.697-4.465-6.697-2.016,0-3.023,1.178-3.023,3.529v7.488Z" fill="#14161a"/><rect x="180" y="239" width="1560" height="160" fill="none"/><path d="M273.9,256.85v-.06c.04-1,.57-1.5,1.59-1.5,1.06,0,1.59.521,1.59,1.56,0,1.061-.53,1.591-1.59,1.591s-1.59-.53-1.59-1.591Z" fill="#5f616e"/><path d="M300.93,255.86h1.98v2.43h-2.28c-1.08,0-2.05-.24-2.91-.72-.281,2.06-1.21,3.68-2.79,4.859-1.4,1.04-3.13,1.561-5.19,1.561-2.681,0-4.75-.9-6.21-2.7-1.12-1.4-1.68-3.07-1.68-5.01,0-1.7.41-3.15,1.23-4.351l2.58-.569c-.92,1.42-1.38,2.97-1.38,4.649,0,1.66.53,3.02,1.59,4.08.979.979,2.27,1.47,3.87,1.47,1.819,0,3.22-.539,4.2-1.619.84-.921,1.26-2.101,1.26-3.54v-16.08l2.61-1.38v13.92c0,2,1.04,3,3.12,3Z" fill="#5f616e"/><path d="M331.83,255.86h1.98v2.43h-2.28c-1.68,0-2.99-.52-3.93-1.56-.94,1.04-2.25,1.56-3.93,1.56h-12.42c-1.661,0-2.97-.529-3.93-1.59-.96,1.061-2.27,1.59-3.93,1.59h-2.28v-2.43h1.98c1.96,0,2.94-1,2.94-3v-4.2l2.58-1.38v5.58c0,1.68.649,2.65,1.95,2.91.8-3.021,2.12-5.54,3.96-7.561,2.06-2.22,4.46-3.33,7.2-3.33,2.28,0,4.1.79,5.46,2.37,1.14,1.34,1.71,2.99,1.71,4.95v.72c0,1.96.98,2.94,2.94,2.94ZM323.52,255.86c1.86,0,2.79-1.04,2.79-3.12v-.54c0-1.561-.48-2.8-1.44-3.72-.84-.8-1.88-1.2-3.12-1.2-2.121,0-4.031.979-5.73,2.939-1.3,1.5-2.3,3.381-3,5.641h10.5ZM322.23,241.64c-.98,0-1.47-.499-1.47-1.5,0-.979.49-1.47,1.47-1.47.96,0,1.44.49,1.44,1.47,0,1.001-.48,1.5-1.44,1.5Z" fill="#5f616e"/><path d="M332.01,258.29v-2.43h5.4c-.92-1.021-1.38-2.44-1.38-4.261,0-2.18.57-3.88,1.71-5.1,1-1.08,2.33-1.62,3.99-1.62,1.7,0,3.02.53,3.96,1.59.8.94,1.2,2.171,1.2,3.69v2.85c-.02,1.66-.51,2.971-1.47,3.931-.94.899-2.19,1.35-3.75,1.35h-9.66ZM344.31,250.28c0-2-.86-3-2.58-3-.98,0-1.75.375-2.31,1.125s-.84,1.795-.84,3.135c0,1.32.27,2.37.81,3.15.54.779,1.26,1.17,2.16,1.17,1.84,0,2.76-.96,2.76-2.88v-2.7ZM341.79,241.82c-.98,0-1.47-.5-1.47-1.5,0-.979.49-1.471,1.47-1.471.96,0,1.44.491,1.44,1.471,0,1-.48,1.5-1.44,1.5Z" fill="#5f616e"/><path d="M350.4,238.521l.69-1.29h.81c-.2-.36-.3-.73-.3-1.11,0-.6.22-1.115.66-1.545.439-.43.96-.646,1.56-.646.5,0,.98.161,1.44.48v1.32c-.44-.34-.86-.511-1.26-.511-.74,0-1.11.33-1.11.99,0,.341.14.681.42,1.021h2.73l-.69,1.29h-4.95ZM351.99,258.29v-16.77l2.58-1.381v18.15h-2.58Z" fill="#5f616e"/><path d="M385.44,255.86h1.98v2.43h-2.28c-1.08,0-2.05-.24-2.91-.72-.281,2.06-1.21,3.68-2.79,4.859-1.4,1.04-3.13,1.561-5.19,1.561-2.681,0-4.75-.9-6.21-2.7-1.12-1.4-1.68-3.07-1.68-5.01,0-1.7.41-3.15,1.23-4.351l2.58-.569c-.92,1.42-1.38,2.97-1.38,4.649,0,1.66.53,3.02,1.59,4.08.979.979,2.27,1.47,3.87,1.47,1.819,0,3.22-.539,4.2-1.619.84-.921,1.26-2.101,1.26-3.54v-16.08l2.61-1.38v13.92c0,2,1.04,3,3.12,3Z" fill="#5f616e"/><path d="M402.029,255.86h1.71v2.43h-1.98c-1.68,0-2.99-.52-3.93-1.56-.94,1.04-2.25,1.56-3.93,1.56h-8.28v-2.43h8.04c1.92,0,2.88-1.01,2.88-3.03v-.271c0-1.5-.581-2.64-1.74-3.42-.92-.64-2.05-.96-3.39-.96-1.061,0-2.12.2-3.18.601v-2.55l6.57-7.29h2.64l-5.91,6.659h.18c2.28,0,4.12.69,5.52,2.07,1.26,1.28,1.89,2.9,1.89,4.86v.33c0,2,.97,3,2.91,3Z" fill="#5f616e"/><path d="M401.94,258.29v-2.43h2.7c1.94,0,2.91-1,2.91-3v-4.2l2.58-1.38v5.58c0,2,.979,3,2.94,3h1.38c1.96,0,2.94-1,2.94-3v-5.221l2.58-1.35v6.57c0,2,.97,3,2.91,3h1.41c1.959,0,2.94-1,2.94-3v-6.21l2.58-1.38v7.319c0,2.181,1.04,3.271,3.12,3.271h2.49v2.43h-2.7c-1.8,0-3.17-.609-4.11-1.83-.84,1.2-2.15,1.811-3.93,1.83h-2.07c-1.76,0-3.07-.59-3.93-1.77-.86,1.16-2.14,1.75-3.84,1.77h-2.07c-1.721,0-3.03-.59-3.93-1.77-.86,1.18-2.17,1.77-3.93,1.77h-2.97ZM416.55,242.45c-.98,0-1.47-.5-1.47-1.5,0-.979.49-1.47,1.47-1.47.96,0,1.44.49,1.44,1.47,0,1-.48,1.5-1.44,1.5ZM418.44,238.88c-.88,0-1.32-.45-1.32-1.35,0-.88.44-1.32,1.32-1.32s1.32.44,1.32,1.32c0,.899-.44,1.35-1.32,1.35ZM420.36,242.45c-.98,0-1.47-.5-1.47-1.5,0-.979.49-1.47,1.47-1.47.96,0,1.44.49,1.44,1.47,0,1-.48,1.5-1.44,1.5Z" fill="#5f616e"/><path d="M433.62,258.29v-2.43h1.98c1.96,0,2.94-1,2.94-3v-6.21l2.58-1.38v7.68c0,1.7-.51,3.04-1.53,4.02-.94.881-2.17,1.32-3.69,1.32h-2.28ZM438.45,264.26c-.98,0-1.47-.5-1.47-1.5,0-.979.49-1.47,1.47-1.47.96,0,1.44.49,1.44,1.47,0,1-.48,1.5-1.44,1.5Z" fill="#5f616e"/><path d="M477.359,255.86h1.98v2.43h-2.28c-1.68,0-2.98-.52-3.9-1.56-.98,1.04-2.291,1.56-3.93,1.56h-10.71c-1.62,0-2.89-.54-3.81-1.62-.8-.939-1.2-2.17-1.2-3.689v-3.631l2.58-1.38v4.771c0,2.08.97,3.12,2.91,3.12h9.96c1.92,0,2.88-1.04,2.88-3.12v-12.42l2.61-1.38v13.92c0,2,.97,3,2.91,3ZM464.129,243.68c1.72.08,2.58.931,2.58,2.551,0,.7-.205,1.26-.615,1.68-.41.42-.956.63-1.635.63h-3.96l.69-1.29h3.15c.72,0,1.08-.36,1.08-1.08,0-.88-.56-1.32-1.68-1.32-.581,0-1.11.141-1.59.421v-1.2l2.52-2.79h1.59l-2.13,2.399Z" fill="#5f616e"/><path d="M487.77,255.86h1.98v2.43h-2.28c-1.72,0-3.05-.55-3.99-1.65-1,1.101-2.38,1.65-4.14,1.65h-1.8v-2.43h1.59c2.08,0,3.12-1.09,3.12-3.271v-12.27l2.61-1.38v13.68c0,1.16.225,1.99.675,2.49.45.5,1.195.75,2.235.75Z" fill="#5f616e"/><path d="M498.39,255.86h1.98v2.43h-2.28c-1.661,0-2.97-.529-3.93-1.59-.96,1.061-2.27,1.59-3.93,1.59h-2.28v-2.43h1.98c1.96,0,2.94-1,2.94-3v-6.21l2.58-1.38v7.59c0,2,.979,3,2.94,3ZM491.22,261.29c.96,0,1.44.5,1.44,1.5,0,.979-.48,1.47-1.44,1.47-.98,0-1.47-.49-1.47-1.47,0-1,.49-1.5,1.47-1.5ZM495.03,261.29c.96,0,1.44.5,1.44,1.5,0,.979-.48,1.47-1.44,1.47-.98,0-1.47-.49-1.47-1.47,0-1,.49-1.5,1.47-1.5Z" fill="#5f616e"/><path d="M517.89,255.86h2.01v2.43h-2.28c-1.66,0-2.97-.529-3.93-1.59-1.02,1.46-2.51,2.189-4.47,2.189s-3.44-.72-4.44-2.159c-.94,1.04-2.25,1.56-3.93,1.56h-2.28v-2.43h1.98c1.96,0,2.94-1,2.94-3v-.99c0-2.32.57-4.1,1.71-5.34,1-1.1,2.34-1.65,4.02-1.65,1.92,0,3.4.71,4.44,2.13.88,1.221,1.32,2.841,1.32,4.86v.99c0,2,.97,3,2.91,3ZM509.22,256.46c.979,0,1.755-.409,2.325-1.229.57-.82.855-1.95.855-3.391,0-3.04-1.061-4.56-3.18-4.56-2.1,0-3.15,1.52-3.15,4.56,0,3.08,1.05,4.62,3.15,4.62Z" fill="#5f616e"/><path d="M534.27,255.86v2.43h-16.17v-2.43h5.19c-.98-1.261-1.47-2.81-1.47-4.65,0-2.04.7-3.66,2.1-4.86,1.14-.96,2.46-1.449,3.96-1.47,2.12,0,3.77.851,4.95,2.55v2.431c-1.28-1.72-2.831-2.58-4.65-2.58-1.14,0-2.055.365-2.745,1.095-.69.73-1.035,1.705-1.035,2.925,0,1.38.415,2.485,1.245,3.315.83.83,1.935,1.245,3.315,1.245h5.31Z" fill="#5f616e"/><path d="M543.36,267.74v-6.54c0-1.7.49-3.02,1.47-3.96.88-.86,2.1-1.32,3.66-1.38-.9-1.021-1.35-2.44-1.35-4.261,0-2.18.57-3.88,1.71-5.1,1.02-1.08,2.36-1.62,4.02-1.62,1.7,0,3.01.53,3.93,1.59.82.94,1.23,2.171,1.23,3.69v3.24c-.02,1.5-.49,2.68-1.41,3.54-.92.859-2.19,1.31-3.81,1.35h-3.93c-1.96,0-2.94,1-2.94,3v5.07l-2.58,1.38ZM555.45,250.28c0-2-.86-3-2.58-3-1,0-1.775.375-2.325,1.125-.55.75-.825,1.795-.825,3.135,0,1.36.26,2.42.78,3.18.52.761,1.25,1.141,2.19,1.141,1.84,0,2.76-.931,2.76-2.79v-2.79Z" fill="#5f616e"/><path d="M560.729,258.29l1.26-2.43h5.34c.8,0,1.365-.2,1.695-.601.33-.399.495-1.09.495-2.069,0-2.66-1.23-4.66-3.69-6l1.32-2.221c3.14,1.841,4.78,4.38,4.92,7.62.04,1.16.305,1.995.795,2.505.49.511,1.275.766,2.355.766h1.77v2.43h-1.98c-1.66,0-2.96-.529-3.9-1.59-.66,1.061-1.77,1.59-3.33,1.59h-7.05Z" fill="#5f616e"/><path d="M594.75,255.86h1.95v2.43h-1.98c-1.62,0-2.92-.185-3.9-.555-.98-.37-1.89-1.025-2.73-1.965-2.52,1.68-5.46,2.52-8.82,2.52h-4.08v-2.43h4.11c4.06,0,7.27-1.34,9.63-4.021-1.66-3.06-3.68-4.59-6.06-4.59-1.62,0-3.29.86-5.01,2.58v-2.4c1.68-1.699,3.46-2.55,5.34-2.55,1.54,0,3.03.555,4.47,1.665s2.71,2.695,3.81,4.755v1.32c-.62.78-1.21,1.41-1.77,1.89,1.08.9,2.76,1.351,5.04,1.351ZM584.28,241.64c-.98,0-1.47-.499-1.47-1.5,0-.979.49-1.47,1.47-1.47.96,0,1.44.49,1.44,1.47,0,1.001-.48,1.5-1.44,1.5Z" fill="#5f616e"/><path d="M594.9,258.29v-2.43h1.98c1.96,0,2.94-1,2.94-3v-6.21l2.58-1.38v7.68c0,1.7-.51,3.04-1.53,4.02-.94.881-2.17,1.32-3.69,1.32h-2.28ZM596.49,264.26c-.979,0-1.47-.5-1.47-1.5,0-.979.49-1.47,1.47-1.47.96,0,1.44.49,1.44,1.47,0,1-.48,1.5-1.44,1.5ZM600.3,264.26c-.98,0-1.47-.5-1.47-1.5,0-.979.49-1.47,1.47-1.47.96,0,1.44.49,1.44,1.47,0,1-.48,1.5-1.44,1.5Z" fill="#5f616e"/><path d="M615.18,257.33c-.76.3-1.69.45-2.79.45-1.78,0-3.18-.67-4.2-2.01-.86-1.141-1.29-2.57-1.29-4.29,0-2.12.57-3.78,1.71-4.98,1.02-1.08,2.36-1.62,4.02-1.62,1.7,0,3.01.53,3.93,1.59.82.94,1.23,2.171,1.23,3.69v6.54c0,2.26-.59,4.05-1.77,5.37-1.12,1.239-2.61,1.859-4.47,1.859-1.241,0-2.411-.29-3.51-.87v-2.279c1.06.56,2.11.84,3.15.84,1.18,0,2.12-.375,2.82-1.125.7-.75,1.09-1.806,1.17-3.165ZM615.18,250.28c0-2-.851-3-2.55-3-1,0-1.785.37-2.355,1.109-.57.74-.855,1.751-.855,3.03,0,1.26.275,2.265.825,3.015.55.75,1.294,1.125,2.235,1.125,1.32,0,2.22-.369,2.7-1.109v-4.17Z" fill="#5f616e"/><path d="M647.64,255.86h1.92v2.43h-1.95c-1.7,0-3.056-.199-4.065-.6-1.01-.4-1.945-1.12-2.805-2.16-.66.24-1.67.5-3.03.779-2.28.48-3.8,1.101-4.56,1.86-.96.92-1.44,2.21-1.44,3.87,0,1.68.55,2.979,1.65,3.9.919.779,2.1,1.17,3.54,1.17,2.2-.021,4.04-.551,5.52-1.59v2.43c-1.7,1.06-3.61,1.59-5.73,1.59-2.28,0-4.12-.761-5.52-2.28-1.26-1.36-1.89-3.11-1.89-5.25,0-2.3.68-4.13,2.04-5.489.6-.601,1.29-1.07,2.07-1.41.78-.34,1.96-.68,3.54-1.021,1.5-.319,2.605-.63,3.315-.93s1.325-.729,1.845-1.29c-1.64-3.08-3.66-4.62-6.06-4.62-1.601,0-3.28.86-5.04,2.58v-2.4c1.68-1.699,3.47-2.55,5.37-2.55,1.52,0,3,.561,4.44,1.68,1.44,1.121,2.71,2.7,3.81,4.74v1.32c-.54.78-1.17,1.41-1.89,1.89,1.06.9,2.7,1.351,4.92,1.351Z" fill="#5f616e"/><path d="M657.209,255.771c.8-3.021,2.12-5.54,3.96-7.561,2.06-2.22,4.46-3.33,7.2-3.33,2.28,0,4.1.79,5.46,2.37,1.14,1.34,1.71,2.99,1.71,4.95v.78c0,1.739-.53,3.09-1.59,4.05-.92.84-2.13,1.26-3.63,1.26h-12.42c-1.661,0-2.97-.529-3.93-1.59-.96,1.061-2.27,1.59-3.93,1.59h-2.28v-2.43h1.98c1.96,0,2.94-1,2.94-3v-4.2l2.58-1.38v5.58c0,1.68.649,2.65,1.95,2.91ZM672.959,252.74v-.54c0-1.561-.48-2.8-1.44-3.72-.84-.8-1.88-1.2-3.12-1.2-2.121,0-4.031.979-5.73,2.939-1.3,1.5-2.3,3.381-3,5.641h10.5c1.86,0,2.79-1.04,2.79-3.12ZM668.88,241.64c-.98,0-1.47-.499-1.47-1.5,0-.979.49-1.47,1.47-1.47.96,0,1.44.49,1.44,1.47,0,1.001-.48,1.5-1.44,1.5Z" fill="#5f616e"/><path d="M687.72,257.33c-.76.3-1.69.45-2.79.45-1.78,0-3.18-.67-4.2-2.01-.86-1.141-1.29-2.57-1.29-4.29,0-2.12.57-3.78,1.71-4.98,1.02-1.08,2.36-1.62,4.02-1.62,1.7,0,3.01.53,3.93,1.59.82.94,1.23,2.171,1.23,3.69v6.54c0,2.26-.59,4.05-1.77,5.37-1.12,1.239-2.61,1.859-4.47,1.859-1.241,0-2.411-.29-3.51-.87v-2.279c1.06.56,2.11.84,3.15.84,1.18,0,2.12-.375,2.82-1.125.7-.75,1.09-1.806,1.17-3.165ZM687.72,250.28c0-2-.851-3-2.55-3-1,0-1.785.37-2.355,1.109-.57.74-.855,1.751-.855,3.03,0,1.26.275,2.265.825,3.015.55.75,1.294,1.125,2.235,1.125,1.32,0,2.22-.369,2.7-1.109v-4.17Z" fill="#5f616e"/><path d="M693.839,238.521l.69-1.29h.81c-.2-.36-.3-.73-.3-1.11,0-.6.22-1.115.66-1.545.439-.43.96-.646,1.56-.646.5,0,.98.161,1.44.48v1.32c-.44-.34-.86-.511-1.26-.511-.74,0-1.11.33-1.11.99,0,.341.14.681.42,1.021h2.73l-.69,1.29h-4.95ZM695.43,258.29v-16.77l2.58-1.381v18.15h-2.58Z" fill="#5f616e"/><path d="M717.75,255.86h1.98v2.43h-2.28c-1.02,0-1.9-.199-2.64-.6-.18,1.979-.87,3.56-2.07,4.739-1.1,1.08-2.48,1.62-4.14,1.62-1.2,0-2.37-.3-3.51-.899v-2.25c1.02.56,2.04.84,3.06.84,1.279,0,2.28-.431,3-1.29.72-.86,1.08-2.051,1.08-3.57v-10.229l2.58-1.38v.029l.03-.029v8.189c.18,1.601,1.15,2.4,2.91,2.4Z" fill="#5f616e"/><path d="M738.359,255.86h1.98v2.43h-2.28c-1.68,0-2.98-.52-3.9-1.56-.98,1.04-2.31,1.56-3.99,1.56h-3.24c-.68,0-1.32-.1-1.92-.3-.62.2-1.26.3-1.92.3h-5.16v-2.43h3.87c-.761-1.021-1.14-2.18-1.14-3.48,0-1.18.29-2.18.87-3,.5-1.84,1.45-3.25,2.85-4.229,1.14-.78,2.43-1.17,3.87-1.17,2.12,0,3.87.72,5.25,2.159,1.3,1.36,1.95,3.11,1.95,5.25v1.471c0,2,.97,3,2.91,3ZM725.01,255.59c1.64-.56,2.46-1.68,2.46-3.359,0-.841-.225-1.516-.675-2.025-.45-.51-1.045-.765-1.785-.765s-1.335.255-1.785.765-.675,1.185-.675,2.025c0,1.68.82,2.8,2.46,3.359ZM730.08,255.86c.979,0,1.685-.245,2.115-.735.43-.49.645-1.285.645-2.385v-1.351c0-1.659-.53-2.949-1.59-3.869-.86-.761-1.89-1.141-3.09-1.141-1.38,0-2.46.45-3.24,1.351h.09c1.32,0,2.375.425,3.165,1.274.79.851,1.185,1.976,1.185,3.375,0,1.34-.39,2.5-1.17,3.48h1.89Z" fill="#5f616e"/><path d="M765.36,255.86h1.98v2.43h-2.28c-1.601,0-2.85-.47-3.75-1.41-.82.94-1.98,1.41-3.48,1.41h-19.29v-2.43h5.58l.09-.33v-15.21l2.58-1.38v10.979c2.28-3.36,5.11-5.04,8.49-5.04,2.26,0,4.07.79,5.43,2.37,1.16,1.34,1.74,2.99,1.74,4.95v.72c0,1.96.97,2.94,2.91,2.94ZM759.84,253.04v-.84c0-1.561-.48-2.8-1.44-3.72-.82-.8-1.85-1.2-3.09-1.2-2.06,0-3.92.93-5.58,2.79-1.24,1.399-2.22,3.149-2.94,5.25v.54h10.83c.859,0,1.444-.2,1.755-.601.31-.399.465-1.14.465-2.22ZM755.1,241.64c-.98,0-1.47-.499-1.47-1.5,0-.979.49-1.47,1.47-1.47.96,0,1.44.49,1.44,1.47,0,1.001-.48,1.5-1.44,1.5Z" fill="#5f616e"/><path d="M775.98,255.86h1.98v2.43h-2.28c-1.661,0-2.97-.529-3.93-1.59-.96,1.061-2.27,1.59-3.93,1.59h-2.28v-2.43h1.98c1.96,0,2.94-1,2.94-3v-6.21l2.58-1.38v7.59c0,2,.979,3,2.94,3ZM768.81,261.29c.96,0,1.44.5,1.44,1.5,0,.979-.48,1.47-1.44,1.47-.98,0-1.47-.49-1.47-1.47,0-1,.49-1.5,1.47-1.5ZM772.62,261.29c.96,0,1.44.5,1.44,1.5,0,.979-.48,1.47-1.44,1.47-.98,0-1.47-.49-1.47-1.47,0-1,.49-1.5,1.47-1.5Z" fill="#5f616e"/><path d="M776.16,258.29v-2.43h1.59c2.08,0,3.12-1.09,3.12-3.271v-12.27l2.61-1.38v13.68c0,1.78-.53,3.19-1.59,4.229-1,.96-2.31,1.44-3.93,1.44h-1.8Z" fill="#5f616e"/><path d="M800.85,258.29c-1.82,0-3.24-.609-4.26-1.83-.88-1.06-1.32-2.41-1.32-4.05,0-1.78.495-3.325,1.485-4.635.99-1.31,2.405-2.275,4.245-2.896,1.939.66,3.4,1.7,4.38,3.12.88,1.26,1.32,2.73,1.32,4.41,0,1.9-.56,3.39-1.68,4.47-1,.94-2.291,1.41-3.87,1.41h-.3ZM800.76,255.86h.45c.9,0,1.615-.311,2.145-.931.53-.619.795-1.449.795-2.489,0-2.4-1.05-4.12-3.15-5.16-2.1,1.04-3.15,2.75-3.15,5.13,0,1.061.259,1.9.78,2.52.52.62,1.23.931,2.13.931Z" fill="#5f616e"/><path d="M815.94,256.7c0,2.239-.59,4.039-1.77,5.399-1.121,1.3-2.61,1.95-4.47,1.95-1.2,0-2.37-.3-3.51-.899v-2.25c1.02.56,2.04.84,3.06.84,1.279,0,2.28-.431,3-1.29.72-.86,1.08-2.051,1.08-3.57v-10.229l2.61-1.38v11.43Z" fill="#5f616e"/><path d="M827.61,236.899l1.44-.81v2.43c0,.561-.19,1.021-.57,1.38-.38.36-.87.54-1.47.54-.521,0-.97-.14-1.35-.42-.38.28-.83.42-1.35.42-.6,0-1.095-.18-1.485-.54-.39-.359-.585-.819-.585-1.38v-.93l1.47-.811v1.65c0,.4.2.6.6.6s.6-.169.6-.51v-1.32l1.47-.81v2.13c0,.341.21.51.63.51.4,0,.6-.199.6-.6v-1.53Z" fill="#5f616e"/><path d="M835.35,255.86v2.43h-3.72c-.081,1.72-.82,3.14-2.22,4.26-1.18.92-2.52,1.38-4.02,1.38-1.24,0-2.41-.29-3.51-.87v-2.279c1.06.56,2.109.84,3.15.84,1.06,0,1.984-.33,2.775-.99.79-.66,1.195-1.45,1.215-2.37-1.04-.04-1.81-.079-2.31-.12-2.16-.119-3.79-.85-4.89-2.189-.92-1.12-1.38-2.57-1.38-4.351,0-2.18.58-3.88,1.74-5.1,1.04-1.08,2.41-1.62,4.11-1.62,1.78,0,3.15.53,4.11,1.59.82.94,1.23,2.171,1.23,3.69v5.7h3.72ZM829.02,250.34c0-2.04-.91-3.06-2.73-3.06-1.04,0-1.85.375-2.43,1.125-.581.75-.87,1.795-.87,3.135,0,2.62,1.28,4.01,3.84,4.17.48.061,1.21.11,2.19.15v-5.521Z" fill="#5f616e"/><path d="M860.37,255.86h1.98v2.43h-2.28c-1.601,0-2.85-.47-3.75-1.41-.82.94-1.98,1.41-3.48,1.41h-19.29v-2.43h5.58l.09-.33v-15.21l2.58-1.38v10.979c2.28-3.36,5.11-5.04,8.49-5.04,2.26,0,4.07.79,5.43,2.37,1.16,1.34,1.74,2.99,1.74,4.95v.72c0,1.96.97,2.94,2.91,2.94ZM854.85,253.04v-.84c0-1.561-.48-2.8-1.44-3.72-.82-.8-1.85-1.2-3.09-1.2-2.06,0-3.92.93-5.58,2.79-1.24,1.399-2.22,3.149-2.94,5.25v.54h10.83c.859,0,1.444-.2,1.755-.601.31-.399.465-1.14.465-2.22Z" fill="#5f616e"/><path d="M860.55,258.29v-2.43h1.98c1.96,0,2.94-1,2.94-3v-6.21l2.58-1.38v7.68c0,1.7-.51,3.04-1.53,4.02-.94.881-2.17,1.32-3.69,1.32h-2.28ZM866.67,241.64c-.98,0-1.47-.499-1.47-1.5,0-.979.49-1.47,1.47-1.47.96,0,1.44.49,1.44,1.47,0,1.001-.48,1.5-1.44,1.5Z" fill="#5f616e"/><path d="M880.83,257.33c-.76.3-1.69.45-2.79.45-1.78,0-3.18-.67-4.2-2.01-.86-1.141-1.29-2.57-1.29-4.29,0-2.12.57-3.78,1.71-4.98,1.02-1.08,2.36-1.62,4.02-1.62,1.7,0,3.01.53,3.93,1.59.82.94,1.23,2.171,1.23,3.69v6.54c0,2.26-.59,4.05-1.77,5.37-1.12,1.239-2.61,1.859-4.47,1.859-1.241,0-2.411-.29-3.51-.87v-2.279c1.06.56,2.11.84,3.15.84,1.18,0,2.12-.375,2.82-1.125.7-.75,1.09-1.806,1.17-3.165ZM880.83,250.28c0-2-.851-3-2.55-3-1,0-1.785.37-2.355,1.109-.57.74-.855,1.751-.855,3.03,0,1.26.275,2.265.825,3.015.55.75,1.294,1.125,2.235,1.125,1.32,0,2.22-.369,2.7-1.109v-4.17Z" fill="#5f616e"/><path d="M896.82,254.78c1.1,0,1.669.569,1.71,1.71,0,.56-.175,1.025-.525,1.395-.35.37-.805.556-1.365.556-1.24,0-1.86-.76-1.86-2.28v-3.87l1.26-.36.03,2.851h.75Z" fill="#5f616e"/><path d="M914.88,255.86h1.98v2.43h-2.28c-2.06,0-3.54-.76-4.44-2.28-.96.921-2.15,1.38-3.57,1.38-1.76,0-3.161-.659-4.2-1.979-.86-1.12-1.29-2.49-1.29-4.11,0-1.939.59-3.499,1.77-4.68,1-1.021,2.22-1.53,3.66-1.53,1.1,0,2.05.28,2.85.84v-1.29l2.61-1.38v9.601c0,2,.97,3,2.91,3ZM909.36,248.72c-.74-.819-1.65-1.229-2.73-1.229-.88,0-1.601.355-2.16,1.064-.56.711-.84,1.636-.84,2.775,0,1.16.28,2.09.84,2.79.56.7,1.29,1.05,2.19,1.05,1.12,0,2.04-.46,2.76-1.38-.041-.36-.06-.64-.06-.84v-4.23Z" fill="#5f616e"/><path d="M925.29,255.86h1.98v2.43h-2.28c-1.72,0-3.05-.55-3.99-1.65-1,1.101-2.38,1.65-4.14,1.65h-1.8v-2.43h1.59c2.08,0,3.12-1.09,3.12-3.271v-12.27l2.61-1.38v13.68c0,1.16.225,1.99.675,2.49.45.5,1.195.75,2.235.75Z" fill="#5f616e"/><path d="M935.91,255.86h1.98v2.43h-2.28c-1.661,0-2.97-.529-3.93-1.59-.96,1.061-2.27,1.59-3.93,1.59h-2.28v-2.43h1.98c1.96,0,2.94-1,2.94-3v-6.21l2.58-1.38v7.59c0,2,.979,3,2.94,3ZM928.74,261.29c.96,0,1.44.5,1.44,1.5,0,.979-.48,1.47-1.44,1.47-.98,0-1.47-.49-1.47-1.47,0-1,.49-1.5,1.47-1.5ZM932.55,261.29c.96,0,1.44.5,1.44,1.5,0,.979-.48,1.47-1.44,1.47-.98,0-1.47-.49-1.47-1.47,0-1,.49-1.5,1.47-1.5Z" fill="#5f616e"/><path d="M950.91,255.86h7.92v2.43h-8.16c-1.08,0-2.15-.21-3.21-.63-1.061.42-2.141.63-3.24.63h-8.13v-2.43h8.34c-1.44-1.18-2.92-2.91-4.44-5.19v-1.32c.96-1.38,2.104-2.47,3.435-3.27,1.33-.8,2.665-1.2,4.005-1.2s2.68.405,4.02,1.215c1.34.811,2.5,1.916,3.48,3.315v1.26c-1.52,2.28-3.01,4.011-4.47,5.19h.45ZM942.39,250.04c1.84,2.52,3.53,4.181,5.07,4.98,1.54-.82,3.229-2.49,5.07-5.011-1.5-1.819-3.2-2.739-5.1-2.76-1.9,0-3.58.93-5.04,2.79ZM947.4,241.64c-.98,0-1.47-.499-1.47-1.5,0-.979.49-1.47,1.47-1.47.96,0,1.44.49,1.44,1.47,0,1.001-.48,1.5-1.44,1.5Z" fill="#5f616e"/><path d="M957.03,258.29v-2.43h2.7c1.94,0,2.91-1,2.91-3v-4.2l2.58-1.38v5.58c0,2,.979,3,2.94,3h1.38c1.96,0,2.939-1,2.939-3v-5.221l2.58-1.35v6.57c0,2,.97,3,2.91,3h1.41c1.96,0,2.939-1,2.939-3v-6.21l2.58-1.38v7.319c0,2.181,1.04,3.271,3.12,3.271h2.49v2.43h-2.7c-1.8,0-3.17-.609-4.11-1.83-.84,1.2-2.149,1.811-3.93,1.83h-2.07c-1.76,0-3.07-.59-3.93-1.77-.86,1.16-2.141,1.75-3.84,1.77h-2.07c-1.72,0-3.029-.59-3.93-1.77-.86,1.18-2.17,1.77-3.93,1.77h-2.97ZM971.64,242.45c-.98,0-1.47-.5-1.47-1.5,0-.979.489-1.47,1.47-1.47.96,0,1.44.49,1.44,1.47,0,1-.48,1.5-1.44,1.5ZM973.529,238.88c-.88,0-1.319-.45-1.319-1.35,0-.88.439-1.32,1.319-1.32s1.32.44,1.32,1.32c0,.899-.44,1.35-1.32,1.35ZM975.449,242.45c-.979,0-1.47-.5-1.47-1.5,0-.979.49-1.47,1.47-1.47.961,0,1.44.49,1.44,1.47,0,1-.479,1.5-1.44,1.5Z" fill="#5f616e"/><path d="M988.709,258.29v-2.43h1.98c1.96,0,2.939-1,2.939-3v-6.21l2.58-1.38v7.68c0,1.7-.51,3.04-1.529,4.02-.94.881-2.171,1.32-3.69,1.32h-2.28ZM991.02,241.64c-.98,0-1.47-.499-1.47-1.5,0-.979.489-1.47,1.47-1.47.96,0,1.439.49,1.439,1.47,0,1.001-.479,1.5-1.439,1.5ZM994.829,241.64c-.979,0-1.47-.499-1.47-1.5,0-.979.49-1.47,1.47-1.47.96,0,1.44.49,1.44,1.47,0,1.001-.48,1.5-1.44,1.5Z" fill="#5f616e"/><path d="M1032.479,255.86h1.38v2.43h-1.68c-1.681,0-2.99-.52-3.931-1.56-.939,1.04-2.25,1.56-3.93,1.56h-10.71c-1.62,0-2.891-.54-3.81-1.62-.801-.939-1.2-2.17-1.2-3.689v-3.631l2.58-1.38v4.771c0,2.08.97,3.12,2.91,3.12h9.96c1.939,0,2.909-1.04,2.909-3.12v-6.09l2.58-1.38v7.59c0,2,.98,3,2.94,3ZM1017.989,261.29c.96,0,1.44.49,1.44,1.47,0,1-.48,1.5-1.44,1.5-.98,0-1.47-.5-1.47-1.5,0-.979.489-1.47,1.47-1.47Z" fill="#5f616e"/><path d="M1038.3,230.84l1.439-.81v2.43c0,.561-.189,1.021-.569,1.38-.381.36-.87.54-1.471.54-.52,0-.97-.14-1.35-.42-.38.28-.83.42-1.35.42-.601,0-1.096-.18-1.485-.54-.39-.359-.585-.819-.585-1.38v-.93l1.47-.811v1.65c0,.4.2.6.601.6s.6-.169.6-.51v-1.32l1.47-.81v2.13c0,.341.21.51.63.51.4,0,.601-.199.601-.6v-1.53Z" fill="#5f616e"/><path d="M1032.06,258.29v-2.43h1.98c1.96,0,2.939-1,2.939-3v-6.21l2.58-1.38v7.68c0,1.7-.51,3.04-1.529,4.02-.94.881-2.171,1.32-3.69,1.32h-2.28ZM1034.37,241.64c-.98,0-1.47-.499-1.47-1.5,0-.979.489-1.47,1.47-1.47.96,0,1.439.49,1.439,1.47,0,1.001-.479,1.5-1.439,1.5ZM1038.18,241.64c-.979,0-1.47-.499-1.47-1.5,0-.979.49-1.47,1.47-1.47.96,0,1.44.49,1.44,1.47,0,1.001-.48,1.5-1.44,1.5Z" fill="#5f616e"/><path d="M1052.31,255.86h1.98v2.43h-2.28c-1.02,0-1.9-.199-2.64-.6-.181,1.979-.87,3.56-2.07,4.739-1.101,1.08-2.48,1.62-4.14,1.62-1.2,0-2.37-.3-3.511-.899v-2.25c1.021.56,2.04.84,3.061.84,1.279,0,2.28-.431,3-1.29.72-.86,1.08-2.051,1.08-3.57v-10.229l2.58-1.38v.029l.029-.029v8.189c.181,1.601,1.15,2.4,2.91,2.4Z" fill="#5f616e"/><path d="M1052.489,258.29v-2.43h1.98c1.96,0,2.939-1,2.939-3v-6.21l2.58-1.38v7.68c0,1.7-.51,3.04-1.529,4.02-.94.881-2.171,1.32-3.69,1.32h-2.28ZM1058.609,241.64c-.979,0-1.47-.499-1.47-1.5,0-.979.49-1.47,1.47-1.47.96,0,1.44.49,1.44,1.47,0,1.001-.48,1.5-1.44,1.5Z" fill="#5f616e"/><path d="M1073.67,254.78c1.1,0,1.67.569,1.71,1.71,0,.56-.176,1.025-.525,1.395-.35.37-.805.556-1.365.556-1.24,0-1.859-.76-1.859-2.28v-3.87l1.26-.36.03,2.851h.75Z" fill="#5f616e"/><path d="M1098.06,240.32l2.609-1.38v14.04c0,1.739-.53,3.09-1.59,4.05-.94.84-2.15,1.26-3.63,1.26h-10.71c-1.62,0-2.891-.54-3.81-1.62-.801-.939-1.2-2.17-1.2-3.689v-3.631l2.58-1.38v4.771c0,2.08.97,3.12,2.91,3.12h9.96c1.92,0,2.88-1.04,2.88-3.12v-12.42ZM1090.35,243.68c1.72.08,2.58.931,2.58,2.551,0,.7-.206,1.26-.615,1.68-.41.42-.955.63-1.635.63h-3.96l.689-1.29h3.15c.72,0,1.08-.36,1.08-1.08,0-.88-.561-1.32-1.681-1.32-.58,0-1.109.141-1.59.421v-1.2l2.521-2.79h1.59l-2.13,2.399Z" fill="#5f616e"/><path d="M1113.42,255.86h1.98v2.43h-2.28c-1.02,0-1.9-.199-2.64-.6-.181,1.979-.87,3.56-2.07,4.739-1.101,1.08-2.48,1.62-4.14,1.62-1.2,0-2.37-.3-3.511-.899v-2.25c1.021.56,2.04.84,3.061.84,1.279,0,2.28-.431,3-1.29.72-.86,1.08-2.051,1.08-3.57v-10.229l2.58-1.38v.029l.029-.029v8.189c.181,1.601,1.15,2.4,2.91,2.4Z" fill="#5f616e"/><path d="M1133.16,255.86h1.95v2.43h-1.98c-1.62,0-2.92-.185-3.899-.555-.98-.37-1.891-1.025-2.73-1.965-2.52,1.68-5.46,2.52-8.82,2.52h-4.08v-2.43h4.11c4.06,0,7.27-1.34,9.63-4.021-1.66-3.06-3.68-4.59-6.06-4.59-1.62,0-3.29.86-5.011,2.58v-2.4c1.681-1.699,3.46-2.55,5.341-2.55,1.539,0,3.029.555,4.47,1.665,1.439,1.11,2.71,2.695,3.81,4.755v1.32c-.62.78-1.21,1.41-1.77,1.89,1.08.9,2.76,1.351,5.04,1.351ZM1123.35,261.29c.96,0,1.44.49,1.44,1.47,0,1-.48,1.5-1.44,1.5-.979,0-1.47-.5-1.47-1.5,0-.979.49-1.47,1.47-1.47Z" fill="#5f616e"/><path d="M1143.75,255.86h1.979v2.43h-2.279c-1.66,0-2.971-.529-3.931-1.59-.96,1.061-2.27,1.59-3.93,1.59h-2.28v-2.43h1.98c1.96,0,2.939-1,2.939-3v-6.21l2.58-1.38v7.59c0,2,.98,3,2.94,3ZM1136.67,241.85c-.98,0-1.47-.499-1.47-1.5,0-.979.489-1.47,1.47-1.47.96,0,1.44.49,1.44,1.47,0,1.001-.48,1.5-1.44,1.5ZM1140.51,241.85c-.979,0-1.47-.499-1.47-1.5,0-.979.49-1.47,1.47-1.47.96,0,1.44.49,1.44,1.47,0,1.001-.48,1.5-1.44,1.5Z" fill="#5f616e"/><path d="M1148.85,250.16c0-1.74.521-3.09,1.561-4.05.92-.82,2.119-1.23,3.6-1.23,1.9,0,3.36.7,4.38,2.101.88,1.18,1.32,2.72,1.32,4.619,0,2.16-.56,3.851-1.68,5.07-.98,1.08-2.261,1.62-3.84,1.62-1.801,0-3.171-.5-4.11-1.5-.96,1-2.25,1.5-3.87,1.5h-2.28v-2.43h1.98c1.96,0,2.939-1,2.939-3v-2.7ZM1151.43,253.07c0,1.859.91,2.79,2.73,2.79.939,0,1.675-.38,2.205-1.141.529-.76.795-1.819.795-3.18,0-1.34-.28-2.385-.84-3.135-.561-.75-1.33-1.125-2.311-1.125-1.72,0-2.58,1-2.58,3v2.79Z" fill="#5f616e"/><path d="M1188.959,258.29c-.2,1.76-1.16,3.17-2.88,4.23-1.601.979-3.641,1.47-6.12,1.47-3.16,0-5.54-.92-7.14-2.76-1.181-1.36-1.771-3.04-1.771-5.04,0-1.681.42-3.12,1.261-4.32l2.489-.54c-.899,1.42-1.35,2.95-1.35,4.59,0,1.78.58,3.18,1.74,4.2,1.14,1.02,2.729,1.53,4.77,1.53,1.72,0,3.14-.301,4.26-.9s1.801-1.42,2.04-2.46h-3l1.261-2.43h4.529v2.43h-.09ZM1177.949,269.3c-.98,0-1.47-.5-1.47-1.5,0-.979.489-1.47,1.47-1.47.96,0,1.44.49,1.44,1.47,0,1-.48,1.5-1.44,1.5ZM1181.759,269.3c-.979,0-1.47-.5-1.47-1.5,0-.979.49-1.47,1.47-1.47.96,0,1.44.49,1.44,1.47,0,1-.48,1.5-1.44,1.5Z" fill="#5f616e"/><path d="M1197.899,255.86h1.979v2.43h-2.279c-1.66,0-2.971-.529-3.931-1.59-.96,1.061-2.27,1.59-3.93,1.59h-2.28v-2.43h1.98c1.96,0,2.939-1,2.939-3v-6.21l2.58-1.38v7.59c0,2,.98,3,2.94,3ZM1193.159,241.64c-.979,0-1.47-.499-1.47-1.5,0-.979.49-1.47,1.47-1.47.96,0,1.44.49,1.44,1.47,0,1.001-.48,1.5-1.44,1.5Z" fill="#5f616e"/><path d="M1208.52,255.86h1.979v2.43h-2.279c-1.66,0-2.971-.529-3.931-1.59-.96,1.061-2.27,1.59-3.93,1.59h-2.28v-2.43h1.98c1.96,0,2.939-1,2.939-3v-6.21l2.58-1.38v7.59c0,2,.98,3,2.94,3ZM1204.109,261.29c.96,0,1.44.49,1.44,1.47,0,1-.48,1.5-1.44,1.5-.98,0-1.47-.5-1.47-1.5,0-.979.489-1.47,1.47-1.47Z" fill="#5f616e"/><path d="M1208.699,258.29v-2.43h1.98c1.96,0,2.939-1,2.939-3v-6.21l2.58-1.38v7.68c0,1.7-.51,3.04-1.529,4.02-.94.881-2.171,1.32-3.69,1.32h-2.28ZM1214.819,241.64c-.979,0-1.47-.499-1.47-1.5,0-.979.49-1.47,1.47-1.47.96,0,1.44.49,1.44,1.47,0,1.001-.48,1.5-1.44,1.5Z" fill="#5f616e"/><path d="M1228.62,249.65v-.061c.039-1,.569-1.5,1.59-1.5,1.06,0,1.59.521,1.59,1.561,0,1.06-.53,1.59-1.59,1.59s-1.59-.53-1.59-1.59ZM1228.62,256.85v-.06c.039-1,.569-1.5,1.59-1.5,1.06,0,1.59.521,1.59,1.56,0,1.061-.53,1.591-1.59,1.591s-1.59-.53-1.59-1.591Z" fill="#5f616e"/><path d="M1247.97,255.86h1.979v2.43h-2.279c-2.061,0-3.54-.76-4.44-2.28-.96.921-2.15,1.38-3.57,1.38-1.76,0-3.16-.659-4.199-1.979-.86-1.12-1.29-2.49-1.29-4.11,0-1.939.589-3.499,1.77-4.68,1-1.021,2.22-1.53,3.66-1.53,1.1,0,2.05.28,2.85.84v-1.29l2.61-1.38v9.601c0,2,.97,3,2.91,3ZM1242.449,248.72c-.74-.819-1.649-1.229-2.729-1.229-.881,0-1.601.355-2.16,1.064-.561.711-.84,1.636-.84,2.775,0,1.16.279,2.09.84,2.79.56.7,1.29,1.05,2.19,1.05,1.119,0,2.039-.46,2.76-1.38-.041-.36-.061-.64-.061-.84v-4.23ZM1238.579,241.34c-.979,0-1.47-.499-1.47-1.5,0-.979.49-1.47,1.47-1.47.96,0,1.44.49,1.44,1.47,0,1.001-.48,1.5-1.44,1.5ZM1242.39,241.34c-.98,0-1.47-.499-1.47-1.5,0-.979.489-1.47,1.47-1.47.96,0,1.439.49,1.439,1.47,0,1.001-.479,1.5-1.439,1.5Z" fill="#5f616e"/><path d="M1258.38,255.86h1.979v2.43h-2.279c-1.721,0-3.051-.55-3.99-1.65-1,1.101-2.38,1.65-4.14,1.65h-1.801v-2.43h1.591c2.079,0,3.119-1.09,3.119-3.271v-12.27l2.61-1.38v13.68c0,1.16.225,1.99.675,2.49s1.195.75,2.235.75Z" fill="#5f616e"/><path d="M1258.56,258.29v-2.43h4.11c4.06,0,7.27-1.34,9.63-4.021-1.66-3.06-3.68-4.59-6.06-4.59-1.62,0-3.29.86-5.011,2.58v-2.4c1.681-1.699,3.46-2.55,5.341-2.55,1.539,0,3.029.555,4.47,1.665,1.439,1.11,2.71,2.695,3.81,4.755v1.32c-2.939,3.78-7.01,5.67-12.21,5.67h-4.08Z" fill="#5f616e"/><path d="M1287.3,255.86h1.98v2.43h-2.28c-1.02,0-1.9-.199-2.64-.6-.181,1.979-.87,3.56-2.07,4.739-1.101,1.08-2.48,1.62-4.14,1.62-1.2,0-2.37-.3-3.511-.899v-2.25c1.021.56,2.04.84,3.061.84,1.279,0,2.28-.431,3-1.29.72-.86,1.08-2.051,1.08-3.57v-10.229l2.58-1.38v.029l.029-.029v8.189c.181,1.601,1.15,2.4,2.91,2.4Z" fill="#5f616e"/><path d="M1292.399,250.16c0-1.74.521-3.09,1.561-4.05.92-.82,2.119-1.23,3.6-1.23,1.9,0,3.36.7,4.38,2.101.88,1.18,1.32,2.72,1.32,4.619,0,2.16-.56,3.851-1.68,5.07-.98,1.08-2.261,1.62-3.84,1.62-1.801,0-3.171-.5-4.11-1.5-.96,1-2.25,1.5-3.87,1.5h-2.28v-2.43h1.98c1.96,0,2.939-1,2.939-3v-2.7ZM1294.979,253.07c0,1.859.91,2.79,2.73,2.79.939,0,1.675-.38,2.205-1.141.529-.76.795-1.819.795-3.18,0-1.34-.28-2.385-.84-3.135-.561-.75-1.33-1.125-2.311-1.125-1.72,0-2.58,1-2.58,3v2.79Z" fill="#5f616e"/><path d="M1333.68,255.86h1.98v2.43h-2.28c-1.08,0-2.05-.24-2.91-.72-.28,2.06-1.21,3.68-2.79,4.859-1.399,1.04-3.13,1.561-5.189,1.561-2.681,0-4.751-.9-6.21-2.7-1.12-1.4-1.681-3.07-1.681-5.01,0-1.7.41-3.15,1.23-4.351l2.58-.569c-.92,1.42-1.38,2.97-1.38,4.649,0,1.66.529,3.02,1.59,4.08.979.979,2.27,1.47,3.87,1.47,1.819,0,3.22-.539,4.2-1.619.84-.921,1.26-2.101,1.26-3.54v-16.08l2.609-1.38v13.92c0,2,1.04,3,3.12,3Z" fill="#5f616e"/><path d="M1339.77,245.6h.181c2.26,0,4.09.701,5.489,2.101,1.28,1.26,1.92,2.87,1.92,4.83v.51c0,1.721-.529,3.06-1.59,4.02-.94.82-2.15,1.23-3.63,1.23h-8.28v-2.43h8.04c1.92,0,2.88-1.01,2.88-3.03v-.271c0-1.479-.58-2.619-1.739-3.42-.921-.619-2.04-.93-3.36-.93-1.061,0-2.13.19-3.21.57v-2.55l6.57-7.29h2.64l-5.91,6.659Z" fill="#5f616e"/><path d="M1376.159,258.29c-.2,1.76-1.16,3.17-2.88,4.23-1.601.979-3.641,1.47-6.12,1.47-3.16,0-5.54-.92-7.14-2.76-1.181-1.36-1.771-3.04-1.771-5.04,0-1.681.42-3.12,1.261-4.32l2.489-.54c-.899,1.42-1.35,2.95-1.35,4.59,0,1.78.58,3.18,1.74,4.2,1.14,1.02,2.729,1.53,4.77,1.53,1.72,0,3.14-.301,4.26-.9s1.801-1.42,2.04-2.46h-3l1.261-2.43h4.529v2.43h-.09ZM1365.149,269.3c-.98,0-1.47-.5-1.47-1.5,0-.979.489-1.47,1.47-1.47.96,0,1.44.49,1.44,1.47,0,1-.48,1.5-1.44,1.5ZM1368.959,269.3c-.979,0-1.47-.5-1.47-1.5,0-.979.49-1.47,1.47-1.47.96,0,1.44.49,1.44,1.47,0,1-.48,1.5-1.44,1.5Z" fill="#5f616e"/><path d="M1374.659,258.29v-2.43h5.4c-.92-1.021-1.38-2.44-1.38-4.261,0-2.18.57-3.88,1.71-5.1,1-1.08,2.33-1.62,3.99-1.62,1.699,0,3.02.53,3.96,1.59.8.94,1.2,2.171,1.2,3.69v2.85c-.021,1.66-.511,2.971-1.471,3.931-.94.899-2.189,1.35-3.75,1.35h-9.66ZM1386.96,250.28c0-2-.86-3-2.58-3-.98,0-1.751.375-2.311,1.125s-.84,1.795-.84,3.135c0,1.32.271,2.37.811,3.15.539.779,1.26,1.17,2.159,1.17,1.84,0,2.761-.96,2.761-2.88v-2.7ZM1384.439,241.82c-.98,0-1.47-.5-1.47-1.5,0-.979.489-1.471,1.47-1.471.96,0,1.44.491,1.44,1.471,0,1-.48,1.5-1.44,1.5Z" fill="#5f616e"/><path d="M1425.479,255.86h1.98v2.43h-2.28c-1.68,0-2.98-.52-3.9-1.56-.979,1.04-2.29,1.56-3.93,1.56h-10.71c-1.62,0-2.891-.54-3.81-1.62-.801-.939-1.2-2.17-1.2-3.689v-3.631l2.58-1.38v4.771c0,2.08.97,3.12,2.91,3.12h9.96c1.92,0,2.88-1.04,2.88-3.12v-12.42l2.609-1.38v13.92c0,2,.97,3,2.91,3ZM1412.25,243.68c1.72.08,2.58.931,2.58,2.551,0,.7-.206,1.26-.615,1.68-.41.42-.955.63-1.635.63h-3.96l.689-1.29h3.15c.72,0,1.08-.36,1.08-1.08,0-.88-.561-1.32-1.681-1.32-.58,0-1.109.141-1.59.421v-1.2l2.521-2.79h1.59l-2.13,2.399Z" fill="#5f616e"/><path d="M1440.479,255.86h7.92v2.43h-8.16c-1.08,0-2.149-.21-3.21-.63-1.06.42-2.14.63-3.239.63h-8.131v-2.43h8.341c-1.44-1.18-2.921-2.91-4.44-5.19v-1.32c.96-1.38,2.104-2.47,3.435-3.27s2.665-1.2,4.006-1.2,2.68.405,4.02,1.215c1.34.811,2.5,1.916,3.48,3.315v1.26c-1.521,2.28-3.011,4.011-4.471,5.19h.45ZM1431.96,250.04c1.84,2.52,3.529,4.181,5.069,4.98,1.54-.82,3.229-2.49,5.07-5.011-1.5-1.819-3.2-2.739-5.1-2.76-1.9,0-3.581.93-5.04,2.79Z" fill="#5f616e"/><path d="M1451.52,250.16c0-1.74.521-3.09,1.561-4.05.92-.82,2.119-1.23,3.6-1.23,1.9,0,3.36.7,4.38,2.101.88,1.18,1.32,2.72,1.32,4.619,0,2.16-.56,3.851-1.68,5.07-.98,1.08-2.261,1.62-3.84,1.62-1.801,0-3.171-.5-4.11-1.5-.96,1-2.25,1.5-3.87,1.5h-2.28v-2.43h1.98c1.96,0,2.939-1,2.939-3v-2.7ZM1454.1,253.07c0,1.859.91,2.79,2.73,2.79.939,0,1.675-.38,2.205-1.141.529-.76.795-1.819.795-3.18,0-1.34-.28-2.385-.84-3.135-.561-.75-1.33-1.125-2.311-1.125-1.72,0-2.58,1-2.58,3v2.79Z" fill="#5f616e"/><path d="M1492.8,255.86h1.98v2.43h-2.28c-1.08,0-2.05-.24-2.91-.72-.28,2.06-1.21,3.68-2.79,4.859-1.399,1.04-3.13,1.561-5.189,1.561-2.681,0-4.751-.9-6.21-2.7-1.12-1.4-1.681-3.07-1.681-5.01,0-1.7.41-3.15,1.23-4.351l2.58-.569c-.92,1.42-1.38,2.97-1.38,4.649,0,1.66.529,3.02,1.59,4.08.979.979,2.27,1.47,3.87,1.47,1.819,0,3.22-.539,4.2-1.619.84-.921,1.26-2.101,1.26-3.54v-16.08l2.609-1.38v13.92c0,2,1.04,3,3.12,3Z" fill="#5f616e"/><path d="M1507.8,255.86h7.92v2.43h-8.16c-1.08,0-2.149-.21-3.21-.63-1.06.42-2.14.63-3.239.63h-8.131v-2.43h8.341c-1.44-1.18-2.921-2.91-4.44-5.19v-1.32c.96-1.38,2.104-2.47,3.435-3.27s2.665-1.2,4.006-1.2,2.68.405,4.02,1.215c1.34.811,2.5,1.916,3.48,3.315v1.26c-1.521,2.28-3.011,4.011-4.471,5.19h.45ZM1499.28,250.04c1.84,2.52,3.529,4.181,5.069,4.98,1.54-.82,3.229-2.49,5.07-5.011-1.5-1.819-3.2-2.739-5.1-2.76-1.9,0-3.581.93-5.04,2.79ZM1504.29,241.64c-.98,0-1.47-.499-1.47-1.5,0-.979.489-1.47,1.47-1.47.96,0,1.439.49,1.439,1.47,0,1.001-.479,1.5-1.439,1.5Z" fill="#5f616e"/><path d="M1524.36,255.86h1.979v2.43h-2.279c-1.66,0-2.971-.529-3.931-1.59-.96,1.061-2.27,1.59-3.93,1.59h-2.28v-2.43h1.98c1.96,0,2.939-1,2.939-3v-6.21l2.58-1.38v7.59c0,2,.98,3,2.94,3ZM1517.28,241.85c-.98,0-1.47-.499-1.47-1.5,0-.979.489-1.47,1.47-1.47.96,0,1.44.49,1.44,1.47,0,1.001-.48,1.5-1.44,1.5ZM1521.12,241.85c-.979,0-1.47-.499-1.47-1.5,0-.979.49-1.47,1.47-1.47.96,0,1.44.49,1.44,1.47,0,1.001-.48,1.5-1.44,1.5Z" fill="#5f616e"/><path d="M1524.539,258.29v-2.43h2.7c1.939,0,2.91-1,2.91-3v-4.2l2.58-1.38v5.58c0,2,.979,3,2.94,3h1.38c1.96,0,2.939-1,2.939-3v-5.221l2.58-1.35v6.57c0,2,.97,3,2.91,3h1.41c1.96,0,2.939-1,2.939-3v-6.21l2.58-1.38v7.319c0,2.181,1.04,3.271,3.12,3.271h2.49v2.43h-2.7c-1.8,0-3.17-.609-4.11-1.83-.84,1.2-2.149,1.811-3.93,1.83h-2.07c-1.76,0-3.07-.59-3.93-1.77-.86,1.16-2.141,1.75-3.84,1.77h-2.07c-1.72,0-3.029-.59-3.93-1.77-.86,1.18-2.17,1.77-3.93,1.77h-2.971ZM1539.149,242.45c-.98,0-1.47-.5-1.47-1.5,0-.979.489-1.47,1.47-1.47.96,0,1.44.49,1.44,1.47,0,1-.48,1.5-1.44,1.5ZM1541.039,238.88c-.88,0-1.319-.45-1.319-1.35,0-.88.439-1.32,1.319-1.32s1.32.44,1.32,1.32c0,.899-.44,1.35-1.32,1.35ZM1542.959,242.45c-.979,0-1.47-.5-1.47-1.5,0-.979.49-1.47,1.47-1.47.961,0,1.44.49,1.44,1.47,0,1-.479,1.5-1.44,1.5Z" fill="#5f616e"/><path d="M1556.22,258.29v-2.43h1.98c1.96,0,2.939-1,2.939-3v-6.21l2.58-1.38v7.68c0,1.7-.51,3.04-1.529,4.02-.94.881-2.171,1.32-3.69,1.32h-2.28ZM1558.53,241.64c-.98,0-1.47-.499-1.47-1.5,0-.979.489-1.47,1.47-1.47.96,0,1.439.49,1.439,1.47,0,1.001-.479,1.5-1.439,1.5ZM1562.34,241.64c-.979,0-1.47-.499-1.47-1.5,0-.979.49-1.47,1.47-1.47.96,0,1.44.49,1.44,1.47,0,1.001-.48,1.5-1.44,1.5Z" fill="#5f616e"/><path d="M1574.01,267.74v-6.54c0-1.7.49-3.02,1.471-3.96.88-.86,2.1-1.32,3.66-1.38-.9-1.021-1.351-2.44-1.351-4.261,0-2.18.57-3.88,1.71-5.1,1.021-1.08,2.359-1.62,4.021-1.62,1.699,0,3.01.53,3.93,1.59.819.94,1.229,2.171,1.229,3.69v3.24c-.02,1.5-.49,2.68-1.409,3.54-.921.859-2.19,1.31-3.811,1.35h-3.93c-1.96,0-2.94,1-2.94,3v5.07l-2.58,1.38ZM1586.101,250.28c0-2-.86-3-2.58-3-1.001,0-1.775.375-2.325,1.125-.551.75-.825,1.795-.825,3.135,0,1.36.26,2.42.78,3.18.52.761,1.249,1.141,2.189,1.141,1.84,0,2.761-.931,2.761-2.79v-2.79Z" fill="#5f616e"/><path d="M1601.16,257.33c-.761.3-1.69.45-2.79.45-1.78,0-3.18-.67-4.2-2.01-.86-1.141-1.29-2.57-1.29-4.29,0-2.12.57-3.78,1.71-4.98,1.021-1.08,2.36-1.62,4.021-1.62,1.699,0,3.01.53,3.93,1.59.82.94,1.23,2.171,1.23,3.69v6.54c0,2.26-.591,4.05-1.771,5.37-1.12,1.239-2.61,1.859-4.47,1.859-1.24,0-2.41-.29-3.51-.87v-2.279c1.06.56,2.109.84,3.149.84,1.18,0,2.12-.375,2.82-1.125.699-.75,1.09-1.806,1.17-3.165ZM1601.16,250.28c0-2-.851-3-2.55-3-1.001,0-1.785.37-2.355,1.109-.569.74-.854,1.751-.854,3.03,0,1.26.274,2.265.824,3.015.551.75,1.295,1.125,2.235,1.125,1.32,0,2.22-.369,2.7-1.109v-4.17Z" fill="#5f616e"/><path d="M1606.47,258.29l1.26-2.43h5.341c.799,0,1.364-.2,1.694-.601.33-.399.495-1.09.495-2.069,0-2.66-1.229-4.66-3.689-6l1.319-2.221c3.14,1.841,4.78,4.38,4.92,7.62.04,1.16.305,1.995.795,2.505.49.511,1.275.766,2.355.766h1.77v2.43h-1.979c-1.66,0-2.96-.529-3.9-1.59-.66,1.061-1.77,1.59-3.33,1.59h-7.05Z" fill="#5f616e"/><path d="M1631.37,255.86h1.979v2.43h-2.279c-1.66,0-2.971-.529-3.931-1.59-.96,1.061-2.27,1.59-3.93,1.59h-2.28v-2.43h1.98c1.96,0,2.939-1,2.939-3v-6.21l2.58-1.38v7.59c0,2,.98,3,2.94,3ZM1624.2,261.29c.96,0,1.439.5,1.439,1.5,0,.979-.479,1.47-1.439,1.47-.98,0-1.47-.49-1.47-1.47,0-1,.489-1.5,1.47-1.5ZM1628.01,261.29c.96,0,1.44.5,1.44,1.5,0,.979-.48,1.47-1.44,1.47-.979,0-1.47-.49-1.47-1.47,0-1,.49-1.5,1.47-1.5Z" fill="#5f616e"/><path d="M1631.55,258.29v-2.43h5.4c-.92-1.021-1.38-2.44-1.38-4.261,0-2.18.57-3.88,1.71-5.1,1-1.08,2.33-1.62,3.99-1.62,1.699,0,3.02.53,3.96,1.59.8.94,1.2,2.171,1.2,3.69v2.85c-.021,1.66-.511,2.971-1.471,3.931-.94.899-2.189,1.35-3.75,1.35h-9.66ZM1639.38,241.85c-.979,0-1.47-.499-1.47-1.5,0-.979.49-1.47,1.47-1.47.96,0,1.44.49,1.44,1.47,0,1.001-.48,1.5-1.44,1.5ZM1643.851,250.28c0-2-.86-3-2.58-3-.98,0-1.751.375-2.311,1.125s-.84,1.795-.84,3.135c0,1.32.271,2.37.811,3.15.539.779,1.26,1.17,2.159,1.17,1.84,0,2.761-.96,2.761-2.88v-2.7ZM1643.19,241.85c-.98,0-1.471-.499-1.471-1.5,0-.979.49-1.47,1.471-1.47.96,0,1.439.49,1.439,1.47,0,1.001-.479,1.5-1.439,1.5Z" fill="#5f616e"/><rect x="653.668" y="311.847" width="275.082" height="96.307" rx="17.932" ry="17.932" fill="#fff" stroke="#6664fb" stroke-miterlimit="10" stroke-width="2.5"/><path d="M727.849,351.667l3.736-1.973v13.719c0,1.812-.568,3.228-1.704,4.243-.977.877-2.242,1.315-3.796,1.315h-10.669c-1.694,0-3.019-.567-3.975-1.703-.857-.996-1.285-2.281-1.285-3.855v-3.049l3.736-1.973v4.782c0,.797.165,1.359.493,1.688s.872.493,1.629.493h9.743c.757,0,1.295-.169,1.614-.508s.479-.897.479-1.674v-11.507ZM721.662,354.028c1.435.239,2.152,1.086,2.152,2.54,0,1.634-.787,2.451-2.361,2.451h-4.423l.926-1.733h3.318c.538,0,.807-.27.807-.808,0-.677-.448-1.016-1.345-1.016-.598,0-1.156.159-1.674.478v-1.494l2.57-2.839h2.182l-2.152,2.421Z" fill="#6664fb"/><path d="M744.466,365.355h2.69v3.616h-3.048c-.678,0-1.305-.09-1.883-.269-.259,1.912-1.027,3.427-2.301,4.542-1.156.996-2.541,1.495-4.155,1.495-1.255,0-2.48-.319-3.676-.957v-3.287c1.036.577,2.052.866,3.048.866,1.096,0,1.947-.354,2.555-1.061.608-.708.912-1.688.912-2.944v-9.684l2.451-1.285,1.285-.687v.029l.03-.029v7.501c0,.777.159,1.33.478,1.659.318.329.856.493,1.614.493Z" fill="#6664fb"/><path d="M764.849,365.355h2.511v3.616h-2.541c-1.574,0-2.834-.174-3.781-.523-.947-.348-1.828-.961-2.645-1.838-2.491,1.574-5.36,2.361-8.607,2.361h-4.423v-3.616h4.453c3.506,0,6.296-1.046,8.368-3.139-1.355-2.37-2.999-3.557-4.931-3.557-1.594,0-3.337.867-5.23,2.601v-3.317c1.674-1.833,3.566-2.75,5.679-2.75,1.554,0,3.068.568,4.543,1.704,1.474,1.136,2.779,2.749,3.915,4.842v1.494c-.319.418-.737.887-1.255,1.404.797.479,2.112.718,3.945.718ZM756.57,371.691c.598,0,1.071.174,1.42.523.348.348.523.821.523,1.419,0,1.335-.648,2.003-1.943,2.003-.598,0-1.076-.18-1.435-.538-.358-.358-.538-.848-.538-1.465,0-.578.18-1.046.538-1.404.359-.358.837-.538,1.435-.538Z" fill="#6664fb"/><path d="M776.207,365.355h2.69v3.616h-3.048c-1.455,0-2.66-.389-3.617-1.166-.956.777-2.162,1.166-3.616,1.166h-3.048v-3.616h2.69c.757,0,1.295-.164,1.614-.493.318-.329.478-.882.478-1.659v-5.529l3.766-1.972v7.501c0,.777.159,1.33.478,1.659.318.329.856.493,1.614.493ZM768.406,353.071c-.598,0-1.076-.179-1.435-.537-.359-.359-.538-.847-.538-1.465,0-.578.179-1.046.538-1.405.358-.358.836-.537,1.435-.537s1.071.174,1.419.522c.348.349.523.822.523,1.42,0,1.335-.647,2.002-1.942,2.002ZM772.979,353.071c-.598,0-1.076-.184-1.435-.553-.359-.368-.538-.852-.538-1.449,0-.578.184-1.046.553-1.405.369-.358.842-.537,1.42-.537.598,0,1.071.174,1.419.522.348.349.523.822.523,1.42,0,1.335-.647,2.002-1.942,2.002Z" fill="#6664fb"/><path d="M781.885,360.723c0-1.793.558-3.198,1.674-4.214.976-.877,2.231-1.315,3.766-1.315,1.973,0,3.507.728,4.603,2.182.937,1.216,1.405,2.78,1.405,4.692,0,2.212-.588,3.956-1.763,5.23-1.056,1.116-2.401,1.674-4.035,1.674-1.594,0-2.899-.349-3.916-1.046-.956.697-2.112,1.046-3.467,1.046h-3.048v-3.616h2.69c.757,0,1.295-.164,1.614-.493.318-.329.478-.882.478-1.659v-2.48ZM785.651,363.682c0,1.116.587,1.674,1.763,1.674,1.474,0,2.211-1.136,2.211-3.407,0-2.172-.767-3.258-2.301-3.258-1.116,0-1.673.657-1.673,1.973v3.019Z" fill="#6664fb"/><path d="M823.458,368.972c-.239,1.833-1.275,3.268-3.108,4.304-1.654.916-3.716,1.375-6.187,1.375-3.308,0-5.798-.946-7.472-2.84-1.236-1.415-1.853-3.147-1.853-5.2,0-1.573.368-2.948,1.105-4.124l3.586-.747c-.797,1.354-1.195,2.779-1.195,4.273,0,1.674.498,2.959,1.495,3.855.996.916,2.44,1.375,4.333,1.375,2.949,0,4.742-.758,5.379-2.271h-2.869l1.883-3.616h4.991v3.616h-.09ZM806.213,358.84l.927-1.733h.896c-.219-.398-.329-.807-.329-1.226,0-.638.234-1.19.702-1.658.468-.468,1.031-.703,1.688-.703.618,0,1.186.22,1.704.658v1.703c-.478-.418-.956-.627-1.435-.627-.677,0-1.016.299-1.016.896,0,.299.129.617.389.956h2.959l-.927,1.733h-5.559Z" fill="#6664fb"/><path d="M822.024,368.972v-3.616h3.168c.757,0,1.3-.164,1.629-.493.329-.329.493-.882.493-1.659v-3.944l3.766-1.973v5.917c0,.777.159,1.33.478,1.659s.856.493,1.614.493h2.032c.757,0,1.295-.164,1.614-.493.318-.329.479-.882.479-1.659v-4.722l3.766-2.003v6.725c0,.777.165,1.33.493,1.659s.871.493,1.629.493h2.032c.757,0,1.295-.164,1.614-.493s.479-.882.479-1.659v-5.529l3.766-1.972v7.023c0,.956.194,1.634.583,2.032.388.398,1.041.598,1.958.598h2.75v3.616h-2.959c-1.673,0-3.019-.479-4.035-1.435-.896.937-2.103,1.415-3.616,1.435h-2.959c-1.475,0-2.68-.438-3.616-1.315-.857.857-1.993,1.296-3.407,1.315h-2.959c-1.475,0-2.68-.438-3.616-1.315-.937.877-2.142,1.315-3.616,1.315h-3.557ZM836.729,353.071c-.598,0-1.076-.179-1.435-.537-.359-.359-.538-.847-.538-1.465,0-.578.179-1.046.538-1.405.358-.358.836-.537,1.435-.537s1.071.174,1.419.522c.348.349.523.822.523,1.42,0,1.335-.647,2.002-1.942,2.002ZM839,348.679c-1.195,0-1.793-.608-1.793-1.823,0-1.176.598-1.764,1.793-1.764,1.176,0,1.764.588,1.764,1.764,0,1.215-.588,1.823-1.764,1.823ZM841.331,353.071c-.598,0-1.076-.179-1.435-.537-.359-.359-.538-.847-.538-1.465,0-.578.179-1.046.538-1.405.358-.358.837-.537,1.435-.537s1.071.174,1.419.522.523.822.523,1.42c0,1.335-.647,2.002-1.942,2.002Z" fill="#6664fb"/><path d="M854.571,368.972v-3.616h2.69c.757,0,1.295-.164,1.614-.493.318-.329.478-.882.478-1.659v-5.529l3.766-1.972v7.681c0,1.813-.558,3.228-1.674,4.244-.977.896-2.252,1.345-3.826,1.345h-3.048ZM861.325,352.684c-.598,0-1.076-.18-1.435-.538-.359-.359-.538-.847-.538-1.465,0-.578.179-1.046.538-1.404.358-.359.837-.538,1.435-.538s1.071.175,1.419.522c.349.35.523.822.523,1.42,0,1.335-.648,2.003-1.943,2.003Z" fill="#6664fb"/><path d="M867.363,348.021l.957-1.733h.896c-.22-.398-.329-.807-.329-1.226,0-.637.234-1.185.702-1.644.468-.458,1.031-.688,1.688-.688.598,0,1.155.209,1.674.628v1.733c-.478-.418-.957-.628-1.435-.628-.658,0-.986.299-.986.896,0,.299.129.608.389.927h2.958l-.956,1.733h-5.559ZM868.499,368.972v-17.274l3.766-2.003v19.277h-3.766Z" fill="#6664fb"/><path d="M991.25,389.302v-58.604c0-9.863,7.105-17.932,15.79-17.932h243.503c8.684,0,15.79,8.07,15.79,17.932v58.604c0,9.863-7.105,17.932-15.79,17.932h-243.503c-8.684,0-15.79-8.07-15.79-17.932Z" fill="#6664fb"/><path d="M1044.584,366.14c0,2.392-.827,4.294-2.48,5.709-1.475,1.255-3.357,1.883-5.648,1.883-2.69,0-4.772-.946-6.247-2.84-1.155-1.475-1.733-3.207-1.733-5.2,0-1.573.369-2.948,1.106-4.124l3.586-.747c-.797,1.354-1.195,2.779-1.195,4.273,0,1.515.429,2.74,1.285,3.677.816.896,1.883,1.345,3.198,1.345,1.375,0,2.445-.349,3.213-1.046.767-.698,1.15-1.674,1.15-2.93v-9.385l3.766-1.972v11.356ZM1036.306,355.111c-.598,0-1.076-.179-1.435-.538-.359-.358-.538-.847-.538-1.464,0-.578.179-1.046.538-1.405s.837-.538,1.435-.538,1.07.175,1.419.523.523.822.523,1.42c0,1.335-.647,2.002-1.942,2.002Z" fill="#fff"/><path d="M1061.471,350.778l3.766-2.003v13.061c0,1.934-.588,3.478-1.763,4.633-1.097,1.057-2.541,1.584-4.334,1.584h-11.268l1.883-3.616h3.945v-9.773l3.766-2.002v11.775h1.465c.916,0,1.569-.199,1.957-.598.389-.398.583-1.076.583-2.032v-11.028ZM1059.558,349.672c-.916,1.136-1.822,1.704-2.72,1.704-.418,0-1.065-.249-1.942-.747-.498-.279-.866-.419-1.105-.419h-.03c-.358,0-.837.349-1.435,1.046l-1.285-1.136c.896-1.155,1.793-1.733,2.69-1.733.438,0,1.105.25,2.002.747.479.279.847.419,1.105.419.339,0,.827-.349,1.465-1.046l1.255,1.165Z" fill="#fff"/><path d="M1070.586,368.053v-17.274l3.767-2.003v19.277h-3.767Z" fill="#fff"/><path d="M1104.598,350.748l3.736-1.973v13.719c0,1.812-.568,3.228-1.704,4.243-.977.877-2.241,1.315-3.795,1.315h-10.67c-1.694,0-3.019-.567-3.976-1.703-.856-.996-1.285-2.281-1.285-3.855v-3.049l3.736-1.973v4.782c0,.797.164,1.359.493,1.688s.871.493,1.629.493h9.743c.757,0,1.295-.169,1.614-.508.318-.339.478-.897.478-1.674v-11.507ZM1098.411,353.109c1.435.239,2.152,1.086,2.152,2.54,0,1.634-.788,2.451-2.361,2.451h-4.424l.927-1.733h3.317c.538,0,.808-.27.808-.808,0-.677-.448-1.016-1.346-1.016-.598,0-1.155.159-1.673.478v-1.494l2.57-2.839h2.182l-2.152,2.421Z" fill="#fff"/><path d="M1121.215,364.437h2.69v3.616h-3.049c-.678,0-1.306-.09-1.883-.269-.26,1.912-1.026,3.427-2.302,4.542-1.155.996-2.54,1.495-4.154,1.495-1.255,0-2.48-.319-3.676-.957v-3.287c1.036.577,2.053.866,3.049.866,1.095,0,1.947-.354,2.555-1.061.607-.708.912-1.688.912-2.944v-9.684l2.45-1.285,1.285-.687v.029l.03-.029v7.501c0,.777.159,1.33.479,1.659.318.329.856.493,1.613.493Z" fill="#fff"/><path d="M1141.598,364.437h2.511v3.616h-2.541c-1.574,0-2.834-.174-3.78-.523-.946-.348-1.828-.961-2.646-1.838-2.49,1.574-5.359,2.361-8.607,2.361h-4.423v-3.616h4.453c3.507,0,6.296-1.046,8.368-3.139-1.355-2.37-2.999-3.557-4.932-3.557-1.594,0-3.337.867-5.229,2.601v-3.317c1.674-1.833,3.566-2.75,5.679-2.75,1.554,0,3.067.568,4.542,1.704s2.78,2.749,3.916,4.842v1.494c-.319.418-.737.887-1.256,1.404.797.479,2.112.718,3.945.718ZM1133.319,370.772c.598,0,1.07.174,1.419.523.349.348.523.821.523,1.419,0,1.335-.647,2.003-1.942,2.003-.599,0-1.076-.18-1.435-.538-.359-.358-.538-.848-.538-1.465,0-.578.179-1.046.538-1.404.358-.358.836-.538,1.435-.538Z" fill="#fff"/><path d="M1152.955,364.437h2.689v3.616h-3.048c-1.455,0-2.66-.389-3.616-1.166-.957.777-2.162,1.166-3.616,1.166h-3.049v-3.616h2.689c.757,0,1.295-.164,1.614-.493.318-.329.479-.882.479-1.659v-5.529l3.766-1.972v7.501c0,.777.159,1.33.478,1.659.319.329.856.493,1.614.493ZM1145.154,352.152c-.598,0-1.075-.179-1.435-.537-.358-.359-.538-.847-.538-1.465,0-.578.18-1.046.538-1.405.359-.358.837-.537,1.435-.537s1.071.174,1.42.522.523.822.523,1.42c0,1.335-.648,2.002-1.943,2.002ZM1149.728,352.152c-.598,0-1.076-.184-1.435-.553-.358-.368-.538-.852-.538-1.449,0-.578.184-1.046.553-1.405.368-.358.842-.537,1.42-.537.598,0,1.07.174,1.42.522.348.349.522.822.522,1.42,0,1.335-.647,2.002-1.942,2.002Z" fill="#fff"/><path d="M1158.634,359.804c0-1.793.558-3.198,1.673-4.214.977-.877,2.231-1.315,3.767-1.315,1.973,0,3.506.728,4.603,2.182.936,1.216,1.404,2.78,1.404,4.692,0,2.212-.588,3.956-1.764,5.23-1.056,1.116-2.4,1.674-4.034,1.674-1.595,0-2.899-.349-3.915-1.046-.957.697-2.112,1.046-3.467,1.046h-3.049v-3.616h2.689c.757,0,1.295-.164,1.614-.493.318-.329.479-.882.479-1.659v-2.48ZM1162.399,362.763c0,1.116.587,1.674,1.763,1.674,1.475,0,2.212-1.136,2.212-3.407,0-2.172-.768-3.258-2.301-3.258-1.116,0-1.674.657-1.674,1.973v3.019Z" fill="#fff"/><path d="M1187.564,366.2c0,2.311-.638,4.184-1.912,5.618-1.177,1.335-2.73,2.003-4.663,2.003-1.255,0-2.48-.319-3.676-.957v-3.287c1.036.577,2.053.866,3.049.866,1.095,0,1.947-.354,2.555-1.061.607-.708.912-1.688.912-2.944v-9.653l3.735-2.002v11.417Z" fill="#fff"/><path d="M1199.341,346.026l2.122-1.166v3.078c0,.678-.244,1.236-.732,1.674-.488.438-1.111.657-1.868.657-.617,0-1.136-.139-1.554-.418-.438.279-.946.418-1.524.418-.758,0-1.375-.219-1.853-.657-.479-.438-.718-.996-.718-1.674v-1.285l2.092-1.165v2.331c0,.279.169.418.509.418.318,0,.478-.129.478-.389v-1.523l2.093-1.166v2.689c0,.26.159.389.478.389s.479-.139.479-.418v-1.793Z" fill="#fff"/><path d="M1207.142,364.437v3.616h-3.677c-.14,1.793-.937,3.228-2.391,4.304-1.195.877-2.591,1.315-4.185,1.315-1.255,0-2.48-.34-3.676-1.017v-3.258c1.076.617,2.151.927,3.228.927.837,0,1.579-.229,2.227-.688.647-.459,1.001-1.006,1.062-1.644-.16-.02-.409-.04-.747-.06-.34-.04-.599-.07-.777-.09-2.053-.22-3.637-1.026-4.752-2.421-.938-1.176-1.405-2.601-1.405-4.274,0-2.191.598-3.925,1.794-5.2,1.056-1.115,2.45-1.674,4.184-1.674,1.773,0,3.158.568,4.154,1.704.856.977,1.285,2.252,1.285,3.825v4.633h3.677ZM1199.729,359.744c0-1.315-.568-1.973-1.704-1.973-1.515,0-2.271,1.086-2.271,3.258,0,1.933.877,3.009,2.63,3.228.279.06.728.11,1.346.149v-4.662Z" fill="#fff"/><path d="M1214.792,357.413c2.052-2.093,4.394-3.139,7.023-3.139,2.371,0,4.254.817,5.648,2.451,1.195,1.375,1.793,3.078,1.793,5.11v.718c0,1.873-.537,3.298-1.613,4.273-.896.817-2.092,1.226-3.587,1.226h-18.709v-3.616h5.35c.079-.279.189-.588.329-.927v-12.731l3.766-2.003v8.638ZM1225.521,362.404v-.568c0-1.195-.344-2.171-1.031-2.929-.688-.757-1.569-1.136-2.645-1.136-1.396,0-2.716.514-3.961,1.539-1.245,1.026-2.276,2.446-3.093,4.259v.867h9.115c.658,0,1.091-.13,1.301-.389.209-.259.313-.807.313-1.644Z" fill="#fff"/></svg>