<?xml version="1.0" encoding="UTF-8"?><svg id="Layer_1" xmlns="http://www.w3.org/2000/svg" viewBox="0 0 1080 1350"><rect width="1080" height="1350" fill="#fff"/><rect x="50" y="207.364" width="980" height="280" fill="none"/><path d="M224.883,240.562h7.524v9.24h-7.392c-1.584,0-3.146-.241-4.686-.726-1.145,4.312-3.542,7.677-7.194,10.098-3.256,2.155-7.062,3.234-11.418,3.234-6.468,0-11.462-2.091-14.982-6.271-2.685-3.257-4.026-7.084-4.026-11.484,0-3.343.748-6.312,2.244-8.909l9.438-2.112c-1.672,2.816-2.508,6.028-2.508,9.636,0,3.08.868,5.501,2.607,7.26,1.738,1.76,4.147,2.641,7.227,2.641,2.992,0,5.356-.848,7.095-2.541,1.737-1.693,2.607-3.993,2.607-6.897v-31.416l9.636-5.082v29.502c0,1.409.286,2.399.858,2.971.571.572,1.561.857,2.97.857Z" fill="#14161a"/><path d="M252.537,240.562h6.402v9.24h-7.326c-3.08,0-5.632-.748-7.656-2.244-2.112,1.496-4.686,2.244-7.722,2.244h-7.392v-9.24h6.468c1.408,0,2.397-.285,2.97-.857.572-.571.858-1.562.858-2.971v-11.55l9.57-5.082v16.632c0,1.409.274,2.399.825,2.971.549.572,1.551.857,3.003.857ZM234.651,255.478c1.452,0,2.629.451,3.531,1.354s1.353,2.079,1.353,3.53c0,1.496-.452,2.695-1.353,3.598-.902.901-2.079,1.353-3.531,1.353-1.496,0-2.696-.462-3.597-1.386-.901-.924-1.353-2.112-1.353-3.564s.452-2.629,1.353-3.53c.901-.902,2.101-1.354,3.597-1.354ZM245.673,255.478c1.452,0,2.618.439,3.498,1.32.88.88,1.32,2.067,1.32,3.563s-.44,2.695-1.32,3.598c-.88.901-2.046,1.353-3.498,1.353-1.496,0-2.695-.462-3.597-1.386-.902-.924-1.353-2.112-1.353-3.564s.451-2.629,1.353-3.53c.901-.902,2.101-1.354,3.597-1.354Z" fill="#14161a"/><path d="M305.931,249.802h-18.744c-2.244,0-4.422-.352-6.534-1.056-2.112.704-4.29,1.056-6.534,1.056h-18.678v-9.24h13.596c-1.892-2.111-3.74-4.686-5.544-7.722v-3.498c2.023-3.124,4.608-5.643,7.755-7.557,3.146-1.914,6.28-2.871,9.405-2.871,3.036,0,6.148.979,9.339,2.937,3.189,1.959,5.818,4.5,7.887,7.623v3.366c-1.848,3.036-3.696,5.61-5.544,7.722h13.53l.066,9.24ZM288.044,231.189c-2.464-2.244-4.928-3.365-7.392-3.365-2.729,0-5.192,1.1-7.392,3.3,2.508,3.828,4.972,6.38,7.392,7.655,2.463-1.319,4.927-3.85,7.392-7.59ZM280.586,214.162c-1.496,0-2.695-.451-3.597-1.354-.902-.901-1.353-2.101-1.353-3.597s.451-2.684,1.353-3.564c.901-.879,2.101-1.319,3.597-1.319,1.452,0,2.618.44,3.498,1.319.88.881,1.32,2.069,1.32,3.564s-.44,2.695-1.32,3.597c-.88.902-2.046,1.354-3.498,1.354Z" fill="#14161a"/><path d="M302.433,249.802v-9.24h7.392c1.408,0,2.386-.274,2.937-.825.55-.549.825-1.551.825-3.003v-8.447l9.57-5.082v13.529c0,1.409.274,2.399.825,2.971.55.572,1.551.857,3.003.857h5.082c1.408,0,2.397-.285,2.97-.857.572-.571.858-1.562.858-2.971v-10.031l9.57-5.017v15.048c0,1.452.274,2.454.825,3.003.549.551,1.528.825,2.937.825h5.214c1.408,0,2.386-.274,2.937-.825.55-.549.825-1.551.825-3.003v-11.55l9.636-5.082v15.246c0,1.937.352,3.29,1.056,4.06.703.77,1.98,1.154,3.828,1.154h6.204v9.24h-6.666c-3.476,0-6.38-.924-8.712-2.772-1.98,1.717-4.554,2.641-7.722,2.772h-7.458c-3.036,0-5.61-.813-7.722-2.442-1.937,1.497-4.313,2.311-7.128,2.442h-7.458c-3.036,0-5.61-.813-7.722-2.442-2.069,1.629-4.62,2.442-7.656,2.442h-8.25ZM334.971,214.624c-1.452,0-2.629-.462-3.531-1.387-.902-.924-1.353-2.133-1.353-3.63,0-1.452.451-2.628,1.353-3.53s2.079-1.354,3.531-1.354,2.629.452,3.531,1.354c.901.902,1.353,2.078,1.353,3.53,0,1.541-.452,2.762-1.353,3.663s-2.079,1.354-3.531,1.354ZM340.449,203.932c-1.364,0-2.453-.406-3.267-1.221-.814-.813-1.221-1.903-1.221-3.268,0-2.947,1.495-4.422,4.488-4.422,2.947,0,4.422,1.475,4.422,4.422,0,1.364-.407,2.454-1.221,3.268-.815.814-1.881,1.221-3.201,1.221ZM345.993,214.624c-1.452,0-2.629-.462-3.531-1.387-.902-.924-1.353-2.133-1.353-3.63,0-1.452.451-2.628,1.353-3.53s2.079-1.354,3.531-1.354,2.629.452,3.531,1.354c.901.902,1.353,2.078,1.353,3.53,0,1.541-.452,2.762-1.353,3.663s-2.079,1.354-3.531,1.354Z" fill="#14161a"/><path d="M399.123,240.562h6.402v9.24h-7.326c-3.08,0-5.632-.748-7.656-2.244-2.112,1.496-4.686,2.244-7.722,2.244h-7.392v-9.24h6.468c1.408,0,2.397-.285,2.97-.857.572-.571.858-1.562.858-2.971v-11.55l9.57-5.082v16.632c0,1.409.274,2.399.825,2.971.549.572,1.551.857,3.003.857ZM380.907,215.284c-1.496,0-2.695-.463-3.597-1.387s-1.353-2.134-1.353-3.63c0-1.452.452-2.629,1.353-3.531.901-.901,2.101-1.353,3.597-1.353,1.452,0,2.618.44,3.498,1.32.88.88,1.32,2.068,1.32,3.563,0,1.541-.44,2.762-1.32,3.663-.88.902-2.046,1.354-3.498,1.354ZM391.929,215.284c-1.496,0-2.695-.463-3.597-1.387-.902-.924-1.353-2.134-1.353-3.63,0-1.452.451-2.629,1.353-3.531s2.101-1.353,3.597-1.353c1.452,0,2.618.44,3.498,1.32.88.88,1.32,2.068,1.32,3.563,0,1.541-.44,2.762-1.32,3.663-.88.902-2.046,1.354-3.498,1.354Z" fill="#14161a"/><path d="M402.027,249.802v-9.24h4.29c1.848,0,3.135-.385,3.861-1.154s1.089-2.123,1.089-4.06v-23.034l9.57-5.082v28.183c0,4.487-1.364,8.052-4.092,10.691-2.508,2.465-5.831,3.696-9.966,3.696h-4.752Z" fill="#14161a"/><path d="M432.717,249.802v-37.488l9.57-5.082v42.57h-9.57Z" fill="#14161a"/><path d="M511.191,249.802c-.617,4.136-3.036,7.326-7.26,9.57-3.652,1.979-8.207,2.97-13.662,2.97-7.524,0-13.157-2.135-16.896-6.402-2.816-3.168-4.224-7.062-4.224-11.682,0-3.344.769-6.313,2.31-8.91l9.108-1.914c-1.628,2.904-2.442,5.984-2.442,9.24,0,7.304,4.047,10.956,12.144,10.956,5.719,0,9.349-1.276,10.89-3.828h-6.204l4.752-9.24h11.682v9.24h-.198Z" fill="#14161a"/><path d="M508.221,249.802v-9.24h4.29c1.848,0,3.135-.385,3.861-1.154s1.089-2.123,1.089-4.06v-23.034l9.57-5.082v28.183c0,4.487-1.364,8.052-4.092,10.691-2.508,2.465-5.831,3.696-9.966,3.696h-4.752Z" fill="#14161a"/><path d="M536.271,268.611l2.31-4.29h2.046c-.484-.924-.726-1.87-.726-2.838,0-1.451.538-2.706,1.617-3.762,1.078-1.056,2.365-1.584,3.861-1.584s2.838.528,4.026,1.584v4.224c-1.145-1.013-2.244-1.518-3.3-1.518-1.452,0-2.178.594-2.178,1.782,0,.66.286,1.363.858,2.111h6.732l-2.31,4.29h-12.936ZM538.911,249.802v-37.488l9.57-5.082v42.57h-9.57Z" fill="#14161a"/><path d="M573.033,254.355v-9.239c1.495-.968,3.3-1.76,5.412-2.376-1.188-2.288-1.782-4.84-1.782-7.656,0-5.104,1.562-8.977,4.686-11.616,2.287-1.936,5.06-2.947,8.316-3.036h.396c4.003,0,7.392,1.519,10.164,4.554v8.778c-3.432-3.036-6.512-4.554-9.24-4.554h-.462c-2.904.309-4.356,2.178-4.356,5.609,0,2.509.814,4.665,2.442,6.469l2.772-.198c4.795-.396,8.932-1.782,12.408-4.158v8.712c-3.74,2.772-8.844,4.158-15.312,4.158-6.029,0-11.177,1.518-15.444,4.554Z" fill="#14161a"/><path d="M625.503,249.802c-4.049,0-7.217-1.297-9.504-3.894-1.98-2.288-2.97-5.215-2.97-8.778v-24.816l9.57-5.082v29.502c0,1.409.286,2.399.858,2.971.571.572,1.561.857,2.97.857h6.468v9.24h-7.392Z" fill="#14161a"/><path d="M629.331,249.802v-9.24h7.392c1.408,0,2.386-.274,2.937-.825.55-.549.825-1.551.825-3.003v-8.447l9.57-5.082v13.529c0,1.409.274,2.399.825,2.971.55.572,1.551.857,3.003.857h5.082c1.408,0,2.397-.285,2.97-.857.572-.571.858-1.562.858-2.971v-10.031l9.57-5.017v15.048c0,1.452.274,2.454.825,3.003.549.551,1.528.825,2.937.825h5.214c1.408,0,2.386-.274,2.937-.825.55-.549.825-1.551.825-3.003v-11.55l9.636-5.082v15.246c0,1.937.352,3.29,1.056,4.06.703.77,1.98,1.154,3.828,1.154h6.204v9.24h-6.666c-3.476,0-6.38-.924-8.712-2.772-1.98,1.717-4.554,2.641-7.722,2.772h-7.458c-3.036,0-5.61-.813-7.722-2.442-1.937,1.497-4.313,2.311-7.128,2.442h-7.458c-3.036,0-5.61-.813-7.722-2.442-2.069,1.629-4.62,2.442-7.656,2.442h-8.25ZM661.869,214.624c-1.452,0-2.629-.462-3.531-1.387-.902-.924-1.353-2.133-1.353-3.63,0-1.452.451-2.628,1.353-3.53s2.079-1.354,3.531-1.354,2.629.452,3.531,1.354c.901.902,1.353,2.078,1.353,3.53,0,1.541-.452,2.762-1.353,3.663s-2.079,1.354-3.531,1.354ZM667.347,203.932c-1.364,0-2.453-.406-3.267-1.221-.814-.813-1.221-1.903-1.221-3.268,0-2.947,1.495-4.422,4.488-4.422,2.947,0,4.422,1.475,4.422,4.422,0,1.364-.407,2.454-1.221,3.268-.815.814-1.881,1.221-3.201,1.221ZM672.891,214.624c-1.452,0-2.629-.462-3.531-1.387-.902-.924-1.353-2.133-1.353-3.63,0-1.452.451-2.628,1.353-3.53s2.079-1.354,3.531-1.354,2.629.452,3.531,1.354c.901.902,1.353,2.078,1.353,3.53,0,1.541-.452,2.762-1.353,3.663s-2.079,1.354-3.531,1.354Z" fill="#14161a"/><path d="M702.327,249.802v-9.24h6.468c1.408,0,2.397-.285,2.97-.857.572-.571.858-1.562.858-2.971v-11.55l9.57-5.082v17.028c0,4.092-1.277,7.305-3.828,9.636-2.244,2.024-5.126,3.036-8.646,3.036h-7.392ZM717.771,214.162c-1.497,0-2.696-.451-3.597-1.354-.902-.901-1.353-2.101-1.353-3.597s.451-2.684,1.353-3.564c.901-.879,2.101-1.319,3.597-1.319,1.452,0,2.617.44,3.498,1.319.879.881,1.32,2.069,1.32,3.564s-.44,2.695-1.32,3.597c-.881.902-2.046,1.354-3.498,1.354Z" fill="#14161a"/><path d="M759.879,212.313l9.636-5.082v28.183c0,4.444-1.364,8.009-4.092,10.691-2.552,2.465-5.874,3.696-9.966,3.696h-26.004l4.818-9.24h8.316v-19.668l9.57-5.082v24.75h2.838c1.804,0,3.069-.385,3.795-1.154.726-.77,1.089-2.123,1.089-4.06v-23.034ZM752.751,258.514c-1.145-1.013-2.244-1.518-3.3-1.518-1.452,0-2.178.594-2.178,1.781,0,.66.286,1.363.858,2.112h6.732l-2.31,4.29h-12.936l2.31-4.29h2.046c-.484-.924-.726-1.87-.726-2.838,0-1.452.539-2.706,1.617-3.762,1.078-1.057,2.365-1.584,3.861-1.584s2.838.527,4.026,1.584v4.224Z" fill="#14161a"/><path d="M781.395,249.802v-37.488l9.57-5.082v42.57h-9.57Z" fill="#14161a"/><path d="M857.889,240.562h6.468v9.24h-7.392c-1.056,0-2.178-.109-3.366-.33-.924,4.136-3.125,7.369-6.6,9.702-3.125,2.112-6.864,3.168-11.22,3.168-6.072,0-10.758-2.135-14.058-6.402-2.597-3.3-3.894-7.193-3.894-11.682,0-3.344.769-6.313,2.31-8.91l9.108-1.914c-1.628,2.904-2.442,5.984-2.442,9.24,0,3.125.825,5.643,2.475,7.557,1.65,1.914,3.817,2.871,6.501,2.871,5.808,0,8.712-2.618,8.712-7.854v-20.064l9.57-5.082v16.632c0,1.409.286,2.399.858,2.971.571.572,1.562.857,2.97.857ZM835.251,221.422c-1.496,0-2.696-.451-3.597-1.354-.902-.901-1.353-2.101-1.353-3.597s.45-2.684,1.353-3.563c.901-.88,2.101-1.32,3.597-1.32,1.452,0,2.617.44,3.498,1.32.88.88,1.32,2.068,1.32,3.563s-.44,2.695-1.32,3.597c-.881.902-2.046,1.354-3.498,1.354Z" fill="#14161a"/><path d="M871.089,231.388c0-4.048,1.254-7.216,3.762-9.504,2.2-1.98,5.06-2.97,8.58-2.97,4.444,0,7.897,1.628,10.362,4.884,2.112,2.771,3.168,6.293,3.168,10.56,0,4.885-1.343,8.757-4.026,11.616-2.333,2.553-5.346,3.828-9.042,3.828-3.476,0-6.292-.66-8.448-1.98-1.98,1.32-4.4,1.98-7.26,1.98h-7.392v-9.24h6.468c1.408,0,2.397-.285,2.97-.857.572-.571.858-1.562.858-2.971v-5.346ZM880.659,237.987c0,1.717.924,2.574,2.772,2.574,2.728,0,4.092-2.178,4.092-6.534,0-4.092-1.365-6.138-4.092-6.138-1.848,0-2.772,1.079-2.772,3.234v6.863Z" fill="#14161a"/><path d="M401.532,319.762h6.468v9.24h-7.392c-1.013,0-2.068-.109-3.168-.33-1.013,5.764-3.851,9.724-8.514,11.88-1.848.88-3.851,1.32-6.006,1.32-2.904,0-5.742-.771-8.514-2.311v-8.315c2.288,1.275,4.51,1.914,6.666,1.914,1.099,0,2.112-.177,3.036-.528,2.684-.924,4.026-3.389,4.026-7.392v-20.856l9.57-5.082v.066l.066-.066v17.754c.22,1.805,1.474,2.706,3.762,2.706Z" fill="#14161a"/><path d="M407.868,344.512c-1.496,0-2.694-.462-3.597-1.386-.901-.924-1.353-2.135-1.353-3.63,0-1.452.452-2.618,1.353-3.498.902-.881,2.101-1.32,3.597-1.32,1.452,0,2.617.439,3.498,1.32s1.32,2.046,1.32,3.498c0,1.539-.44,2.761-1.32,3.663-.881.901-2.046,1.353-3.498,1.353ZM404.436,329.002v-9.24h6.468c1.408,0,2.397-.285,2.97-.857.572-.571.858-1.562.858-2.971v-11.55l9.57-5.082v17.028c0,4.092-1.277,7.305-3.828,9.636-2.201,2.024-5.082,3.036-8.646,3.036h-7.392ZM418.824,344.512c-1.452,0-2.63-.462-3.531-1.386-.902-.924-1.353-2.135-1.353-3.63,0-1.452.451-2.618,1.353-3.498.901-.881,2.079-1.32,3.531-1.32s2.629.439,3.531,1.32c.901.88,1.353,2.046,1.353,3.498,0,1.539-.44,2.761-1.32,3.663-.88.901-2.069,1.353-3.564,1.353Z" fill="#14161a"/><path d="M468.522,329.002h-7.854c-.308,3.96-2.068,7.128-5.28,9.504-2.64,1.98-5.742,2.97-9.306,2.97-2.86,0-5.742-.814-8.646-2.441v-8.382c2.64,1.495,5.148,2.243,7.524,2.243,1.496,0,2.86-.418,4.092-1.254,1.231-.836,1.936-1.805,2.112-2.903-.968-.044-2.135-.154-3.498-.33-4.4-.571-7.854-2.42-10.362-5.544-2.069-2.641-3.102-5.742-3.102-9.307,0-4.927,1.363-8.8,4.092-11.615,2.419-2.552,5.632-3.828,9.636-3.828,4.224,0,7.501,1.276,9.834,3.828,1.98,2.2,2.97,5.082,2.97,8.646v9.174h7.788v9.24ZM451.164,310.654c0-2.376-1.079-3.564-3.234-3.564-2.861,0-4.29,2.046-4.29,6.138,0,4.269,2.508,6.402,7.524,6.402v-8.976Z" fill="#14161a"/><path d="M525.744,319.762v9.24h-6.27c-2.904,0-5.435-.726-7.59-2.178-1.98,1.452-4.466,2.178-7.458,2.178h-39.468v-9.24h10.296v-28.248l9.57-5.082v17.887c4.444-4.136,9.438-6.204,14.982-6.204,5.28,0,9.526,1.848,12.738,5.544,2.683,3.124,4.026,6.93,4.026,11.418v1.254c0,2.288,1.275,3.432,3.828,3.432h5.346ZM504.096,319.762c1.231,0,2.023-.22,2.376-.66.352-.438.528-1.474.528-3.102v-.924c0-2.376-.66-4.301-1.98-5.775-1.32-1.474-3.036-2.211-5.148-2.211-2.993,0-5.831,1.134-8.514,3.399-2.685,2.267-4.862,5.357-6.534,9.272h19.272Z" fill="#14161a"/><path d="M545.874,319.762h6.402v9.24h-7.326c-3.08,0-5.632-.748-7.656-2.244-2.112,1.496-4.686,2.244-7.722,2.244h-7.392v-9.24h6.468c1.408,0,2.397-.285,2.97-.857.572-.571.858-1.562.858-2.971v-11.55l9.57-5.082v16.632c0,1.409.274,2.399.825,2.971.549.572,1.551.857,3.003.857ZM527.658,294.484c-1.496,0-2.695-.463-3.597-1.387s-1.353-2.134-1.353-3.63c0-1.452.452-2.629,1.353-3.531.901-.901,2.101-1.353,3.597-1.353,1.452,0,2.618.44,3.498,1.32.88.88,1.32,2.068,1.32,3.563,0,1.541-.44,2.762-1.32,3.663-.88.902-2.046,1.354-3.498,1.354ZM538.68,294.484c-1.496,0-2.695-.463-3.597-1.387-.902-.924-1.353-2.134-1.353-3.63,0-1.452.451-2.629,1.353-3.531s2.101-1.353,3.597-1.353c1.452,0,2.618.44,3.498,1.32.88.88,1.32,2.068,1.32,3.563,0,1.541-.44,2.762-1.32,3.663-.88.902-2.046,1.354-3.498,1.354Z" fill="#14161a"/><path d="M548.778,329.002v-9.24h4.29c1.848,0,3.135-.385,3.861-1.154s1.089-2.123,1.089-4.06v-23.034l9.57-5.082v28.183c0,4.487-1.364,8.052-4.092,10.691-2.508,2.465-5.831,3.696-9.966,3.696h-4.752Z" fill="#14161a"/><path d="M579.468,329.002v-37.488l9.57-5.082v42.57h-9.57Z" fill="#14161a"/><path d="M657.942,329.002c-.617,4.136-3.036,7.326-7.26,9.57-3.652,1.979-8.207,2.97-13.662,2.97-7.524,0-13.157-2.135-16.896-6.402-2.816-3.168-4.224-7.062-4.224-11.682,0-3.344.769-6.313,2.31-8.91l9.108-1.914c-1.628,2.904-2.442,5.984-2.442,9.24,0,7.304,4.047,10.956,12.144,10.956,5.719,0,9.349-1.276,10.89-3.828h-6.204l4.752-9.24h11.682v9.24h-.198Z" fill="#14161a"/><path d="M654.972,329.002v-9.24h4.29c1.848,0,3.135-.385,3.861-1.154s1.089-2.123,1.089-4.06v-23.034l9.57-5.082v28.183c0,4.487-1.364,8.052-4.092,10.691-2.508,2.465-5.831,3.696-9.966,3.696h-4.752Z" fill="#14161a"/><path d="M683.022,347.812l2.31-4.29h2.046c-.484-.924-.726-1.87-.726-2.838,0-1.451.538-2.706,1.617-3.762,1.078-1.056,2.365-1.584,3.861-1.584s2.838.528,4.026,1.584v4.224c-1.145-1.013-2.244-1.518-3.3-1.518-1.452,0-2.178.594-2.178,1.782,0,.66.286,1.363.858,2.111h6.732l-2.31,4.29h-12.936ZM685.662,329.002v-37.488l9.57-5.082v42.57h-9.57Z" fill="#14161a"/><rect x="90" y="508.78" width="900" height="300" fill="none"/><path d="M128.589,526.138c1.209,0,1.836.627,1.881,1.881,0,.616-.193,1.128-.578,1.535-.385.407-.886.61-1.501.61-1.364,0-2.046-.836-2.046-2.508v-4.257l1.386-.396.033,3.135h.825Z" fill="#5f616e"/><path d="M148.455,527.326h2.178v2.673h-2.508c-2.266,0-3.894-.836-4.884-2.508-1.056,1.012-2.365,1.518-3.927,1.518-1.936,0-3.476-.726-4.62-2.178-.946-1.231-1.419-2.739-1.419-4.521,0-2.133.648-3.85,1.947-5.147,1.1-1.122,2.442-1.683,4.026-1.683,1.21,0,2.255.308,3.135.924v-1.419l2.871-1.519v10.561c0,2.2,1.066,3.3,3.201,3.3ZM142.383,519.472c-.814-.901-1.815-1.353-3.003-1.353-.969,0-1.761.391-2.376,1.171-.616.781-.924,1.799-.924,3.053,0,1.276.308,2.3.924,3.069.615.771,1.419,1.155,2.409,1.155,1.232,0,2.244-.506,3.036-1.519-.044-.396-.066-.704-.066-.924v-4.653Z" fill="#5f616e"/><path d="M159.906,527.326h2.178v2.673h-2.508c-1.893,0-3.355-.604-4.389-1.815-1.1,1.211-2.618,1.815-4.554,1.815h-1.98v-2.673h1.749c2.288,0,3.432-1.199,3.432-3.597v-13.497l2.871-1.519v15.048c0,1.276.248,2.189.743,2.739.495.55,1.314.825,2.458.825Z" fill="#5f616e"/><path d="M171.588,527.326h2.178v2.673h-2.508c-1.826,0-3.267-.583-4.323-1.749-1.056,1.166-2.497,1.749-4.323,1.749h-2.508v-2.673h2.178c2.156,0,3.234-1.1,3.234-3.3v-6.831l2.838-1.519v8.35c0,2.2,1.078,3.3,3.234,3.3ZM163.701,533.299c1.056,0,1.584.55,1.584,1.65,0,1.077-.528,1.617-1.584,1.617-1.078,0-1.617-.54-1.617-1.617,0-1.101.539-1.65,1.617-1.65ZM167.892,533.299c1.056,0,1.584.55,1.584,1.65,0,1.077-.528,1.617-1.584,1.617-1.078,0-1.617-.54-1.617-1.617,0-1.101.539-1.65,1.617-1.65Z" fill="#5f616e"/><path d="M188.088,527.326h8.712v2.673h-8.976c-1.188,0-2.365-.231-3.531-.693-1.167.462-2.354.693-3.564.693h-8.943v-2.673h9.174c-1.584-1.298-3.212-3.201-4.884-5.709v-1.452c1.056-1.518,2.315-2.717,3.779-3.597,1.463-.88,2.931-1.32,4.405-1.32s2.948.445,4.422,1.337c1.474.891,2.75,2.106,3.828,3.646v1.386c-1.672,2.508-3.311,4.411-4.917,5.709h.495ZM178.716,520.924c2.024,2.772,3.883,4.599,5.577,5.479,1.694-.902,3.553-2.739,5.577-5.512-1.65-2.001-3.521-3.014-5.61-3.035-2.09,0-3.938,1.022-5.544,3.068ZM184.227,511.684c-1.078,0-1.617-.549-1.617-1.649,0-1.078.539-1.617,1.617-1.617,1.056,0,1.584.539,1.584,1.617,0,1.101-.528,1.649-1.584,1.649Z" fill="#5f616e"/><path d="M194.819,529.999v-2.673h2.97c2.134,0,3.201-1.1,3.201-3.3v-4.62l2.838-1.519v6.139c0,2.2,1.078,3.3,3.234,3.3h1.518c2.156,0,3.234-1.1,3.234-3.3v-5.742l2.838-1.485v7.228c0,2.2,1.067,3.3,3.201,3.3h1.551c2.156,0,3.234-1.1,3.234-3.3v-6.831l2.838-1.519v8.053c0,2.397,1.144,3.597,3.432,3.597h2.739v2.673h-2.97c-1.98,0-3.487-.671-4.521-2.013-.924,1.319-2.365,1.991-4.323,2.013h-2.277c-1.936,0-3.377-.648-4.323-1.947-.946,1.276-2.354,1.926-4.224,1.947h-2.277c-1.892,0-3.333-.648-4.323-1.947-.946,1.299-2.387,1.947-4.323,1.947h-3.267ZM210.891,512.575c-1.078,0-1.617-.55-1.617-1.65,0-1.077.539-1.617,1.617-1.617,1.056,0,1.584.54,1.584,1.617,0,1.101-.528,1.65-1.584,1.65ZM212.97,508.648c-.968,0-1.452-.495-1.452-1.485,0-.968.484-1.452,1.452-1.452s1.452.484,1.452,1.452c0,.99-.484,1.485-1.452,1.485ZM215.082,512.575c-1.078,0-1.617-.55-1.617-1.65,0-1.077.539-1.617,1.617-1.617,1.056,0,1.584.54,1.584,1.617,0,1.101-.528,1.65-1.584,1.65Z" fill="#5f616e"/><path d="M229.667,529.999v-2.673h2.178c2.156,0,3.234-1.1,3.234-3.3v-6.831l2.838-1.519v8.448c0,1.87-.561,3.345-1.683,4.422-1.035.969-2.388,1.452-4.059,1.452h-2.508ZM232.208,511.684c-1.078,0-1.617-.549-1.617-1.649,0-1.078.539-1.617,1.617-1.617,1.056,0,1.584.539,1.584,1.617,0,1.101-.528,1.649-1.584,1.649ZM236.4,511.684c-1.078,0-1.617-.549-1.617-1.649,0-1.078.539-1.617,1.617-1.617,1.056,0,1.584.539,1.584,1.617,0,1.101-.528,1.649-1.584,1.649Z" fill="#5f616e"/><path d="M277.814,527.326h1.518v2.673h-1.848c-1.848,0-3.29-.572-4.323-1.716-1.034,1.144-2.475,1.716-4.323,1.716h-11.781c-1.782,0-3.179-.594-4.191-1.782-.88-1.033-1.32-2.387-1.32-4.059v-3.993l2.838-1.518v5.246c0,2.289,1.067,3.433,3.201,3.433h10.956c2.134,0,3.201-1.144,3.201-3.433v-6.698l2.838-1.519v8.35c0,2.2,1.078,3.3,3.234,3.3ZM261.875,533.299c1.056,0,1.584.539,1.584,1.617,0,1.1-.528,1.65-1.584,1.65-1.078,0-1.617-.551-1.617-1.65,0-1.078.539-1.617,1.617-1.617Z" fill="#5f616e"/><path d="M284.217,499.804l1.584-.891v2.673c0,.616-.209,1.122-.627,1.518-.418.396-.957.595-1.617.595-.572,0-1.067-.154-1.485-.463-.418.309-.914.463-1.485.463-.66,0-1.205-.198-1.633-.595-.429-.396-.644-.901-.644-1.518v-1.023l1.617-.891v1.814c0,.44.219.66.66.66s.66-.187.66-.561v-1.452l1.617-.891v2.343c0,.374.231.561.693.561.44,0,.66-.22.66-.66v-1.683Z" fill="#5f616e"/><path d="M277.353,529.999v-2.673h2.178c2.156,0,3.234-1.1,3.234-3.3v-6.831l2.838-1.519v8.448c0,1.87-.561,3.345-1.683,4.422-1.035.969-2.388,1.452-4.059,1.452h-2.508ZM279.894,511.684c-1.078,0-1.617-.549-1.617-1.649,0-1.078.539-1.617,1.617-1.617,1.056,0,1.584.539,1.584,1.617,0,1.101-.528,1.649-1.584,1.649ZM284.085,511.684c-1.078,0-1.617-.549-1.617-1.649,0-1.078.539-1.617,1.617-1.617,1.056,0,1.584.539,1.584,1.617,0,1.101-.528,1.649-1.584,1.649Z" fill="#5f616e"/><path d="M299.628,527.326h2.178v2.673h-2.508c-1.122,0-2.09-.22-2.904-.66-.198,2.178-.957,3.916-2.277,5.214-1.21,1.188-2.728,1.782-4.554,1.782-1.32,0-2.607-.33-3.861-.99v-2.475c1.122.615,2.244.924,3.366.924,1.408,0,2.508-.474,3.3-1.419.792-.946,1.188-2.255,1.188-3.927v-11.253l2.838-1.519v.033l.033-.033v9.009c.198,1.761,1.265,2.641,3.201,2.641Z" fill="#5f616e"/><path d="M299.826,529.999v-2.673h2.178c2.156,0,3.234-1.1,3.234-3.3v-6.831l2.838-1.519v8.448c0,1.87-.561,3.345-1.683,4.422-1.035.969-2.388,1.452-4.059,1.452h-2.508ZM306.558,511.684c-1.078,0-1.617-.549-1.617-1.649,0-1.078.539-1.617,1.617-1.617,1.056,0,1.584.539,1.584,1.617,0,1.101-.528,1.649-1.584,1.649Z" fill="#5f616e"/><path d="M323.124,526.138c1.209,0,1.836.627,1.881,1.881,0,.616-.193,1.128-.578,1.535-.385.407-.886.61-1.501.61-1.364,0-2.046-.836-2.046-2.508v-4.257l1.386-.396.033,3.135h.825Z" fill="#5f616e"/><path d="M349.953,510.232l2.871-1.519v15.444c0,1.914-.583,3.398-1.749,4.455-1.034.924-2.365,1.386-3.993,1.386h-11.781c-1.782,0-3.179-.594-4.191-1.782-.88-1.033-1.32-2.387-1.32-4.059v-3.993l2.838-1.518v5.246c0,2.289,1.067,3.433,3.201,3.433h10.956c2.112,0,3.168-1.144,3.168-3.433v-13.661ZM341.472,513.928c1.892.089,2.838,1.023,2.838,2.806,0,.77-.226,1.386-.677,1.848-.451.462-1.051.693-1.798.693h-4.356l.759-1.419h3.465c.792,0,1.188-.396,1.188-1.188,0-.968-.616-1.452-1.848-1.452-.639,0-1.221.154-1.749.462v-1.319l2.772-3.069h1.749l-2.343,2.64Z" fill="#5f616e"/><path d="M366.849,527.326h2.178v2.673h-2.508c-1.122,0-2.09-.22-2.904-.66-.198,2.178-.957,3.916-2.277,5.214-1.21,1.188-2.728,1.782-4.554,1.782-1.32,0-2.607-.33-3.861-.99v-2.475c1.122.615,2.244.924,3.366.924,1.408,0,2.508-.474,3.3-1.419.792-.946,1.188-2.255,1.188-3.927v-11.253l2.838-1.519v.033l.033-.033v9.009c.198,1.761,1.265,2.641,3.201,2.641Z" fill="#5f616e"/><path d="M388.562,527.326h2.145v2.673h-2.178c-1.782,0-3.212-.203-4.29-.61-1.078-.407-2.079-1.127-3.003-2.162-2.772,1.849-6.006,2.772-9.702,2.772h-4.488v-2.673h4.521c4.466,0,7.997-1.474,10.593-4.422-1.826-3.366-4.048-5.049-6.666-5.049-1.782,0-3.619.945-5.511,2.838v-2.641c1.848-1.869,3.806-2.805,5.874-2.805,1.694,0,3.333.61,4.917,1.831,1.584,1.222,2.981,2.965,4.191,5.23v1.452c-.682.858-1.332,1.552-1.947,2.079,1.188.99,3.036,1.485,5.544,1.485ZM377.771,533.299c1.056,0,1.584.539,1.584,1.617,0,1.1-.528,1.65-1.584,1.65-1.078,0-1.617-.551-1.617-1.65,0-1.078.539-1.617,1.617-1.617Z" fill="#5f616e"/><path d="M400.212,527.326h2.178v2.673h-2.508c-1.826,0-3.267-.583-4.323-1.749-1.056,1.166-2.497,1.749-4.323,1.749h-2.508v-2.673h2.178c2.156,0,3.234-1.1,3.234-3.3v-6.831l2.838-1.519v8.35c0,2.2,1.078,3.3,3.234,3.3ZM392.424,511.915c-1.078,0-1.617-.55-1.617-1.65,0-1.077.539-1.616,1.617-1.616,1.056,0,1.584.539,1.584,1.616,0,1.101-.528,1.65-1.584,1.65ZM396.648,511.915c-1.078,0-1.617-.55-1.617-1.65,0-1.077.539-1.616,1.617-1.616,1.056,0,1.584.539,1.584,1.616,0,1.101-.528,1.65-1.584,1.65Z" fill="#5f616e"/><path d="M405.822,521.056c0-1.914.572-3.398,1.716-4.455,1.011-.901,2.332-1.353,3.96-1.353,2.09,0,3.696.771,4.818,2.31.968,1.299,1.452,2.992,1.452,5.082,0,2.376-.616,4.235-1.848,5.577-1.078,1.188-2.486,1.782-4.224,1.782-1.98,0-3.487-.55-4.521-1.65-1.056,1.101-2.475,1.65-4.257,1.65h-2.508v-2.673h2.178c2.156,0,3.234-1.1,3.234-3.3v-2.971ZM408.66,524.257c0,2.046,1.001,3.069,3.003,3.069,1.034,0,1.842-.418,2.425-1.254.583-.836.875-2.002.875-3.498,0-1.474-.308-2.624-.924-3.448-.616-.825-1.463-1.238-2.541-1.238-1.893,0-2.838,1.101-2.838,3.301v3.068Z" fill="#5f616e"/><path d="M449.943,529.999c-.22,1.936-1.276,3.486-3.168,4.653-1.76,1.077-4.004,1.616-6.732,1.616-3.476,0-6.094-1.012-7.854-3.035-1.298-1.497-1.947-3.344-1.947-5.544,0-1.849.462-3.433,1.386-4.752l2.739-.595c-.99,1.562-1.485,3.245-1.485,5.049,0,1.959.638,3.498,1.914,4.62,1.254,1.122,3.003,1.684,5.247,1.684,1.892,0,3.454-.33,4.686-.99,1.232-.66,1.98-1.562,2.244-2.706h-3.3l1.386-2.673h4.983v2.673h-.099ZM437.832,542.11c-1.078,0-1.617-.551-1.617-1.65,0-1.078.539-1.617,1.617-1.617,1.056,0,1.584.539,1.584,1.617,0,1.1-.528,1.65-1.584,1.65ZM442.022,542.11c-1.078,0-1.617-.551-1.617-1.65,0-1.078.539-1.617,1.617-1.617,1.056,0,1.584.539,1.584,1.617,0,1.1-.528,1.65-1.584,1.65Z" fill="#5f616e"/><path d="M459.777,527.326h2.178v2.673h-2.508c-1.826,0-3.267-.583-4.323-1.749-1.056,1.166-2.497,1.749-4.323,1.749h-2.508v-2.673h2.178c2.156,0,3.234-1.1,3.234-3.3v-6.831l2.838-1.519v8.35c0,2.2,1.078,3.3,3.234,3.3ZM454.562,511.684c-1.078,0-1.617-.549-1.617-1.649,0-1.078.539-1.617,1.617-1.617,1.056,0,1.584.539,1.584,1.617,0,1.101-.528,1.649-1.584,1.649Z" fill="#5f616e"/><path d="M471.459,527.326h2.178v2.673h-2.508c-1.826,0-3.267-.583-4.323-1.749-1.056,1.166-2.497,1.749-4.323,1.749h-2.508v-2.673h2.178c2.156,0,3.234-1.1,3.234-3.3v-6.831l2.838-1.519v8.35c0,2.2,1.078,3.3,3.234,3.3ZM466.608,533.299c1.056,0,1.584.539,1.584,1.617,0,1.1-.528,1.65-1.584,1.65-1.078,0-1.617-.551-1.617-1.65,0-1.078.539-1.617,1.617-1.617Z" fill="#5f616e"/><path d="M471.657,529.999v-2.673h2.178c2.156,0,3.234-1.1,3.234-3.3v-6.831l2.838-1.519v8.448c0,1.87-.561,3.345-1.683,4.422-1.035.969-2.388,1.452-4.059,1.452h-2.508ZM478.389,511.684c-1.078,0-1.617-.549-1.617-1.649,0-1.078.539-1.617,1.617-1.617,1.056,0,1.584.539,1.584,1.617,0,1.101-.528,1.649-1.584,1.649Z" fill="#5f616e"/><path d="M493.569,520.495v-.066c.044-1.1.627-1.649,1.749-1.649,1.166,0,1.749.572,1.749,1.716,0,1.166-.583,1.749-1.749,1.749s-1.749-.583-1.749-1.749ZM493.569,528.415v-.066c.044-1.1.627-1.649,1.749-1.649,1.166,0,1.749.572,1.749,1.716,0,1.166-.583,1.749-1.749,1.749s-1.749-.583-1.749-1.749Z" fill="#5f616e"/><path d="M514.854,527.326h2.178v2.673h-2.508c-2.266,0-3.894-.836-4.884-2.508-1.056,1.012-2.365,1.518-3.927,1.518-1.936,0-3.476-.726-4.62-2.178-.946-1.231-1.419-2.739-1.419-4.521,0-2.133.648-3.85,1.947-5.147,1.1-1.122,2.442-1.683,4.026-1.683,1.21,0,2.255.308,3.135.924v-1.419l2.871-1.519v10.561c0,2.2,1.066,3.3,3.201,3.3ZM508.782,519.472c-.814-.901-1.815-1.353-3.003-1.353-.969,0-1.761.391-2.376,1.171-.616.781-.924,1.799-.924,3.053,0,1.276.308,2.3.924,3.069.615.771,1.419,1.155,2.409,1.155,1.232,0,2.244-.506,3.036-1.519-.044-.396-.066-.704-.066-.924v-4.653ZM504.524,511.354c-1.078,0-1.617-.55-1.617-1.65,0-1.078.539-1.617,1.617-1.617,1.056,0,1.584.539,1.584,1.617,0,1.101-.528,1.65-1.584,1.65ZM508.716,511.354c-1.079,0-1.617-.55-1.617-1.65,0-1.078.539-1.617,1.617-1.617,1.056,0,1.584.539,1.584,1.617,0,1.101-.528,1.65-1.584,1.65Z" fill="#5f616e"/><path d="M526.305,527.326h2.178v2.673h-2.508c-1.893,0-3.355-.604-4.389-1.815-1.1,1.211-2.618,1.815-4.554,1.815h-1.98v-2.673h1.749c2.288,0,3.432-1.199,3.432-3.597v-13.497l2.871-1.519v15.048c0,1.276.248,2.189.743,2.739.495.55,1.314.825,2.458.825Z" fill="#5f616e"/><path d="M526.502,529.999v-2.673h4.521c4.466,0,7.997-1.474,10.593-4.422-1.826-3.366-4.048-5.049-6.666-5.049-1.782,0-3.619.945-5.511,2.838v-2.641c1.848-1.869,3.806-2.805,5.874-2.805,1.694,0,3.333.61,4.917,1.831,1.584,1.222,2.981,2.965,4.191,5.23v1.452c-3.234,4.158-7.711,6.237-13.431,6.237h-4.488Z" fill="#5f616e"/><path d="M558.117,527.326h2.178v2.673h-2.508c-1.122,0-2.09-.22-2.904-.66-.198,2.178-.957,3.916-2.277,5.214-1.21,1.188-2.728,1.782-4.554,1.782-1.32,0-2.607-.33-3.861-.99v-2.475c1.122.615,2.244.924,3.366.924,1.408,0,2.508-.474,3.3-1.419.792-.946,1.188-2.255,1.188-3.927v-11.253l2.838-1.519v.033l.033-.033v9.009c.198,1.761,1.265,2.641,3.201,2.641Z" fill="#5f616e"/><path d="M563.727,521.056c0-1.914.572-3.398,1.716-4.455,1.011-.901,2.332-1.353,3.96-1.353,2.09,0,3.696.771,4.818,2.31.968,1.299,1.452,2.992,1.452,5.082,0,2.376-.616,4.235-1.848,5.577-1.078,1.188-2.486,1.782-4.224,1.782-1.98,0-3.487-.55-4.521-1.65-1.056,1.101-2.475,1.65-4.257,1.65h-2.508v-2.673h2.178c2.156,0,3.234-1.1,3.234-3.3v-2.971ZM566.564,524.257c0,2.046,1.001,3.069,3.003,3.069,1.034,0,1.842-.418,2.425-1.254.583-.836.875-2.002.875-3.498,0-1.474-.308-2.624-.924-3.448-.616-.825-1.463-1.238-2.541-1.238-1.893,0-2.838,1.101-2.838,3.301v3.068Z" fill="#5f616e"/><path d="M609.135,527.326h2.178v2.673h-2.508c-1.188,0-2.255-.264-3.201-.792-.309,2.266-1.332,4.048-3.069,5.346-1.541,1.144-3.443,1.716-5.709,1.716-2.948,0-5.225-.989-6.831-2.97-1.232-1.54-1.848-3.377-1.848-5.511,0-1.87.451-3.465,1.353-4.785l2.838-.627c-1.012,1.562-1.518,3.267-1.518,5.115,0,1.826.583,3.321,1.749,4.488,1.078,1.077,2.497,1.616,4.257,1.616,2.002,0,3.542-.594,4.62-1.781.924-1.013,1.386-2.311,1.386-3.895v-17.688l2.871-1.519v15.312c0,2.2,1.144,3.3,3.432,3.3Z" fill="#5f616e"/><path d="M615.834,516.04h.198c2.486,0,4.499.771,6.039,2.31,1.408,1.387,2.112,3.157,2.112,5.313v.561c0,1.893-.583,3.366-1.749,4.423-1.034.902-2.365,1.353-3.993,1.353h-9.108v-2.673h8.844c2.112,0,3.168-1.11,3.168-3.333v-.297c0-1.628-.638-2.882-1.914-3.763-1.012-.682-2.244-1.022-3.696-1.022-1.167,0-2.343.209-3.531.627v-2.805l7.227-8.02h2.904l-6.501,7.326Z" fill="#5f616e"/><path d="M655.863,529.999c-.22,1.936-1.276,3.486-3.168,4.653-1.76,1.077-4.004,1.616-6.732,1.616-3.476,0-6.094-1.012-7.854-3.035-1.298-1.497-1.947-3.344-1.947-5.544,0-1.849.462-3.433,1.386-4.752l2.739-.595c-.99,1.562-1.485,3.245-1.485,5.049,0,1.959.638,3.498,1.914,4.62,1.254,1.122,3.003,1.684,5.247,1.684,1.892,0,3.454-.33,4.686-.99,1.232-.66,1.98-1.562,2.244-2.706h-3.3l1.386-2.673h4.983v2.673h-.099ZM643.751,542.11c-1.078,0-1.617-.551-1.617-1.65,0-1.078.539-1.617,1.617-1.617,1.056,0,1.584.539,1.584,1.617,0,1.1-.528,1.65-1.584,1.65ZM647.942,542.11c-1.078,0-1.617-.551-1.617-1.65,0-1.078.539-1.617,1.617-1.617,1.056,0,1.584.539,1.584,1.617,0,1.1-.528,1.65-1.584,1.65Z" fill="#5f616e"/><path d="M654.212,529.999v-2.673h5.94c-1.012-1.122-1.518-2.684-1.518-4.687,0-2.397.627-4.268,1.881-5.609,1.1-1.188,2.562-1.782,4.389-1.782,1.87,0,3.321.583,4.356,1.749.879,1.034,1.32,2.388,1.32,4.059v3.136c-.022,1.826-.561,3.267-1.617,4.322-1.035.99-2.409,1.485-4.125,1.485h-10.626ZM667.743,521.188c0-2.2-.946-3.301-2.838-3.301-1.078,0-1.925.413-2.541,1.238-.616.824-.924,1.975-.924,3.448,0,1.452.297,2.606.891,3.465.594.858,1.386,1.287,2.376,1.287,2.024,0,3.036-1.056,3.036-3.168v-2.97ZM664.971,511.882c-1.078,0-1.617-.55-1.617-1.649,0-1.078.539-1.617,1.617-1.617,1.056,0,1.584.539,1.584,1.617,0,1.1-.528,1.649-1.584,1.649Z" fill="#5f616e"/><path d="M710.115,527.326h2.178v2.673h-2.508c-1.848,0-3.278-.572-4.29-1.716-1.078,1.144-2.52,1.716-4.323,1.716h-11.781c-1.782,0-3.179-.594-4.191-1.782-.88-1.033-1.32-2.387-1.32-4.059v-3.993l2.838-1.518v5.246c0,2.289,1.067,3.433,3.201,3.433h10.956c2.112,0,3.168-1.144,3.168-3.433v-13.661l2.871-1.519v15.312c0,2.2,1.067,3.3,3.201,3.3ZM695.562,513.928c1.892.089,2.838,1.023,2.838,2.806,0,.77-.226,1.386-.677,1.848-.451.462-1.051.693-1.798.693h-4.356l.759-1.419h3.465c.792,0,1.188-.396,1.188-1.188,0-.968-.616-1.452-1.848-1.452-.639,0-1.221.154-1.749.462v-1.319l2.772-3.069h1.749l-2.343,2.64Z" fill="#5f616e"/><path d="M726.615,527.326h8.712v2.673h-8.976c-1.188,0-2.365-.231-3.531-.693-1.167.462-2.354.693-3.564.693h-8.943v-2.673h9.174c-1.584-1.298-3.212-3.201-4.884-5.709v-1.452c1.056-1.518,2.315-2.717,3.779-3.597,1.463-.88,2.931-1.32,4.405-1.32s2.948.445,4.422,1.337c1.474.891,2.75,2.106,3.828,3.646v1.386c-1.672,2.508-3.311,4.411-4.917,5.709h.495ZM717.243,520.924c2.024,2.772,3.883,4.599,5.577,5.479,1.694-.902,3.553-2.739,5.577-5.512-1.65-2.001-3.521-3.014-5.61-3.035-2.09,0-3.938,1.022-5.544,3.068Z" fill="#5f616e"/><path d="M738.759,521.056c0-1.914.572-3.398,1.716-4.455,1.011-.901,2.332-1.353,3.96-1.353,2.09,0,3.696.771,4.818,2.31.968,1.299,1.452,2.992,1.452,5.082,0,2.376-.616,4.235-1.848,5.577-1.078,1.188-2.486,1.782-4.224,1.782-1.98,0-3.487-.55-4.521-1.65-1.056,1.101-2.475,1.65-4.257,1.65h-2.508v-2.673h2.178c2.156,0,3.234-1.1,3.234-3.3v-2.971ZM741.597,524.257c0,2.046,1.001,3.069,3.003,3.069,1.034,0,1.842-.418,2.425-1.254.583-.836.875-2.002.875-3.498,0-1.474-.308-2.624-.924-3.448-.616-.825-1.463-1.238-2.541-1.238-1.893,0-2.838,1.101-2.838,3.301v3.068Z" fill="#5f616e"/><path d="M784.167,527.326h2.178v2.673h-2.508c-1.188,0-2.255-.264-3.201-.792-.309,2.266-1.332,4.048-3.069,5.346-1.541,1.144-3.443,1.716-5.709,1.716-2.948,0-5.225-.989-6.831-2.97-1.232-1.54-1.848-3.377-1.848-5.511,0-1.87.451-3.465,1.353-4.785l2.838-.627c-1.012,1.562-1.518,3.267-1.518,5.115,0,1.826.583,3.321,1.749,4.488,1.078,1.077,2.497,1.616,4.257,1.616,2.002,0,3.542-.594,4.62-1.781.924-1.013,1.386-2.311,1.386-3.895v-17.688l2.871-1.519v15.312c0,2.2,1.144,3.3,3.432,3.3Z" fill="#5f616e"/><path d="M800.667,527.326h8.712v2.673h-8.976c-1.188,0-2.365-.231-3.531-.693-1.167.462-2.354.693-3.564.693h-8.943v-2.673h9.174c-1.584-1.298-3.212-3.201-4.884-5.709v-1.452c1.056-1.518,2.315-2.717,3.779-3.597,1.463-.88,2.931-1.32,4.405-1.32s2.948.445,4.422,1.337c1.474.891,2.75,2.106,3.828,3.646v1.386c-1.672,2.508-3.311,4.411-4.917,5.709h.495ZM791.295,520.924c2.024,2.772,3.883,4.599,5.577,5.479,1.694-.902,3.553-2.739,5.577-5.512-1.65-2.001-3.521-3.014-5.61-3.035-2.09,0-3.938,1.022-5.544,3.068ZM796.806,511.684c-1.078,0-1.617-.549-1.617-1.649,0-1.078.539-1.617,1.617-1.617,1.056,0,1.584.539,1.584,1.617,0,1.101-.528,1.649-1.584,1.649Z" fill="#5f616e"/><path d="M818.883,527.326h2.178v2.673h-2.508c-1.826,0-3.267-.583-4.323-1.749-1.056,1.166-2.497,1.749-4.323,1.749h-2.508v-2.673h2.178c2.156,0,3.234-1.1,3.234-3.3v-6.831l2.838-1.519v8.35c0,2.2,1.078,3.3,3.234,3.3ZM811.095,511.915c-1.078,0-1.617-.55-1.617-1.65,0-1.077.539-1.616,1.617-1.616,1.056,0,1.584.539,1.584,1.616,0,1.101-.528,1.65-1.584,1.65ZM815.319,511.915c-1.078,0-1.617-.55-1.617-1.65,0-1.077.539-1.616,1.617-1.616,1.056,0,1.584.539,1.584,1.616,0,1.101-.528,1.65-1.584,1.65Z" fill="#5f616e"/><path d="M819.081,529.999v-2.673h2.97c2.134,0,3.201-1.1,3.201-3.3v-4.62l2.838-1.519v6.139c0,2.2,1.078,3.3,3.234,3.3h1.518c2.156,0,3.234-1.1,3.234-3.3v-5.742l2.838-1.485v7.228c0,2.2,1.067,3.3,3.201,3.3h1.551c2.156,0,3.234-1.1,3.234-3.3v-6.831l2.838-1.519v8.053c0,2.397,1.144,3.597,3.432,3.597h2.739v2.673h-2.97c-1.98,0-3.487-.671-4.521-2.013-.924,1.319-2.365,1.991-4.323,2.013h-2.277c-1.936,0-3.377-.648-4.323-1.947-.946,1.276-2.354,1.926-4.224,1.947h-2.277c-1.892,0-3.333-.648-4.323-1.947-.946,1.299-2.387,1.947-4.323,1.947h-3.267ZM835.152,512.575c-1.078,0-1.617-.55-1.617-1.65,0-1.077.539-1.617,1.617-1.617,1.056,0,1.584.54,1.584,1.617,0,1.101-.528,1.65-1.584,1.65ZM837.231,508.648c-.968,0-1.452-.495-1.452-1.485,0-.968.484-1.452,1.452-1.452s1.452.484,1.452,1.452c0,.99-.484,1.485-1.452,1.485ZM839.343,512.575c-1.078,0-1.617-.55-1.617-1.65,0-1.077.539-1.617,1.617-1.617,1.056,0,1.584.54,1.584,1.617,0,1.101-.528,1.65-1.584,1.65Z" fill="#5f616e"/><path d="M853.929,529.999v-2.673h2.178c2.156,0,3.234-1.1,3.234-3.3v-6.831l2.838-1.519v8.448c0,1.87-.561,3.345-1.683,4.422-1.035.969-2.388,1.452-4.059,1.452h-2.508ZM856.47,511.684c-1.078,0-1.617-.549-1.617-1.649,0-1.078.539-1.617,1.617-1.617,1.056,0,1.584.539,1.584,1.617,0,1.101-.528,1.649-1.584,1.649ZM860.661,511.684c-1.078,0-1.617-.549-1.617-1.649,0-1.078.539-1.617,1.617-1.617,1.056,0,1.584.539,1.584,1.617,0,1.101-.528,1.649-1.584,1.649Z" fill="#5f616e"/><path d="M873.498,540.394v-7.193c0-1.87.539-3.322,1.617-4.356.968-.945,2.31-1.452,4.026-1.518-.99-1.122-1.485-2.684-1.485-4.687,0-2.397.627-4.268,1.881-5.609,1.122-1.188,2.595-1.782,4.422-1.782,1.87,0,3.311.583,4.323,1.749.902,1.034,1.353,2.388,1.353,4.059v3.564c-.022,1.65-.539,2.948-1.551,3.894-1.012.946-2.409,1.441-4.191,1.485h-4.323c-2.156,0-3.234,1.1-3.234,3.3v5.577l-2.838,1.518ZM886.797,521.188c0-2.2-.946-3.301-2.838-3.301-1.101,0-1.953.413-2.558,1.238-.605.824-.908,1.975-.908,3.448,0,1.496.286,2.662.858,3.498.572.836,1.375,1.254,2.409,1.254,2.024,0,3.036-1.023,3.036-3.069v-3.068Z" fill="#5f616e"/><path d="M903.363,528.943c-.836.33-1.859.495-3.069.495-1.958,0-3.498-.737-4.62-2.212-.946-1.254-1.419-2.826-1.419-4.719,0-2.331.627-4.158,1.881-5.478,1.122-1.188,2.596-1.782,4.422-1.782,1.87,0,3.311.583,4.323,1.749.902,1.034,1.353,2.388,1.353,4.059v7.194c0,2.486-.649,4.455-1.947,5.907-1.232,1.363-2.871,2.046-4.917,2.046-1.365,0-2.651-.319-3.861-.957v-2.508c1.166.615,2.321.924,3.465.924,1.298,0,2.332-.412,3.102-1.237s1.199-1.986,1.287-3.481ZM903.363,521.188c0-2.2-.935-3.301-2.805-3.301-1.101,0-1.964.407-2.591,1.222-.627.813-.94,1.925-.94,3.333,0,1.386.302,2.491.908,3.316.604.825,1.424,1.237,2.458,1.237,1.452,0,2.442-.407,2.97-1.221v-4.587Z" fill="#5f616e"/><path d="M909.204,529.999l1.386-2.673h5.874c.88,0,1.501-.22,1.865-.66.363-.439.544-1.199.544-2.277,0-2.926-1.353-5.125-4.059-6.6l1.452-2.442c3.454,2.024,5.258,4.818,5.412,8.383.043,1.275.335,2.194.875,2.755.539.562,1.402.842,2.59.842h1.947v2.673h-2.178c-1.827,0-3.256-.583-4.29-1.749-.726,1.166-1.947,1.749-3.663,1.749h-7.755Z" fill="#5f616e"/><path d="M936.594,527.326h2.178v2.673h-2.508c-1.826,0-3.267-.583-4.323-1.749-1.056,1.166-2.497,1.749-4.323,1.749h-2.508v-2.673h2.178c2.156,0,3.234-1.1,3.234-3.3v-6.831l2.838-1.519v8.35c0,2.2,1.078,3.3,3.234,3.3ZM928.707,533.299c1.056,0,1.584.55,1.584,1.65,0,1.077-.528,1.617-1.584,1.617-1.078,0-1.617-.54-1.617-1.617,0-1.101.539-1.65,1.617-1.65ZM932.897,533.299c1.056,0,1.584.55,1.584,1.65,0,1.077-.528,1.617-1.584,1.617-1.078,0-1.617-.54-1.617-1.617,0-1.101.539-1.65,1.617-1.65Z" fill="#5f616e"/><path d="M936.792,529.999v-2.673h5.94c-1.012-1.122-1.518-2.684-1.518-4.687,0-2.397.627-4.268,1.881-5.609,1.1-1.188,2.562-1.782,4.389-1.782,1.87,0,3.321.583,4.356,1.749.879,1.034,1.32,2.388,1.32,4.059v3.136c-.022,1.826-.561,3.267-1.617,4.322-1.035.99-2.409,1.485-4.125,1.485h-10.626ZM945.405,511.915c-1.078,0-1.617-.55-1.617-1.65,0-1.077.539-1.616,1.617-1.616,1.056,0,1.584.539,1.584,1.616,0,1.101-.528,1.65-1.584,1.65ZM950.322,521.188c0-2.2-.946-3.301-2.838-3.301-1.078,0-1.925.413-2.541,1.238-.616.824-.924,1.975-.924,3.448,0,1.452.297,2.606.891,3.465.594.858,1.386,1.287,2.376,1.287,2.024,0,3.036-1.056,3.036-3.168v-2.97ZM949.596,511.915c-1.078,0-1.617-.55-1.617-1.65,0-1.077.539-1.616,1.617-1.616,1.056,0,1.584.539,1.584,1.616,0,1.101-.528,1.65-1.584,1.65Z" fill="#5f616e"/><path d="M204.934,568.015v-.066c.044-1.1.627-1.649,1.749-1.649,1.166,0,1.749.572,1.749,1.716,0,1.166-.583,1.749-1.749,1.749s-1.749-.583-1.749-1.749Z" fill="#5f616e"/><path d="M234.667,566.926h2.178v2.673h-2.508c-1.188,0-2.255-.264-3.201-.792-.309,2.266-1.332,4.048-3.069,5.346-1.541,1.144-3.443,1.716-5.709,1.716-2.948,0-5.225-.989-6.831-2.97-1.232-1.54-1.848-3.377-1.848-5.511,0-1.87.451-3.465,1.353-4.785l2.838-.627c-1.012,1.562-1.518,3.267-1.518,5.115,0,1.826.583,3.321,1.749,4.488,1.078,1.077,2.497,1.616,4.257,1.616,2.002,0,3.542-.594,4.62-1.781.924-1.013,1.386-2.311,1.386-3.895v-17.688l2.871-1.519v15.312c0,2.2,1.144,3.3,3.432,3.3Z" fill="#5f616e"/><path d="M268.657,566.926h2.178v2.673h-2.508c-1.848,0-3.29-.572-4.323-1.716-1.034,1.144-2.475,1.716-4.323,1.716h-13.662c-1.826,0-3.267-.583-4.323-1.749-1.056,1.166-2.497,1.749-4.323,1.749h-2.508v-2.673h2.178c2.156,0,3.234-1.1,3.234-3.3v-4.62l2.838-1.519v6.139c0,1.848.715,2.915,2.145,3.2.88-3.321,2.332-6.093,4.356-8.315,2.266-2.442,4.905-3.663,7.92-3.663,2.508,0,4.509.869,6.006,2.607,1.254,1.474,1.881,3.289,1.881,5.444v.792c0,2.156,1.078,3.234,3.234,3.234ZM259.517,566.926c2.046,0,3.069-1.144,3.069-3.433v-.594c0-1.716-.528-3.08-1.584-4.092-.924-.88-2.068-1.32-3.432-1.32-2.332,0-4.433,1.078-6.303,3.234-1.431,1.65-2.53,3.718-3.3,6.204h11.55ZM258.098,551.283c-1.078,0-1.617-.549-1.617-1.649,0-1.078.539-1.617,1.617-1.617,1.056,0,1.584.539,1.584,1.617,0,1.101-.528,1.649-1.584,1.649Z" fill="#5f616e"/><path d="M268.855,569.599v-2.673h5.94c-1.012-1.122-1.518-2.684-1.518-4.687,0-2.397.627-4.268,1.881-5.609,1.1-1.188,2.562-1.782,4.389-1.782,1.87,0,3.321.583,4.356,1.749.879,1.034,1.32,2.388,1.32,4.059v3.136c-.022,1.826-.561,3.267-1.617,4.322-1.035.99-2.409,1.485-4.125,1.485h-10.626ZM282.385,560.788c0-2.2-.946-3.301-2.838-3.301-1.078,0-1.925.413-2.541,1.238-.616.824-.924,1.975-.924,3.448,0,1.452.297,2.606.891,3.465.594.858,1.386,1.287,2.376,1.287,2.024,0,3.036-1.056,3.036-3.168v-2.97ZM279.613,551.481c-1.078,0-1.617-.55-1.617-1.649,0-1.078.539-1.617,1.617-1.617,1.056,0,1.584.539,1.584,1.617,0,1.1-.528,1.649-1.584,1.649Z" fill="#5f616e"/><path d="M289.084,547.852l.759-1.419h.891c-.22-.396-.33-.803-.33-1.221,0-.66.242-1.227.726-1.7.483-.473,1.056-.709,1.716-.709.55,0,1.078.176,1.584.528v1.451c-.484-.373-.946-.561-1.386-.561-.814,0-1.221.363-1.221,1.089,0,.374.154.748.462,1.122h3.003l-.759,1.419h-5.445ZM290.833,569.599v-18.447l2.838-1.518v19.965h-2.838Z" fill="#5f616e"/><path d="M327.628,566.926h2.178v2.673h-2.508c-1.188,0-2.255-.264-3.201-.792-.309,2.266-1.332,4.048-3.069,5.346-1.541,1.144-3.443,1.716-5.709,1.716-2.948,0-5.225-.989-6.831-2.97-1.232-1.54-1.848-3.377-1.848-5.511,0-1.87.451-3.465,1.353-4.785l2.838-.627c-1.012,1.562-1.518,3.267-1.518,5.115,0,1.826.583,3.321,1.749,4.488,1.078,1.077,2.497,1.616,4.257,1.616,2.002,0,3.542-.594,4.62-1.781.924-1.013,1.386-2.311,1.386-3.895v-17.688l2.871-1.519v15.312c0,2.2,1.144,3.3,3.432,3.3Z" fill="#5f616e"/><path d="M345.877,566.926h1.881v2.673h-2.178c-1.848,0-3.29-.572-4.323-1.716-1.034,1.144-2.475,1.716-4.323,1.716h-9.108v-2.673h8.844c2.112,0,3.168-1.11,3.168-3.333v-.297c0-1.65-.638-2.904-1.914-3.763-1.012-.703-2.255-1.056-3.729-1.056-1.166,0-2.332.221-3.498.66v-2.805l7.227-8.02h2.904l-6.501,7.326h.198c2.508,0,4.532.759,6.072,2.277,1.386,1.408,2.079,3.189,2.079,5.346v.363c0,2.2,1.067,3.3,3.201,3.3Z" fill="#5f616e"/><path d="M345.778,569.599v-2.673h2.97c2.134,0,3.201-1.1,3.201-3.3v-4.62l2.838-1.519v6.139c0,2.2,1.078,3.3,3.234,3.3h1.518c2.156,0,3.234-1.1,3.234-3.3v-5.742l2.838-1.485v7.228c0,2.2,1.067,3.3,3.201,3.3h1.551c2.156,0,3.234-1.1,3.234-3.3v-6.831l2.838-1.519v8.053c0,2.397,1.144,3.597,3.432,3.597h2.739v2.673h-2.97c-1.98,0-3.487-.671-4.521-2.013-.924,1.319-2.365,1.991-4.323,2.013h-2.277c-1.936,0-3.377-.648-4.323-1.947-.946,1.276-2.354,1.926-4.224,1.947h-2.277c-1.892,0-3.333-.648-4.323-1.947-.946,1.299-2.387,1.947-4.323,1.947h-3.267ZM361.85,552.175c-1.078,0-1.617-.55-1.617-1.65,0-1.077.539-1.617,1.617-1.617,1.056,0,1.584.54,1.584,1.617,0,1.101-.528,1.65-1.584,1.65ZM363.929,548.248c-.968,0-1.452-.495-1.452-1.485,0-.968.484-1.452,1.452-1.452s1.452.484,1.452,1.452c0,.99-.484,1.485-1.452,1.485ZM366.041,552.175c-1.078,0-1.617-.55-1.617-1.65,0-1.077.539-1.617,1.617-1.617,1.056,0,1.584.54,1.584,1.617,0,1.101-.528,1.65-1.584,1.65Z" fill="#5f616e"/><path d="M380.626,569.599v-2.673h2.178c2.156,0,3.234-1.1,3.234-3.3v-6.831l2.838-1.519v8.448c0,1.87-.561,3.345-1.683,4.422-1.035.969-2.388,1.452-4.059,1.452h-2.508ZM385.939,576.166c-1.079,0-1.617-.551-1.617-1.65,0-1.078.539-1.617,1.617-1.617,1.056,0,1.584.539,1.584,1.617,0,1.1-.528,1.65-1.584,1.65Z" fill="#5f616e"/><path d="M428.74,566.926h2.178v2.673h-2.508c-1.848,0-3.278-.572-4.29-1.716-1.078,1.144-2.52,1.716-4.323,1.716h-11.781c-1.782,0-3.179-.594-4.191-1.782-.88-1.033-1.32-2.387-1.32-4.059v-3.993l2.838-1.518v5.246c0,2.289,1.067,3.433,3.201,3.433h10.956c2.112,0,3.168-1.144,3.168-3.433v-13.661l2.871-1.519v15.312c0,2.2,1.067,3.3,3.201,3.3ZM414.187,553.527c1.892.089,2.838,1.023,2.838,2.806,0,.77-.226,1.386-.677,1.848-.451.462-1.051.693-1.798.693h-4.356l.759-1.419h3.465c.792,0,1.188-.396,1.188-1.188,0-.968-.616-1.452-1.848-1.452-.639,0-1.221.154-1.749.462v-1.319l2.772-3.069h1.749l-2.343,2.64Z" fill="#5f616e"/><path d="M440.191,566.926h2.178v2.673h-2.508c-1.893,0-3.355-.604-4.389-1.815-1.1,1.211-2.618,1.815-4.554,1.815h-1.98v-2.673h1.749c2.288,0,3.432-1.199,3.432-3.597v-13.497l2.871-1.519v15.048c0,1.276.248,2.189.743,2.739.495.55,1.314.825,2.458.825Z" fill="#5f616e"/><path d="M451.874,566.926h2.178v2.673h-2.508c-1.826,0-3.267-.583-4.323-1.749-1.056,1.166-2.497,1.749-4.323,1.749h-2.508v-2.673h2.178c2.156,0,3.234-1.1,3.234-3.3v-6.831l2.838-1.519v8.35c0,2.2,1.078,3.3,3.234,3.3ZM443.986,572.898c1.056,0,1.584.55,1.584,1.65,0,1.077-.528,1.617-1.584,1.617-1.078,0-1.617-.54-1.617-1.617,0-1.101.539-1.65,1.617-1.65ZM448.177,572.898c1.056,0,1.584.55,1.584,1.65,0,1.077-.528,1.617-1.584,1.617-1.078,0-1.617-.54-1.617-1.617,0-1.101.539-1.65,1.617-1.65Z" fill="#5f616e"/><path d="M473.324,566.926h2.211v2.673h-2.508c-1.826,0-3.267-.583-4.323-1.749-1.122,1.606-2.761,2.409-4.917,2.409s-3.784-.792-4.884-2.376c-1.034,1.144-2.475,1.716-4.323,1.716h-2.508v-2.673h2.178c2.156,0,3.234-1.1,3.234-3.3v-1.089c0-2.553.627-4.51,1.881-5.874,1.1-1.21,2.574-1.815,4.422-1.815,2.112,0,3.74.781,4.884,2.343.968,1.343,1.452,3.124,1.452,5.347v1.089c0,2.2,1.067,3.3,3.201,3.3ZM463.787,567.586c1.078,0,1.93-.451,2.558-1.354.627-.901.94-2.145.94-3.729,0-3.344-1.167-5.017-3.498-5.017-2.31,0-3.465,1.673-3.465,5.017,0,3.388,1.155,5.082,3.465,5.082Z" fill="#5f616e"/><path d="M491.341,566.926v2.673h-17.787v-2.673h5.709c-1.079-1.386-1.617-3.091-1.617-5.115,0-2.244.77-4.026,2.31-5.346,1.254-1.057,2.706-1.595,4.356-1.617,2.332,0,4.146.936,5.445,2.805v2.673c-1.408-1.892-3.113-2.838-5.115-2.838-1.254,0-2.261.402-3.02,1.205-.759.803-1.139,1.876-1.139,3.217,0,1.519.457,2.734,1.37,3.646.913.914,2.128,1.37,3.646,1.37h5.841Z" fill="#5f616e"/><path d="M501.34,579.993v-7.193c0-1.87.539-3.322,1.617-4.356.968-.945,2.31-1.452,4.026-1.518-.99-1.122-1.485-2.684-1.485-4.687,0-2.397.627-4.268,1.881-5.609,1.122-1.188,2.595-1.782,4.422-1.782,1.87,0,3.311.583,4.323,1.749.902,1.034,1.353,2.388,1.353,4.059v3.564c-.022,1.65-.539,2.948-1.551,3.894-1.012.946-2.409,1.441-4.191,1.485h-4.323c-2.156,0-3.234,1.1-3.234,3.3v5.577l-2.838,1.518ZM514.639,560.788c0-2.2-.946-3.301-2.838-3.301-1.101,0-1.953.413-2.558,1.238-.605.824-.908,1.975-.908,3.448,0,1.496.286,2.662.858,3.498.572.836,1.375,1.254,2.409,1.254,2.024,0,3.036-1.023,3.036-3.069v-3.068Z" fill="#5f616e"/><path d="M520.447,569.599l1.386-2.673h5.874c.88,0,1.501-.22,1.865-.66.363-.439.544-1.199.544-2.277,0-2.926-1.353-5.125-4.059-6.6l1.452-2.442c3.454,2.024,5.258,4.818,5.412,8.383.043,1.275.335,2.194.875,2.755.539.562,1.402.842,2.59.842h1.947v2.673h-2.178c-1.827,0-3.256-.583-4.29-1.749-.726,1.166-1.947,1.749-3.663,1.749h-7.755Z" fill="#5f616e"/><path d="M557.869,566.926h2.145v2.673h-2.178c-1.782,0-3.212-.203-4.29-.61-1.078-.407-2.079-1.127-3.003-2.162-2.772,1.849-6.006,2.772-9.702,2.772h-4.488v-2.673h4.521c4.466,0,7.997-1.474,10.593-4.422-1.826-3.366-4.048-5.049-6.666-5.049-1.782,0-3.619.945-5.511,2.838v-2.641c1.848-1.869,3.806-2.805,5.874-2.805,1.694,0,3.333.61,4.917,1.831,1.584,1.222,2.981,2.965,4.191,5.23v1.452c-.682.858-1.332,1.552-1.947,2.079,1.188.99,3.036,1.485,5.544,1.485ZM546.352,551.283c-1.078,0-1.617-.549-1.617-1.649,0-1.078.539-1.617,1.617-1.617,1.056,0,1.584.539,1.584,1.617,0,1.101-.528,1.649-1.584,1.649Z" fill="#5f616e"/><path d="M558.034,569.599v-2.673h2.178c2.156,0,3.234-1.1,3.234-3.3v-6.831l2.838-1.519v8.448c0,1.87-.561,3.345-1.683,4.422-1.035.969-2.388,1.452-4.059,1.452h-2.508ZM559.783,576.166c-1.078,0-1.617-.551-1.617-1.65,0-1.078.539-1.617,1.617-1.617,1.056,0,1.584.539,1.584,1.617,0,1.1-.528,1.65-1.584,1.65ZM563.975,576.166c-1.078,0-1.617-.551-1.617-1.65,0-1.078.539-1.617,1.617-1.617,1.056,0,1.584.539,1.584,1.617,0,1.1-.528,1.65-1.584,1.65Z" fill="#5f616e"/><path d="M580.342,568.543c-.836.33-1.859.495-3.069.495-1.958,0-3.498-.737-4.62-2.212-.946-1.254-1.419-2.826-1.419-4.719,0-2.331.627-4.158,1.881-5.478,1.122-1.188,2.596-1.782,4.422-1.782,1.87,0,3.311.583,4.323,1.749.902,1.034,1.353,2.388,1.353,4.059v7.194c0,2.486-.649,4.455-1.947,5.907-1.232,1.363-2.871,2.046-4.917,2.046-1.365,0-2.651-.319-3.861-.957v-2.508c1.166.615,2.321.924,3.465.924,1.298,0,2.332-.412,3.102-1.237s1.199-1.986,1.287-3.481ZM580.342,560.788c0-2.2-.935-3.301-2.805-3.301-1.101,0-1.964.407-2.591,1.222-.627.813-.94,1.925-.94,3.333,0,1.386.302,2.491.908,3.316.604.825,1.424,1.237,2.458,1.237,1.452,0,2.442-.407,2.97-1.221v-4.587Z" fill="#5f616e"/><path d="M616.048,566.926h2.112v2.673h-2.145c-1.87,0-3.361-.22-4.472-.66-1.111-.439-2.14-1.231-3.085-2.376-.726.264-1.837.551-3.333.858-2.508.527-4.18,1.21-5.016,2.046-1.056,1.012-1.584,2.431-1.584,4.257,0,1.848.605,3.277,1.815,4.29,1.012.858,2.31,1.287,3.894,1.287,2.42-.022,4.444-.605,6.072-1.749v2.673c-1.87,1.166-3.972,1.749-6.303,1.749-2.508,0-4.532-.836-6.072-2.508-1.386-1.496-2.079-3.421-2.079-5.775,0-2.53.748-4.542,2.244-6.039.66-.66,1.419-1.177,2.277-1.551s2.156-.748,3.894-1.122c1.65-.352,2.865-.693,3.646-1.022.781-.33,1.457-.804,2.029-1.419-1.804-3.388-4.026-5.082-6.666-5.082-1.76,0-3.608.945-5.544,2.838v-2.641c1.848-1.869,3.817-2.805,5.907-2.805,1.671,0,3.3.616,4.884,1.848,1.584,1.232,2.981,2.971,4.191,5.214v1.452c-.594.858-1.287,1.552-2.079,2.079,1.166.99,2.97,1.485,5.412,1.485Z" fill="#5f616e"/><path d="M626.575,566.826c.88-3.321,2.332-6.093,4.356-8.315,2.266-2.442,4.905-3.663,7.92-3.663,2.508,0,4.509.869,6.006,2.607,1.254,1.474,1.881,3.289,1.881,5.444v.858c0,1.914-.583,3.398-1.749,4.455-1.012.924-2.343,1.386-3.993,1.386h-13.662c-1.826,0-3.267-.583-4.323-1.749-1.056,1.166-2.497,1.749-4.323,1.749h-2.508v-2.673h2.178c2.156,0,3.234-1.1,3.234-3.3v-4.62l2.838-1.519v6.139c0,1.848.715,2.915,2.145,3.2ZM643.9,563.493v-.594c0-1.716-.528-3.08-1.584-4.092-.924-.88-2.068-1.32-3.432-1.32-2.332,0-4.433,1.078-6.303,3.234-1.431,1.65-2.53,3.718-3.3,6.204h11.55c2.046,0,3.069-1.144,3.069-3.433ZM639.413,551.283c-1.078,0-1.617-.549-1.617-1.649,0-1.078.539-1.617,1.617-1.617,1.056,0,1.584.539,1.584,1.617,0,1.101-.528,1.649-1.584,1.649Z" fill="#5f616e"/><path d="M660.136,568.543c-.836.33-1.859.495-3.069.495-1.958,0-3.498-.737-4.62-2.212-.946-1.254-1.419-2.826-1.419-4.719,0-2.331.627-4.158,1.881-5.478,1.122-1.188,2.596-1.782,4.422-1.782,1.87,0,3.311.583,4.323,1.749.902,1.034,1.353,2.388,1.353,4.059v7.194c0,2.486-.649,4.455-1.947,5.907-1.232,1.363-2.871,2.046-4.917,2.046-1.365,0-2.651-.319-3.861-.957v-2.508c1.166.615,2.321.924,3.465.924,1.298,0,2.332-.412,3.102-1.237s1.199-1.986,1.287-3.481ZM660.136,560.788c0-2.2-.935-3.301-2.805-3.301-1.101,0-1.964.407-2.591,1.222-.627.813-.94,1.925-.94,3.333,0,1.386.302,2.491.908,3.316.604.825,1.424,1.237,2.458,1.237,1.452,0,2.442-.407,2.97-1.221v-4.587Z" fill="#5f616e"/><path d="M666.869,547.852l.759-1.419h.891c-.22-.396-.33-.803-.33-1.221,0-.66.242-1.227.726-1.7.483-.473,1.056-.709,1.716-.709.55,0,1.078.176,1.584.528v1.451c-.484-.373-.946-.561-1.386-.561-.814,0-1.221.363-1.221,1.089,0,.374.154.748.462,1.122h3.003l-.759,1.419h-5.445ZM668.618,569.599v-18.447l2.838-1.518v19.965h-2.838Z" fill="#5f616e"/><path d="M693.169,566.926h2.178v2.673h-2.508c-1.122,0-2.09-.22-2.904-.66-.198,2.178-.957,3.916-2.277,5.214-1.21,1.188-2.728,1.782-4.554,1.782-1.32,0-2.607-.33-3.861-.99v-2.475c1.122.615,2.244.924,3.366.924,1.408,0,2.508-.474,3.3-1.419.792-.946,1.188-2.255,1.188-3.927v-11.253l2.838-1.519v.033l.033-.033v9.009c.198,1.761,1.265,2.641,3.201,2.641Z" fill="#5f616e"/><path d="M715.84,566.926h2.178v2.673h-2.508c-1.848,0-3.278-.572-4.29-1.716-1.078,1.144-2.541,1.716-4.389,1.716h-3.564c-.749,0-1.452-.109-2.112-.33-.682.221-1.386.33-2.112.33h-5.676v-2.673h4.257c-.836-1.122-1.254-2.397-1.254-3.828,0-1.298.318-2.397.957-3.3.549-2.024,1.595-3.575,3.135-4.653,1.254-.857,2.673-1.287,4.257-1.287,2.332,0,4.257.792,5.775,2.376,1.43,1.496,2.145,3.422,2.145,5.775v1.617c0,2.2,1.066,3.3,3.201,3.3ZM701.155,566.629c1.804-.616,2.706-1.849,2.706-3.696,0-.924-.248-1.666-.742-2.228-.495-.561-1.15-.842-1.964-.842s-1.468.281-1.963.842c-.495.562-.743,1.304-.743,2.228,0,1.848.902,3.08,2.706,3.696ZM706.732,566.926c1.078,0,1.853-.27,2.327-.809.473-.539.709-1.413.709-2.624v-1.484c0-1.826-.583-3.245-1.749-4.257-.946-.836-2.079-1.254-3.399-1.254-1.518,0-2.706.494-3.564,1.484h.099c1.452,0,2.612.468,3.481,1.402.869.936,1.304,2.173,1.304,3.713,0,1.475-.429,2.75-1.287,3.828h2.079Z" fill="#5f616e"/><path d="M745.541,566.926h2.178v2.673h-2.508c-1.76,0-3.135-.517-4.125-1.551-.902,1.034-2.178,1.551-3.828,1.551h-21.219v-2.673h6.138l.099-.363v-16.73l2.838-1.519v12.078c2.508-3.696,5.621-5.544,9.339-5.544,2.486,0,4.477.869,5.973,2.607,1.276,1.474,1.914,3.289,1.914,5.444v.792c0,2.156,1.067,3.234,3.201,3.234ZM739.468,563.823v-.924c0-1.716-.528-3.08-1.584-4.092-.902-.88-2.035-1.32-3.399-1.32-2.266,0-4.312,1.023-6.138,3.069-1.364,1.54-2.442,3.465-3.234,5.775v.594h11.913c.946,0,1.589-.22,1.931-.66.341-.439.511-1.254.511-2.442ZM734.254,551.283c-1.078,0-1.617-.549-1.617-1.649,0-1.078.539-1.617,1.617-1.617,1.056,0,1.584.539,1.584,1.617,0,1.101-.528,1.649-1.584,1.649Z" fill="#5f616e"/><path d="M757.223,566.926h2.178v2.673h-2.508c-1.826,0-3.267-.583-4.323-1.749-1.056,1.166-2.497,1.749-4.323,1.749h-2.508v-2.673h2.178c2.156,0,3.234-1.1,3.234-3.3v-6.831l2.838-1.519v8.35c0,2.2,1.078,3.3,3.234,3.3ZM749.335,572.898c1.056,0,1.584.55,1.584,1.65,0,1.077-.528,1.617-1.584,1.617-1.078,0-1.617-.54-1.617-1.617,0-1.101.539-1.65,1.617-1.65ZM753.526,572.898c1.056,0,1.584.55,1.584,1.65,0,1.077-.528,1.617-1.584,1.617-1.078,0-1.617-.54-1.617-1.617,0-1.101.539-1.65,1.617-1.65Z" fill="#5f616e"/><path d="M757.42,569.599v-2.673h1.749c2.288,0,3.432-1.199,3.432-3.597v-13.497l2.871-1.519v15.048c0,1.959-.583,3.51-1.749,4.653-1.1,1.056-2.541,1.584-4.323,1.584h-1.98Z" fill="#5f616e"/><path d="M784.58,569.599c-2.002,0-3.564-.671-4.686-2.013-.969-1.166-1.452-2.651-1.452-4.455,0-1.958.544-3.657,1.633-5.099,1.089-1.44,2.646-2.502,4.669-3.185,2.134.726,3.74,1.87,4.818,3.432.968,1.387,1.452,3.003,1.452,4.852,0,2.09-.616,3.729-1.848,4.917-1.101,1.034-2.52,1.551-4.257,1.551h-.33ZM784.48,566.926h.495c.99,0,1.776-.341,2.359-1.023.583-.682.875-1.595.875-2.738,0-2.641-1.155-4.532-3.465-5.677-2.31,1.145-3.465,3.025-3.465,5.644,0,1.166.286,2.09.858,2.771.572.683,1.353,1.023,2.343,1.023Z" fill="#5f616e"/><path d="M801.178,567.85c0,2.464-.649,4.443-1.947,5.94-1.232,1.43-2.871,2.145-4.917,2.145-1.32,0-2.607-.33-3.861-.99v-2.475c1.122.615,2.244.924,3.366.924,1.408,0,2.508-.474,3.3-1.419.792-.946,1.188-2.255,1.188-3.927v-11.253l2.871-1.519v12.573Z" fill="#5f616e"/><path d="M814.016,546.069l1.584-.891v2.673c0,.616-.209,1.122-.627,1.518-.418.396-.957.595-1.617.595-.572,0-1.067-.154-1.485-.463-.418.309-.914.463-1.485.463-.66,0-1.205-.198-1.633-.595-.429-.396-.644-.901-.644-1.518v-1.023l1.617-.891v1.814c0,.44.219.66.66.66s.66-.187.66-.561v-1.452l1.617-.891v2.343c0,.374.231.561.693.561.44,0,.66-.22.66-.66v-1.683Z" fill="#5f616e"/><path d="M822.529,566.926v2.673h-4.092c-.088,1.892-.902,3.454-2.442,4.686-1.298,1.012-2.772,1.519-4.422,1.519-1.364,0-2.651-.319-3.861-.957v-2.508c1.166.615,2.321.924,3.465.924,1.166,0,2.183-.363,3.053-1.089.869-.727,1.314-1.596,1.336-2.607-1.144-.044-1.991-.088-2.541-.132-2.376-.132-4.169-.935-5.379-2.409-1.012-1.231-1.518-2.826-1.518-4.785,0-2.397.638-4.268,1.914-5.609,1.144-1.188,2.651-1.782,4.521-1.782,1.958,0,3.465.583,4.521,1.749.902,1.034,1.353,2.388,1.353,4.059v6.271h4.092ZM815.566,560.854c0-2.244-1.001-3.366-3.003-3.366-1.144,0-2.035.413-2.673,1.238-.639.824-.957,1.975-.957,3.448,0,2.882,1.408,4.411,4.224,4.587.528.065,1.331.121,2.409.165v-6.072Z" fill="#5f616e"/><path d="M850.051,566.926h2.178v2.673h-2.508c-1.76,0-3.135-.517-4.125-1.551-.902,1.034-2.178,1.551-3.828,1.551h-21.219v-2.673h6.138l.099-.363v-16.73l2.838-1.519v12.078c2.508-3.696,5.621-5.544,9.339-5.544,2.486,0,4.477.869,5.973,2.607,1.276,1.474,1.914,3.289,1.914,5.444v.792c0,2.156,1.067,3.234,3.201,3.234ZM843.979,563.823v-.924c0-1.716-.528-3.08-1.584-4.092-.902-.88-2.035-1.32-3.399-1.32-2.266,0-4.312,1.023-6.138,3.069-1.364,1.54-2.442,3.465-3.234,5.775v.594h11.913c.946,0,1.589-.22,1.931-.66.341-.439.511-1.254.511-2.442Z" fill="#5f616e"/><path d="M850.249,569.599v-2.673h2.178c2.156,0,3.234-1.1,3.234-3.3v-6.831l2.838-1.519v8.448c0,1.87-.561,3.345-1.683,4.422-1.035.969-2.388,1.452-4.059,1.452h-2.508ZM856.981,551.283c-1.078,0-1.617-.549-1.617-1.649,0-1.078.539-1.617,1.617-1.617,1.056,0,1.584.539,1.584,1.617,0,1.101-.528,1.649-1.584,1.649Z" fill="#5f616e"/><path d="M872.557,568.543c-.836.33-1.859.495-3.069.495-1.958,0-3.498-.737-4.62-2.212-.946-1.254-1.419-2.826-1.419-4.719,0-2.331.627-4.158,1.881-5.478,1.122-1.188,2.596-1.782,4.422-1.782,1.87,0,3.311.583,4.323,1.749.902,1.034,1.353,2.388,1.353,4.059v7.194c0,2.486-.649,4.455-1.947,5.907-1.232,1.363-2.871,2.046-4.917,2.046-1.365,0-2.651-.319-3.861-.957v-2.508c1.166.615,2.321.924,3.465.924,1.298,0,2.332-.412,3.102-1.237s1.199-1.986,1.287-3.481ZM872.557,560.788c0-2.2-.935-3.301-2.805-3.301-1.101,0-1.964.407-2.591,1.222-.627.813-.94,1.925-.94,3.333,0,1.386.302,2.491.908,3.316.604.825,1.424,1.237,2.458,1.237,1.452,0,2.442-.407,2.97-1.221v-4.587Z" fill="#5f616e"/><rect x="110" y="1022.636" width="860" height="120" fill="none"/><path d="M852.849,1034.361h-4.602v-1.819h4.602v-4.992h2.08v4.992h4.602v1.819h-4.602v4.992h-2.08v-4.992Z" fill="#5f616e"/><path d="M232.117,1037.247h1.716v2.106h-1.976c-1.786,0-3.068-.658-3.848-1.976-.832.797-1.863,1.195-3.094,1.195-1.525,0-2.739-.571-3.64-1.716-.746-.971-1.118-2.158-1.118-3.562,0-1.682.511-3.033,1.534-4.057.867-.884,1.924-1.326,3.172-1.326.953,0,1.777.243,2.47.729v-1.118l2.262-1.196v8.32c0,1.733.841,2.6,2.522,2.6ZM227.333,1031.06c-.642-.711-1.43-1.066-2.366-1.066-.763,0-1.387.309-1.872.924s-.728,1.417-.728,2.404c0,1.006.242,1.812.728,2.418.485.607,1.118.91,1.898.91.97,0,1.768-.398,2.392-1.196-.035-.312-.052-.554-.052-.728v-3.666ZM223.979,1024.663c-.85,0-1.274-.433-1.274-1.3,0-.849.424-1.273,1.274-1.273.832,0,1.248.425,1.248,1.273,0,.867-.416,1.3-1.248,1.3ZM227.281,1024.663c-.849,0-1.274-.433-1.274-1.3,0-.849.425-1.273,1.274-1.273.832,0,1.248.425,1.248,1.273,0,.867-.416,1.3-1.248,1.3Z" fill="#5f616e"/><path d="M246.287,1037.247v2.106h-14.014v-2.106h4.498c-.849-1.092-1.274-2.435-1.274-4.029,0-1.769.606-3.172,1.82-4.212.988-.832,2.132-1.257,3.432-1.274,1.837,0,3.267.737,4.29,2.21v2.106c-1.109-1.491-2.453-2.236-4.03-2.236-.988,0-1.781.316-2.379.949-.598.633-.897,1.478-.897,2.535,0,1.195.359,2.153,1.079,2.873.719.719,1.677,1.078,2.873,1.078h4.602Z" fill="#5f616e"/><path d="M254.451,1039.354c-1.508,0-2.669-.485-3.484-1.456-.693-.832-1.04-1.889-1.04-3.172v-10.946l2.236-1.195v12.063c0,1.733.849,2.6,2.548,2.6h1.716v2.106h-1.976Z" fill="#5f616e"/><path d="M254.867,1039.354v-2.106h2.34c1.681,0,2.522-.866,2.522-2.6v-3.64l2.236-1.196v4.836c0,1.733.849,2.6,2.548,2.6h1.196c1.699,0,2.548-.866,2.548-2.6v-4.524l2.236-1.17v5.694c0,1.733.84,2.6,2.522,2.6h1.222c1.699,0,2.548-.866,2.548-2.6v-5.382l2.236-1.196v6.656c0,1.474-.442,2.626-1.326,3.458-.78.763-1.82,1.153-3.12,1.17h-1.794c-1.525,0-2.661-.511-3.406-1.534-.746,1.006-1.855,1.518-3.328,1.534h-1.794c-1.491,0-2.626-.511-3.406-1.534-.746,1.023-1.881,1.534-3.406,1.534h-2.574Z" fill="#5f616e"/><path d="M289.109,1039.743v-11.518c0-1.109.333-1.98,1.001-2.613.667-.632,1.59-.949,2.769-.949h4.212v2.106h-4.004c-1.162,0-1.742.529-1.742,1.586v10.192l-2.236,1.195Z" fill="#5f616e"/><path d="M303.591,1039.354c-1.612,0-2.869-.494-3.77-1.482-.693-.779-1.04-1.716-1.04-2.808,0-1.421.65-2.557,1.95-3.406-1.11-.692-1.664-1.689-1.664-2.989.017-1.145.463-2.098,1.339-2.86.875-.763,1.963-1.145,3.263-1.145h2.392v2.028h-2.21c-.745,0-1.352.195-1.82.585-.468.391-.702.889-.702,1.495,0,.642.234,1.161.702,1.56.468.399,1.075.599,1.82.599h1.56v1.689h-1.612c-.815,0-1.482.213-2.002.638s-.78.975-.78,1.65v.053c0,.711.256,1.282.767,1.716s1.183.649,2.015.649h2.47l1.274,2.028h-3.952Z" fill="#5f616e"/><path d="M329.903,1037.716c0,2.062-.719,3.709-2.158,4.939-1.266,1.092-2.877,1.639-4.836,1.639-2.323,0-4.117-.78-5.382-2.341-.971-1.213-1.456-2.66-1.456-4.342,0-1.473.355-2.729,1.066-3.77l2.236-.494c-.797,1.23-1.196,2.574-1.196,4.03,0,1.438.459,2.616,1.378,3.535.849.85,1.967,1.274,3.354,1.274,1.577,0,2.791-.468,3.64-1.404.728-.797,1.092-1.819,1.092-3.067v-13.937l2.262-1.195v15.132Z" fill="#5f616e"/><path d="M349.013,1037.247h1.716v2.106h-1.976c-1.491,0-2.643-.477-3.458-1.43-.867.953-2.062,1.43-3.588,1.43h-8.944l1.092-2.106h3.796v-10.088l2.236-1.195v11.283h1.638c1.802,0,2.704-.944,2.704-2.834v-10.634l2.262-1.195v11.855c0,1.006.195,1.725.585,2.158s1.036.649,1.937.649Z" fill="#5f616e"/><path d="M349.169,1039.354v-2.106h3.562c3.518,0,6.3-1.16,8.346-3.483-1.439-2.652-3.189-3.979-5.252-3.979-1.404,0-2.852.746-4.342,2.236v-2.08c1.456-1.473,2.999-2.21,4.628-2.21,1.334,0,2.626.481,3.874,1.443s2.349,2.336,3.302,4.121v1.144c-2.548,3.276-6.075,4.914-10.582,4.914h-3.536ZM357.047,1024.924c-.85,0-1.274-.434-1.274-1.301,0-.849.424-1.273,1.274-1.273.832,0,1.248.425,1.248,1.273,0,.867-.416,1.301-1.248,1.301Z" fill="#5f616e"/><path d="M370.904,1039.354l1.092-2.106h4.628c.693,0,1.183-.173,1.469-.52.286-.347.429-.944.429-1.794,0-2.322-1.049-4.082-3.146-5.278l1.092-1.846c2.86,1.63,4.29,4.013,4.29,7.15,0,2.929-1.248,4.394-3.744,4.394h-6.11Z" fill="#5f616e"/><path d="M388.767,1037.976c0,1.941-.511,3.501-1.534,4.68-.971,1.127-2.262,1.69-3.874,1.69-1.04,0-2.054-.26-3.042-.78v-1.95c.884.485,1.768.729,2.652.729,1.109,0,1.976-.373,2.6-1.118.624-.745.936-1.777.936-3.094v-8.866l2.262-1.196v9.906Z" fill="#5f616e"/><path d="M398.179,1029.863c0-.363.134-.68.403-.949.269-.269.585-.402.949-.402.416,0,.767.13,1.053.39s.429.581.429.962c0,.988-.494,1.482-1.482,1.482-.399,0-.724-.139-.975-.416-.251-.277-.377-.633-.377-1.066Z" fill="#5f616e"/><path d="M420.825,1037.247h1.716v2.106h-1.976c-1.786,0-3.068-.658-3.848-1.976-.832.797-1.863,1.195-3.094,1.195-1.525,0-2.739-.571-3.64-1.716-.746-.971-1.118-2.158-1.118-3.562,0-1.682.511-3.033,1.534-4.057.867-.884,1.924-1.326,3.172-1.326.953,0,1.777.243,2.47.729v-1.118l2.262-1.196v8.32c0,1.733.841,2.6,2.522,2.6ZM416.041,1031.06c-.642-.711-1.43-1.066-2.366-1.066-.763,0-1.387.309-1.872.924s-.728,1.417-.728,2.404c0,1.006.242,1.812.728,2.418.485.607,1.118.91,1.898.91.97,0,1.768-.398,2.392-1.196-.035-.312-.052-.554-.052-.728v-3.666ZM412.687,1024.663c-.85,0-1.274-.433-1.274-1.3,0-.849.424-1.273,1.274-1.273.832,0,1.248.425,1.248,1.273,0,.867-.416,1.3-1.248,1.3ZM415.989,1024.663c-.849,0-1.274-.433-1.274-1.3,0-.849.425-1.273,1.274-1.273.832,0,1.248.425,1.248,1.273,0,.867-.416,1.3-1.248,1.3Z" fill="#5f616e"/><path d="M430.029,1037.247h1.716v2.106h-1.976c-1.439,0-2.574-.459-3.406-1.378-.832.919-1.967,1.378-3.406,1.378h-1.976v-2.106h1.716c1.699,0,2.548-.866,2.548-2.6v-5.382l2.236-1.196v6.578c0,1.733.849,2.6,2.548,2.6ZM425.921,1024.924c-.85,0-1.274-.434-1.274-1.301,0-.849.424-1.273,1.274-1.273.832,0,1.248.425,1.248,1.273,0,.867-.416,1.301-1.248,1.301Z" fill="#5f616e"/><path d="M439.051,1037.247h1.716v2.106h-1.976c-1.491,0-2.644-.477-3.458-1.43-.867.953-2.063,1.43-3.588,1.43h-1.56v-2.106h1.378c1.802,0,2.704-.944,2.704-2.834v-10.634l2.262-1.195v11.855c0,1.006.195,1.725.585,2.158s1.036.649,1.937.649Z" fill="#5f616e"/><path d="M452.051,1037.247h6.864v2.106h-7.072c-.936,0-1.863-.182-2.782-.546-.919.364-1.855.546-2.808.546h-7.046v-2.106h7.228c-1.248-1.022-2.531-2.521-3.848-4.497v-1.145c.832-1.196,1.824-2.141,2.977-2.834,1.152-.693,2.31-1.04,3.471-1.04s2.323.351,3.484,1.053c1.161.702,2.167,1.66,3.016,2.873v1.093c-1.317,1.976-2.609,3.475-3.874,4.497h.39ZM444.667,1032.203c1.594,2.185,3.059,3.623,4.394,4.316,1.334-.711,2.799-2.158,4.394-4.342-1.3-1.577-2.773-2.375-4.42-2.393-1.647,0-3.103.807-4.368,2.418Z" fill="#5f616e"/><path d="M461.619,1032.308c0-1.508.451-2.678,1.352-3.51.797-.711,1.837-1.066,3.12-1.066,1.646,0,2.912.607,3.796,1.82.763,1.022,1.144,2.357,1.144,4.004,0,1.872-.485,3.337-1.456,4.394-.85.937-1.959,1.404-3.328,1.404-1.56,0-2.747-.433-3.562-1.3-.832.867-1.95,1.3-3.354,1.3h-1.976v-2.106h1.716c1.699,0,2.548-.866,2.548-2.6v-2.34ZM463.855,1034.829c0,1.612.788,2.418,2.366,2.418.814,0,1.452-.329,1.911-.987.459-.659.689-1.577.689-2.756,0-1.161-.243-2.067-.728-2.718-.485-.649-1.153-.975-2.002-.975-1.491,0-2.236.867-2.236,2.6v2.418Z" fill="#5f616e"/><path d="M485.227,1037.976c0,1.941-.511,3.501-1.534,4.68-.971,1.127-2.262,1.69-3.874,1.69-1.04,0-2.054-.26-3.042-.78v-1.95c.884.485,1.768.729,2.652.729,1.109,0,1.976-.373,2.6-1.118.624-.745.936-1.777.936-3.094v-8.866l2.262-1.196v9.906Z" fill="#5f616e"/><path d="M494.431,1039.354c-1.508,0-2.669-.485-3.484-1.456-.693-.832-1.04-1.889-1.04-3.172v-10.946l2.236-1.195v12.063c0,1.733.849,2.6,2.548,2.6h1.716v2.106h-1.976Z" fill="#5f616e"/><path d="M507.691,1037.247h6.864v2.106h-7.072c-.936,0-1.863-.182-2.782-.546-.919.364-1.855.546-2.808.546h-7.046v-2.106h7.228c-1.248-1.022-2.531-2.521-3.848-4.497v-1.145c.832-1.196,1.824-2.141,2.977-2.834,1.152-.693,2.31-1.04,3.471-1.04s2.323.351,3.484,1.053c1.161.702,2.167,1.66,3.016,2.873v1.093c-1.317,1.976-2.609,3.475-3.874,4.497h.39ZM500.307,1032.203c1.594,2.185,3.059,3.623,4.394,4.316,1.334-.711,2.799-2.158,4.394-4.342-1.3-1.577-2.773-2.375-4.42-2.393-1.647,0-3.103.807-4.368,2.418Z" fill="#5f616e"/><path d="M512.995,1039.354v-2.106h2.34c1.681,0,2.522-.866,2.522-2.6v-3.64l2.236-1.196v4.836c0,1.733.849,2.6,2.548,2.6h1.196c1.699,0,2.548-.866,2.548-2.6v-4.524l2.236-1.17v5.694c0,1.733.84,2.6,2.522,2.6h1.222c1.699,0,2.548-.866,2.548-2.6v-5.382l2.236-1.196v6.656c0,1.474-.442,2.626-1.326,3.458-.78.763-1.82,1.153-3.12,1.17h-1.794c-1.525,0-2.661-.511-3.406-1.534-.746,1.006-1.855,1.518-3.328,1.534h-1.794c-1.491,0-2.626-.511-3.406-1.534-.746,1.023-1.881,1.534-3.406,1.534h-2.574Z" fill="#5f616e"/><path d="M540.451,1022.22l.598-1.118h.702c-.174-.312-.26-.633-.26-.962,0-.521.19-.966.572-1.339.381-.373.832-.56,1.352-.56.433,0,.849.14,1.248.416v1.145c-.381-.295-.745-.442-1.092-.442-.642,0-.962.286-.962.858,0,.295.121.589.364.884h2.366l-.598,1.118h-4.29ZM541.829,1039.354v-14.534l2.236-1.196v15.73h-2.236Z" fill="#5f616e"/><path d="M553.477,1029.863c0-.363.134-.68.403-.949.269-.269.585-.402.949-.402.416,0,.767.13,1.053.39s.429.581.429.962c0,.988-.494,1.482-1.482,1.482-.399,0-.724-.139-.975-.416-.251-.277-.377-.633-.377-1.066Z" fill="#5f616e"/><path d="M565.073,1039.743v-11.518c0-1.109.333-1.98,1.001-2.613.667-.632,1.59-.949,2.769-.949h4.212v2.106h-4.004c-1.162,0-1.742.529-1.742,1.586v10.192l-2.236,1.195Z" fill="#5f616e"/><path d="M577.163,1037.039l-2.418-2.418,2.418-2.392,2.366,2.392-2.366,2.418Z" fill="#5f616e"/><path d="M582.259,1039.743v-11.518c0-1.109.333-1.98,1.001-2.613.667-.632,1.59-.949,2.769-.949h4.212v2.106h-4.004c-1.162,0-1.742.529-1.742,1.586v10.192l-2.236,1.195Z" fill="#5f616e"/><path d="M594.349,1037.039l-2.418-2.418,2.418-2.392,2.366,2.392-2.366,2.418Z" fill="#5f616e"/><path d="M604.073,1039.354l1.092-2.106h4.628c.693,0,1.183-.173,1.469-.52.286-.347.429-.944.429-1.794,0-2.305-1.066-4.039-3.198-5.2l1.144-1.924c2.721,1.595,4.142,3.796,4.264,6.604.035,1.006.264,1.729.689,2.172.425.441,1.105.662,2.041.662h1.534v2.106h-1.716c-1.439,0-2.566-.459-3.38-1.378-.572.919-1.534,1.378-2.886,1.378h-6.11ZM609.715,1024.924c-.849,0-1.274-.434-1.274-1.301,0-.849.425-1.273,1.274-1.273.832,0,1.248.425,1.248,1.273,0,.867-.416,1.301-1.248,1.301Z" fill="#5f616e"/><path d="M625.653,1037.247h1.716v2.106h-1.976c-1.439,0-2.574-.459-3.406-1.378-.832.919-1.967,1.378-3.406,1.378h-1.976v-2.106h1.716c1.699,0,2.548-.866,2.548-2.6v-5.382l2.236-1.196v6.578c0,1.733.849,2.6,2.548,2.6ZM621.545,1024.924c-.85,0-1.274-.434-1.274-1.301,0-.849.424-1.273,1.274-1.273.832,0,1.248.425,1.248,1.273,0,.867-.416,1.301-1.248,1.301Z" fill="#5f616e"/><path d="M630.073,1032.308c0-1.508.451-2.678,1.352-3.51.797-.711,1.837-1.066,3.12-1.066,1.646,0,2.912.607,3.796,1.82.763,1.022,1.144,2.357,1.144,4.004,0,1.872-.485,3.337-1.456,4.394-.85.937-1.959,1.404-3.328,1.404-1.56,0-2.747-.433-3.562-1.3-.832.867-1.95,1.3-3.354,1.3h-1.976v-2.106h1.716c1.699,0,2.548-.866,2.548-2.6v-2.34ZM632.309,1034.829c0,1.612.788,2.418,2.366,2.418.814,0,1.452-.329,1.911-.987.459-.659.689-1.577.689-2.756,0-1.161-.243-2.067-.728-2.718-.485-.649-1.153-.975-2.002-.975-1.491,0-2.236.867-2.236,2.6v2.418Z" fill="#5f616e"/><path d="M660.233,1037.247h1.716v2.106h-1.976c-1.786,0-3.068-.658-3.848-1.976-.832.797-1.863,1.195-3.094,1.195-1.525,0-2.739-.571-3.64-1.716-.746-.971-1.118-2.158-1.118-3.562,0-1.682.511-3.033,1.534-4.057.867-.884,1.924-1.326,3.172-1.326.953,0,1.777.243,2.47.729v-1.118l2.262-1.196v8.32c0,1.733.841,2.6,2.522,2.6ZM655.449,1031.06c-.642-.711-1.43-1.066-2.366-1.066-.763,0-1.387.309-1.872.924s-.728,1.417-.728,2.404c0,1.006.242,1.812.728,2.418.485.607,1.118.91,1.898.91.97,0,1.768-.398,2.392-1.196-.035-.312-.052-.554-.052-.728v-3.666ZM652.095,1024.663c-.85,0-1.274-.433-1.274-1.3,0-.849.424-1.273,1.274-1.273.832,0,1.248.425,1.248,1.273,0,.867-.416,1.3-1.248,1.3ZM655.396,1024.663c-.849,0-1.274-.433-1.274-1.3,0-.849.425-1.273,1.274-1.273.832,0,1.248.425,1.248,1.273,0,.867-.416,1.3-1.248,1.3Z" fill="#5f616e"/><path d="M669.255,1037.247h1.716v2.106h-1.976c-1.491,0-2.644-.477-3.458-1.43-.867.953-2.063,1.43-3.588,1.43h-1.56v-2.106h1.378c1.802,0,2.704-.944,2.704-2.834v-10.634l2.262-1.195v11.855c0,1.006.195,1.725.585,2.158s1.036.649,1.937.649Z" fill="#5f616e"/><path d="M669.411,1039.354v-2.106h2.34c1.681,0,2.522-.866,2.522-2.6v-3.64l2.236-1.196v4.836c0,1.733.849,2.6,2.548,2.6h1.196c1.699,0,2.548-.866,2.548-2.6v-4.524l2.236-1.17v5.694c0,1.733.84,2.6,2.522,2.6h1.222c1.699,0,2.548-.866,2.548-2.6v-5.382l2.236-1.196v6.656c0,1.474-.442,2.626-1.326,3.458-.78.763-1.82,1.153-3.12,1.17h-1.794c-1.525,0-2.661-.511-3.406-1.534-.746,1.006-1.855,1.518-3.328,1.534h-1.794c-1.491,0-2.626-.511-3.406-1.534-.746,1.023-1.881,1.534-3.406,1.534h-2.574Z" fill="#5f616e"/><path d="M719.305,1039.354c-.173,1.525-1.005,2.747-2.496,3.666-1.387.849-3.155,1.274-5.304,1.274-2.739,0-4.801-.798-6.188-2.393-1.023-1.179-1.534-2.635-1.534-4.368,0-1.456.364-2.704,1.092-3.744l2.158-.468c-.78,1.231-1.17,2.558-1.17,3.979,0,1.543.502,2.756,1.508,3.64.988.884,2.366,1.326,4.134,1.326,1.491,0,2.721-.26,3.692-.78.971-.52,1.56-1.23,1.768-2.132h-2.6l1.092-2.106h3.926v2.106h-.078Z" fill="#5f616e"/><path d="M726.871,1037.247h1.716v2.106h-1.976c-1.491,0-2.644-.477-3.458-1.43-.867.953-2.063,1.43-3.588,1.43h-1.56v-2.106h1.378c1.802,0,2.704-.944,2.704-2.834v-10.634l2.262-1.195v11.855c0,1.006.195,1.725.585,2.158s1.036.649,1.937.649Z" fill="#5f616e"/><path d="M741.041,1037.247v2.106h-14.014v-2.106h4.498c-.849-1.092-1.274-2.435-1.274-4.029,0-1.769.606-3.172,1.82-4.212.988-.832,2.132-1.257,3.432-1.274,1.837,0,3.267.737,4.29,2.21v2.106c-1.109-1.491-2.453-2.236-4.03-2.236-.988,0-1.781.316-2.379.949-.598.633-.897,1.478-.897,2.535,0,1.195.359,2.153,1.079,2.873.719.719,1.677,1.078,2.873,1.078h4.602Z" fill="#5f616e"/><path d="M755.081,1039.354c-1.404,0-2.505-.468-3.302-1.404-.693-.814-1.04-1.88-1.04-3.197v-3.146l2.236-1.196v4.135c0,1.803.84,2.703,2.522,2.703h8.632c1.681,0,2.522-.9,2.522-2.703v-5.278l2.236-1.196v6.683c0,1.508-.459,2.678-1.378,3.51-.815.728-1.863,1.092-3.146,1.092h-9.282ZM757.707,1027.264c-.85,0-1.274-.434-1.274-1.3,0-.85.424-1.274,1.274-1.274.832,0,1.248.425,1.248,1.274,0,.866-.416,1.3-1.248,1.3ZM761.009,1027.264c-.849,0-1.274-.434-1.274-1.3,0-.85.425-1.274,1.274-1.274.832,0,1.248.425,1.248,1.274,0,.866-.416,1.3-1.248,1.3Z" fill="#5f616e"/><path d="M773.047,1039.354v-15.574l2.236-1.195v16.77h-2.236Z" fill="#5f616e"/><path d="M792.105,1037.247v2.106h-3.224c-.069,1.49-.711,2.721-1.924,3.692-1.023.797-2.184,1.195-3.484,1.195-1.075,0-2.089-.251-3.042-.754v-1.976c.918.484,1.829.728,2.73.728.918,0,1.72-.286,2.405-.857.685-.572,1.036-1.257,1.053-2.055-.901-.034-1.569-.068-2.002-.104-1.872-.104-3.285-.736-4.238-1.898-.797-.97-1.196-2.227-1.196-3.77,0-1.89.502-3.362,1.508-4.42.901-.937,2.089-1.404,3.562-1.404,1.542,0,2.73.46,3.562,1.378.71.815,1.066,1.881,1.066,3.198v4.939h3.224ZM786.619,1032.464c0-1.769-.789-2.652-2.366-2.652-.901,0-1.604.325-2.106.975-.503.65-.754,1.557-.754,2.718,0,2.271,1.109,3.475,3.328,3.613.416.053,1.048.096,1.898.13v-4.783Z" fill="#5f616e"/><path d="M799.593,1037.247h1.716v2.106h-1.976c-1.439,0-2.574-.459-3.406-1.378-.832.919-1.967,1.378-3.406,1.378h-1.976v-2.106h1.716c1.699,0,2.548-.866,2.548-2.6v-5.382l2.236-1.196v6.578c0,1.733.849,2.6,2.548,2.6ZM795.485,1024.924c-.85,0-1.274-.434-1.274-1.301,0-.849.424-1.273,1.274-1.273.832,0,1.248.425,1.248,1.273,0,.867-.416,1.301-1.248,1.301Z" fill="#5f616e"/><path d="M799.749,1039.354v-2.106h2.34c1.681,0,2.522-.866,2.522-2.6v-3.64l2.236-1.196v4.836c0,1.733.849,2.6,2.548,2.6h1.196c1.699,0,2.548-.866,2.548-2.6v-4.524l2.236-1.17v5.694c0,1.733.84,2.6,2.522,2.6h1.222c1.699,0,2.548-.866,2.548-2.6v-5.382l2.236-1.196v6.656c0,1.474-.442,2.626-1.326,3.458-.78.763-1.82,1.153-3.12,1.17h-1.794c-1.525,0-2.661-.511-3.406-1.534-.746,1.006-1.855,1.518-3.328,1.534h-1.794c-1.491,0-2.626-.511-3.406-1.534-.746,1.023-1.881,1.534-3.406,1.534h-2.574Z" fill="#5f616e"/><path d="M838.671,1039.743v-11.388c0-1.057-.572-1.586-1.716-1.586h-4.004v-2.106h4.212c1.179,0,2.102.317,2.769.949.667.633,1.001,1.504,1.001,2.613v10.322l-2.262,1.195Z" fill="#5f616e"/><path d="M385.128,772.001v-66.189c0-9.9,7.073-18,15.718-18h278.308c8.645,0,15.718,8.1,15.718,18v66.189c0,9.9-7.073,18-15.718,18h-278.308c-8.645,0-15.718-8.1-15.718-18Z" fill="#6664fb"/><path d="M438.57,745.901c0,2.88-.996,5.171-2.988,6.876-1.776,1.512-4.044,2.268-6.804,2.268-3.24,0-5.748-1.14-7.524-3.42-1.392-1.776-2.088-3.863-2.088-6.264,0-1.896.444-3.552,1.332-4.968l4.32-.9c-.96,1.632-1.44,3.348-1.44,5.147,0,1.824.516,3.301,1.548,4.429.984,1.08,2.268,1.62,3.852,1.62,1.656,0,2.946-.421,3.87-1.261.924-.84,1.386-2.016,1.386-3.527v-11.305l4.536-2.376v13.681ZM428.598,732.617c-.72,0-1.296-.216-1.728-.648-.432-.432-.648-1.02-.648-1.764,0-.696.216-1.26.648-1.692.432-.432,1.008-.647,1.728-.647s1.29.21,1.71.63c.419.42.63.99.63,1.71,0,1.608-.78,2.412-2.34,2.412Z" fill="#fff"/><path d="M458.91,727.397l4.536-2.412v15.731c0,2.328-.708,4.188-2.124,5.58-1.32,1.272-3.06,1.908-5.22,1.908h-13.572l2.268-4.356h4.752v-11.771l4.536-2.412v14.184h1.764c1.104,0,1.89-.239,2.358-.72.468-.479.702-1.296.702-2.448v-13.283ZM456.606,726.065c-1.104,1.367-2.196,2.052-3.276,2.052-.504,0-1.284-.3-2.34-.9-.601-.336-1.044-.504-1.332-.504h-.036c-.432,0-1.008.42-1.728,1.26l-1.548-1.367c1.08-1.392,2.16-2.089,3.24-2.089.528,0,1.332.301,2.412.9.576.337,1.02.504,1.332.504.408,0,.996-.42,1.764-1.26l1.512,1.404Z" fill="#fff"/><path d="M469.89,748.205v-20.808l4.536-2.412v23.22h-4.536Z" fill="#fff"/><path d="M510.858,727.361l4.5-2.376v16.523c0,2.185-.684,3.889-2.052,5.112-1.176,1.057-2.7,1.584-4.572,1.584h-12.852c-2.041,0-3.636-.684-4.788-2.052-1.032-1.2-1.548-2.748-1.548-4.645v-3.672l4.5-2.376v5.76c0,.961.198,1.639.594,2.034.396.396,1.05.594,1.962.594h11.736c.912,0,1.56-.203,1.944-.611.384-.408.576-1.08.576-2.017v-13.859ZM503.406,730.205c1.728.288,2.592,1.309,2.592,3.06,0,1.969-.948,2.952-2.844,2.952h-5.328l1.116-2.088h3.996c.648,0,.972-.324.972-.972,0-.815-.54-1.225-1.62-1.225-.72,0-1.392.192-2.016.576v-1.8l3.096-3.42h2.628l-2.592,2.916Z" fill="#fff"/><path d="M530.874,743.849h3.24v4.356h-3.672c-.816,0-1.572-.108-2.268-.324-.312,2.305-1.236,4.128-2.772,5.473-1.393,1.199-3.06,1.8-5.004,1.8-1.512,0-2.988-.385-4.428-1.152v-3.96c1.248.696,2.472,1.044,3.672,1.044,1.32,0,2.346-.426,3.078-1.278.732-.852,1.098-2.033,1.098-3.546v-11.664l2.952-1.548,1.548-.828v.036l.036-.036v9.036c0,.937.192,1.603.576,1.998.384.396,1.032.594,1.944.594Z" fill="#fff"/><path d="M555.426,743.849h3.024v4.356h-3.06c-1.896,0-3.415-.21-4.554-.63-1.14-.42-2.202-1.158-3.186-2.214-3,1.896-6.457,2.844-10.368,2.844h-5.328v-4.356h5.364c4.224,0,7.583-1.26,10.08-3.779-1.632-2.856-3.612-4.284-5.94-4.284-1.92,0-4.02,1.044-6.3,3.132v-3.996c2.016-2.208,4.296-3.312,6.84-3.312,1.872,0,3.696.684,5.472,2.052,1.776,1.368,3.348,3.312,4.716,5.832v1.8c-.384.504-.888,1.068-1.512,1.692.959.576,2.543.863,4.752.863ZM545.454,751.481c.72,0,1.29.209,1.71.63.42.419.63.99.63,1.71,0,1.607-.78,2.412-2.34,2.412-.72,0-1.296-.217-1.728-.648s-.648-1.021-.648-1.764c0-.696.216-1.26.648-1.692.432-.432,1.008-.647,1.728-.647Z" fill="#fff"/><path d="M569.106,743.849h3.24v4.356h-3.672c-1.752,0-3.204-.468-4.356-1.404-1.152.937-2.604,1.404-4.356,1.404h-3.672v-4.356h3.24c.912,0,1.56-.197,1.944-.594.384-.396.576-1.062.576-1.998v-6.66l4.536-2.376v9.036c0,.937.192,1.603.576,1.998.384.396,1.032.594,1.944.594ZM559.71,729.053c-.72,0-1.296-.216-1.728-.647-.432-.433-.648-1.02-.648-1.765,0-.695.216-1.26.648-1.691.432-.433,1.008-.648,1.728-.648s1.29.211,1.71.63c.42.421.63.99.63,1.71,0,1.608-.78,2.412-2.34,2.412ZM565.218,729.053c-.72,0-1.296-.222-1.728-.666-.432-.443-.648-1.025-.648-1.746,0-.695.222-1.26.666-1.691.444-.433,1.014-.648,1.71-.648.72,0,1.29.211,1.71.63.419.421.63.99.63,1.71,0,1.608-.78,2.412-2.34,2.412Z" fill="#fff"/><path d="M575.946,738.27c0-2.16.671-3.853,2.016-5.076,1.176-1.056,2.688-1.584,4.536-1.584,2.376,0,4.224.876,5.544,2.628,1.128,1.464,1.692,3.348,1.692,5.651,0,2.664-.708,4.765-2.124,6.301-1.272,1.344-2.893,2.016-4.86,2.016-1.92,0-3.492-.42-4.716-1.26-1.152.84-2.544,1.26-4.176,1.26h-3.672v-4.356h3.24c.912,0,1.56-.197,1.944-.594.384-.396.576-1.062.576-1.998v-2.987ZM580.482,741.833c0,1.345.708,2.016,2.124,2.016,1.776,0,2.664-1.367,2.664-4.104,0-2.615-.924-3.924-2.772-3.924-1.344,0-2.016.792-2.016,2.376v3.636Z" fill="#fff"/><path d="M610.794,745.973c0,2.784-.769,5.04-2.304,6.769-1.417,1.607-3.289,2.412-5.616,2.412-1.512,0-2.988-.385-4.428-1.152v-3.96c1.248.696,2.472,1.044,3.672,1.044,1.32,0,2.346-.426,3.078-1.278.732-.852,1.098-2.033,1.098-3.546v-11.628l4.5-2.412v13.752Z" fill="#fff"/><path d="M624.978,721.673l2.556-1.404v3.708c0,.816-.294,1.489-.882,2.017-.588.528-1.338.792-2.25.792-.745,0-1.368-.168-1.872-.504-.528.336-1.14.504-1.836.504-.913,0-1.656-.264-2.232-.792-.576-.527-.864-1.2-.864-2.017v-1.548l2.52-1.403v2.808c0,.336.204.504.612.504.384,0,.576-.155.576-.468v-1.836l2.52-1.404v3.24c0,.312.192.468.576.468s.576-.168.576-.504v-2.16Z" fill="#fff"/><path d="M634.374,743.849v4.356h-4.428c-.168,2.16-1.128,3.888-2.88,5.184-1.44,1.057-3.121,1.584-5.04,1.584-1.512,0-2.988-.408-4.428-1.224v-3.924c1.296.743,2.592,1.116,3.888,1.116,1.008,0,1.902-.276,2.682-.828.78-.553,1.206-1.212,1.278-1.98-.192-.023-.492-.048-.9-.071-.409-.048-.72-.084-.936-.108-2.472-.264-4.38-1.236-5.724-2.916-1.128-1.416-1.692-3.132-1.692-5.148,0-2.64.72-4.728,2.16-6.264,1.272-1.344,2.952-2.016,5.04-2.016,2.136,0,3.804.684,5.004,2.052,1.032,1.176,1.548,2.712,1.548,4.608v5.579h4.428ZM625.446,738.197c0-1.584-.684-2.376-2.052-2.376-1.824,0-2.736,1.309-2.736,3.924,0,2.328,1.056,3.624,3.168,3.888.336.072.876.133,1.62.181v-5.616Z" fill="#fff"/><path d="M643.59,735.389c2.472-2.52,5.292-3.779,8.46-3.779,2.856,0,5.124.984,6.804,2.952,1.44,1.655,2.16,3.708,2.16,6.155v.864c0,2.256-.648,3.973-1.944,5.148-1.08.984-2.52,1.476-4.32,1.476h-22.536v-4.356h6.444c.096-.335.228-.707.396-1.115v-15.336l4.536-2.412v10.403ZM656.514,741.401v-.685c0-1.439-.414-2.615-1.242-3.527s-1.89-1.368-3.186-1.368c-1.68,0-3.271.618-4.77,1.854-1.5,1.236-2.742,2.946-3.726,5.13v1.044h10.98c.792,0,1.314-.155,1.566-.468.252-.312.378-.972.378-1.979Z" fill="#fff"/><rect x="385.128" y="826.705" width="309.744" height="104.403" rx="18" ry="18" fill="#fff" stroke="#6664fb" stroke-miterlimit="10" stroke-width="2.5"/><path d="M463.68,868.469l4.5-2.376v16.523c0,2.185-.684,3.889-2.052,5.112-1.176,1.057-2.7,1.584-4.572,1.584h-12.852c-2.041,0-3.636-.684-4.788-2.052-1.032-1.2-1.548-2.748-1.548-4.645v-3.672l4.5-2.376v5.76c0,.961.198,1.639.594,2.034.396.396,1.05.594,1.962.594h11.736c.912,0,1.56-.203,1.944-.611.384-.408.576-1.08.576-2.017v-13.859ZM456.228,871.312c1.728.288,2.592,1.309,2.592,3.06,0,1.969-.948,2.952-2.844,2.952h-5.328l1.116-2.088h3.996c.648,0,.972-.324.972-.972,0-.815-.54-1.225-1.62-1.225-.72,0-1.392.192-2.016.576v-1.8l3.096-3.42h2.628l-2.592,2.916Z" fill="#6664fb"/><path d="M483.696,884.956h3.24v4.356h-3.672c-.816,0-1.572-.108-2.268-.324-.312,2.305-1.236,4.128-2.772,5.473-1.393,1.199-3.06,1.8-5.004,1.8-1.512,0-2.988-.385-4.428-1.152v-3.96c1.248.696,2.472,1.044,3.672,1.044,1.32,0,2.346-.426,3.078-1.278.732-.852,1.098-2.033,1.098-3.546v-11.664l2.952-1.548,1.548-.828v.036l.036-.036v9.036c0,.937.192,1.603.576,1.998.384.396,1.032.594,1.944.594Z" fill="#6664fb"/><path d="M508.248,884.956h3.024v4.356h-3.06c-1.896,0-3.415-.21-4.554-.63-1.14-.42-2.202-1.158-3.186-2.214-3,1.896-6.457,2.844-10.368,2.844h-5.328v-4.356h5.364c4.224,0,7.583-1.26,10.08-3.779-1.632-2.856-3.612-4.284-5.94-4.284-1.92,0-4.02,1.044-6.3,3.132v-3.996c2.016-2.208,4.296-3.312,6.84-3.312,1.872,0,3.696.684,5.472,2.052,1.776,1.368,3.348,3.312,4.716,5.832v1.8c-.384.504-.888,1.068-1.512,1.692.959.576,2.543.863,4.752.863ZM498.276,892.589c.72,0,1.29.209,1.71.63.42.419.63.99.63,1.71,0,1.607-.78,2.412-2.34,2.412-.72,0-1.296-.217-1.728-.648s-.648-1.021-.648-1.764c0-.696.216-1.26.648-1.692.432-.432,1.008-.647,1.728-.647Z" fill="#6664fb"/><path d="M521.928,884.956h3.24v4.356h-3.672c-1.752,0-3.204-.468-4.356-1.404-1.152.937-2.604,1.404-4.356,1.404h-3.672v-4.356h3.24c.912,0,1.56-.197,1.944-.594.384-.396.576-1.062.576-1.998v-6.66l4.536-2.376v9.036c0,.937.192,1.603.576,1.998.384.396,1.032.594,1.944.594ZM512.532,870.16c-.72,0-1.296-.216-1.728-.647-.432-.433-.648-1.02-.648-1.765,0-.695.216-1.26.648-1.691.432-.433,1.008-.648,1.728-.648s1.29.211,1.71.63c.42.421.63.99.63,1.71,0,1.608-.78,2.412-2.34,2.412ZM518.04,870.16c-.72,0-1.296-.222-1.728-.666-.432-.443-.648-1.025-.648-1.746,0-.695.222-1.26.666-1.691.444-.433,1.014-.648,1.71-.648.72,0,1.29.211,1.71.63.419.421.63.99.63,1.71,0,1.608-.78,2.412-2.34,2.412Z" fill="#6664fb"/><path d="M528.768,879.377c0-2.16.671-3.853,2.016-5.076,1.176-1.056,2.688-1.584,4.536-1.584,2.376,0,4.224.876,5.544,2.628,1.128,1.464,1.692,3.348,1.692,5.651,0,2.664-.708,4.765-2.124,6.301-1.272,1.344-2.893,2.016-4.86,2.016-1.92,0-3.492-.42-4.716-1.26-1.152.84-2.544,1.26-4.176,1.26h-3.672v-4.356h3.24c.912,0,1.56-.197,1.944-.594.384-.396.576-1.062.576-1.998v-2.987ZM533.304,882.94c0,1.345.708,2.016,2.124,2.016,1.776,0,2.664-1.367,2.664-4.104,0-2.615-.924-3.924-2.772-3.924-1.344,0-2.016.792-2.016,2.376v3.636Z" fill="#6664fb"/><path d="M578.844,889.312c-.288,2.208-1.537,3.936-3.744,5.184-1.993,1.104-4.477,1.656-7.452,1.656-3.984,0-6.984-1.14-9-3.42-1.488-1.704-2.232-3.792-2.232-6.264,0-1.896.444-3.552,1.332-4.968l4.32-.9c-.96,1.632-1.44,3.348-1.44,5.147,0,2.017.6,3.564,1.8,4.645,1.2,1.104,2.939,1.656,5.22,1.656,3.552,0,5.712-.913,6.48-2.736h-3.456l2.268-4.356h6.012v4.356h-.108ZM558.072,877.108l1.116-2.088h1.08c-.265-.479-.396-.972-.396-1.476,0-.769.282-1.435.846-1.998.564-.564,1.242-.847,2.034-.847.744,0,1.428.265,2.052.792v2.053c-.576-.505-1.152-.757-1.728-.757-.816,0-1.224.36-1.224,1.08,0,.36.156.744.468,1.152h3.564l-1.116,2.088h-6.696Z" fill="#6664fb"/><path d="M577.116,889.312v-4.356h3.816c.912,0,1.566-.197,1.962-.594.396-.396.594-1.062.594-1.998v-4.752l4.536-2.376v7.128c0,.937.192,1.603.576,1.998.384.396,1.032.594,1.944.594h2.448c.912,0,1.56-.197,1.944-.594.383-.396.576-1.062.576-1.998v-5.688l4.536-2.412v8.1c0,.937.198,1.603.594,1.998.396.396,1.05.594,1.962.594h2.448c.912,0,1.56-.197,1.944-.594.384-.396.576-1.062.576-1.998v-6.66l4.536-2.376v8.46c0,1.152.234,1.969.702,2.448.468.48,1.254.72,2.358.72h3.312v4.356h-3.564c-2.016,0-3.636-.576-4.86-1.728-1.08,1.128-2.532,1.704-4.356,1.728h-3.564c-1.776,0-3.228-.527-4.356-1.584-1.032,1.032-2.4,1.561-4.104,1.584h-3.564c-1.776,0-3.228-.527-4.356-1.584-1.128,1.057-2.58,1.584-4.356,1.584h-4.284ZM594.828,870.16c-.72,0-1.296-.216-1.728-.647-.432-.433-.648-1.02-.648-1.765,0-.695.216-1.26.648-1.691.432-.433,1.008-.648,1.728-.648s1.29.211,1.71.63c.42.421.63.99.63,1.71,0,1.608-.78,2.412-2.34,2.412ZM597.564,864.868c-1.44,0-2.16-.731-2.16-2.195,0-1.416.72-2.124,2.16-2.124,1.416,0,2.124.708,2.124,2.124,0,1.464-.708,2.195-2.124,2.195ZM600.372,870.16c-.72,0-1.296-.216-1.728-.647-.432-.433-.648-1.02-.648-1.765,0-.695.216-1.26.648-1.691.432-.433,1.008-.648,1.728-.648s1.29.211,1.71.63c.419.421.63.99.63,1.71,0,1.608-.78,2.412-2.34,2.412Z" fill="#6664fb"/><path d="M616.32,889.312v-4.356h3.24c.912,0,1.56-.197,1.944-.594.384-.396.576-1.062.576-1.998v-6.66l4.536-2.376v9.252c0,2.185-.672,3.889-2.016,5.112-1.176,1.08-2.712,1.62-4.608,1.62h-3.672ZM624.456,869.692c-.72,0-1.296-.216-1.728-.647-.432-.433-.648-1.021-.648-1.765,0-.695.216-1.26.648-1.691.432-.433,1.008-.648,1.728-.648s1.29.21,1.71.63c.419.42.63.99.63,1.71,0,1.608-.78,2.412-2.34,2.412Z" fill="#6664fb"/><path d="M631.728,864.076l1.152-2.088h1.08c-.264-.479-.396-.972-.396-1.476,0-.768.282-1.428.846-1.98.563-.552,1.242-.828,2.034-.828.72,0,1.392.252,2.016.757v2.088c-.576-.504-1.152-.756-1.728-.756-.792,0-1.188.359-1.188,1.079,0,.36.156.732.468,1.116h3.564l-1.152,2.088h-6.696ZM633.096,889.312v-20.808l4.536-2.412v23.22h-4.536Z" fill="#6664fb"/></svg>